<svg width="24" height="24" viewBox="0 0 24 24" fill="none" xmlns="http://www.w3.org/2000/svg">
<path d="M12 13.751C11.59 13.751 11.25 13.411 11.25 13.001V8.00098C11.25 7.59098 11.59 7.25098 12 7.25098C12.41 7.25098 12.75 7.59098 12.75 8.00098V13.001C12.75 13.411 12.41 13.751 12 13.751Z" fill="#316BFF"/>
<path d="M12.0098 17.001C11.4598 17.001 11.0098 16.551 11.0098 16.001C11.0098 15.451 11.4498 15.001 12.0098 15.001C12.5598 15.001 13.0098 15.451 13.0098 16.001C13.0098 16.551 12.5598 17.001 12.0098 17.001Z" fill="#316BFF"/>
<path fill-rule="evenodd" clip-rule="evenodd" d="M11.8303 22.751H12.0003L12.0103 22.761H12.1903C13.2403 22.681 13.9003 21.931 14.4303 21.321C14.7703 20.931 15.0903 20.571 15.4303 20.441C15.7754 20.3129 16.2662 20.35 16.7879 20.3894L16.8103 20.3911C17.7203 20.4611 18.8503 20.541 19.6903 19.701C20.5503 18.841 20.4603 17.721 20.3803 16.821L20.379 16.8065C20.3295 16.2617 20.2818 15.7379 20.4503 15.381C20.6003 15.061 20.9403 14.761 21.3103 14.441C21.9903 13.851 22.8403 13.101 22.7503 11.851C22.6703 10.801 21.9203 10.141 21.3103 9.61102C21.2932 9.5957 21.2761 9.58041 21.259 9.56516C20.8975 9.24213 20.5545 8.9357 20.4303 8.61102C20.2989 8.28234 20.3349 7.82137 20.373 7.33579C20.3754 7.30429 20.3779 7.2727 20.3803 7.24103C20.4603 6.34103 20.5503 5.22101 19.6903 4.35101C18.8303 3.49101 17.7003 3.58101 16.8003 3.66101L16.778 3.66273C16.2663 3.70212 15.7852 3.73916 15.4303 3.61102C15.094 3.49231 14.7772 3.1289 14.4412 2.74352L14.4303 2.73102L14.4125 2.71086C13.8855 2.11413 13.2285 1.37012 12.1803 1.29102H11.8403C10.7903 1.37102 10.1303 2.12102 9.60033 2.73102C9.26033 3.12102 8.94033 3.48102 8.60033 3.61102C8.27168 3.74248 7.81077 3.7064 7.32523 3.6684C7.29369 3.66593 7.26205 3.66345 7.23034 3.66101C6.33034 3.58101 5.20033 3.49101 4.34033 4.35101C3.50033 5.19101 3.58034 6.32102 3.65034 7.23102L3.65202 7.25336C3.69143 7.77505 3.72851 8.26594 3.60033 8.61102C3.47177 8.94726 3.1085 9.26394 2.72328 9.59974L2.71033 9.61102C2.02033 10.201 1.18033 10.941 1.27033 12.191C1.35033 13.241 2.10033 13.901 2.71033 14.431C3.10033 14.771 3.46033 15.091 3.59033 15.431C3.7185 15.7761 3.68143 16.267 3.64202 16.7887L3.64033 16.811C3.63934 16.8262 3.63833 16.8414 3.63732 16.8567C3.57759 17.7586 3.50433 18.865 4.33034 19.691C5.17942 20.5401 6.2917 20.4534 7.18596 20.3837L7.24261 20.3793C7.75431 20.3399 8.23548 20.3029 8.59033 20.431C8.9267 20.5497 9.24349 20.9132 9.57944 21.2985L9.59033 21.311C10.1203 21.921 10.7803 22.671 11.8303 22.751ZM9.11034 19.011C8.73034 18.871 8.34033 18.8311 7.95033 18.8311H7.94034C7.70447 18.8311 7.47478 18.8496 7.25613 18.8672C7.19669 18.872 7.13805 18.8768 7.08034 18.881C6.25034 18.951 5.72034 18.971 5.37034 18.621C5.04034 18.291 5.06034 17.751 5.12034 16.911C5.17034 16.241 5.22034 15.5511 4.98034 14.8911C4.72634 14.2072 4.18602 13.7333 3.70436 13.3109C3.69298 13.3009 3.68164 13.291 3.67033 13.2811C3.11033 12.7911 2.77033 12.471 2.74033 12.061C2.71033 11.581 3.05033 11.261 3.67033 10.721C4.16033 10.301 4.72034 9.81102 4.98034 9.11102C5.22034 8.45102 5.17034 7.76106 5.12034 7.09106C5.06034 6.25106 5.04034 5.71104 5.37034 5.38104C5.73034 5.03104 6.25034 5.05103 7.08034 5.12103L7.09773 5.12241C7.72357 5.17211 8.43649 5.22872 9.10033 4.98102C9.79646 4.72246 10.275 4.17711 10.7032 3.68917L10.7103 3.68103C11.2003 3.12103 11.5203 2.78104 11.9203 2.75104H12.0603C12.4703 2.78104 12.7903 3.12103 13.2803 3.68103C13.2985 3.70128 13.3167 3.72168 13.335 3.74219C13.7512 4.20775 14.2199 4.73199 14.8903 4.98102C15.5542 5.22872 16.2671 5.17211 16.8929 5.12241L16.9103 5.12103C17.7403 5.05103 18.2703 5.03104 18.6203 5.38104C18.9703 5.74104 18.9503 6.26106 18.8803 7.09106L18.8789 7.10858C18.8293 7.73439 18.7726 8.44722 19.0203 9.11102C19.2888 9.80703 19.8341 10.2855 20.3219 10.7136L20.3303 10.721C20.8903 11.211 21.2303 11.531 21.2603 11.941C21.3003 12.421 20.9303 12.771 20.3303 13.291L20.3231 13.2973C19.8749 13.6858 19.3688 14.1243 19.0903 14.731C18.7621 15.4471 18.8296 16.2225 18.8893 16.9097L18.8903 16.921C18.9603 17.741 18.9803 18.271 18.6303 18.621C18.3003 18.951 17.7603 18.931 16.9203 18.871C16.2503 18.821 15.5603 18.771 14.9003 19.011C14.2042 19.2696 13.7257 19.815 13.2975 20.3029L13.2903 20.311C12.8003 20.871 12.4803 21.211 12.0703 21.241H11.9403C11.5303 21.211 11.2103 20.871 10.7203 20.311C10.7022 20.2908 10.684 20.2704 10.6656 20.2499C10.2494 19.7843 9.7808 19.2601 9.11034 19.011Z" fill="#316BFF"/>
</svg>
