<svg width="18" height="14" viewBox="0 0 18 14" fill="none" xmlns="http://www.w3.org/2000/svg">
<g clip-path="url(#clip0_194_2414)">
<rect width="18" height="13.5" fill="white"/>
<path fill-rule="evenodd" clip-rule="evenodd" d="M-1 -1H19V14H-1V-1Z" fill="#E31D1C"/>
<path fill-rule="evenodd" clip-rule="evenodd" d="M-1 0.25V1.5H19V0.25H-1ZM-1 2.75V4H19V2.75H-1ZM-1 6.5V5.25H19V6.5H-1ZM-1 7.75V9H19V7.75H-1ZM-1 11.5V10.25H19V11.5H-1ZM-1 14V12.75H19V14H-1Z" fill="#F7FCFF"/>
<rect x="-1" y="-1" width="11.25" height="8.75" fill="#2E42A5"/>
<path fill-rule="evenodd" clip-rule="evenodd" d="M0.302202 1.71718L0.964602 1.25577L1.47843 1.62569H1.1875L1.77584 2.14606L1.57712 2.87569H1.26589L0.963676 2.20557L0.705946 2.87569H-0.0625L0.525835 3.39606L0.302202 4.21719L0.964602 3.75577L1.47843 4.12569H1.1875L1.77584 4.64606L1.57712 5.37569H1.26589L0.963676 4.70557L0.705946 5.37569H-0.0625L0.525835 5.89606L0.302202 6.71719L0.964602 6.25577L1.60552 6.71719L1.40625 5.89606L1.92096 5.37569H1.68356L2.2146 5.00577L2.72843 5.37569H2.4375L3.02584 5.89606L2.8022 6.71719L3.4646 6.25577L4.10552 6.71719L3.90625 5.89606L4.42097 5.37569H4.18356L4.7146 5.00577L5.22843 5.37569H4.9375L5.52584 5.89606L5.3022 6.71719L5.9646 6.25577L6.60552 6.71719L6.40625 5.89606L6.92097 5.37569H6.68356L7.2146 5.00577L7.72843 5.37569H7.4375L8.02584 5.89606L7.8022 6.71719L8.4646 6.25577L9.10552 6.71719L8.90625 5.89606L9.42097 5.37569H8.76589L8.46368 4.70557L8.20595 5.37569H7.83332L7.65625 4.64606L8.17097 4.12569H7.93356L8.4646 3.75577L9.10552 4.21719L8.90625 3.39606L9.42097 2.87569H8.76589L8.46368 2.20557L8.20595 2.87569H7.83332L7.65625 2.14606L8.17097 1.62569H7.93356L8.4646 1.25577L9.10552 1.71718L8.90625 0.896059L9.42097 0.375687H8.76589L8.46368 -0.294434L8.20595 0.375687H7.4375L8.02584 0.896059L7.82712 1.62569H7.51589L7.21368 0.955566L6.95595 1.62569H6.58332L6.40625 0.896059L6.92097 0.375687H6.26589L5.96368 -0.294434L5.70595 0.375687H4.9375L5.52584 0.896059L5.32712 1.62569H5.01589L4.71368 0.955566L4.45595 1.62569H4.08332L3.90625 0.896059L4.42097 0.375687H3.76589L3.46368 -0.294434L3.20595 0.375687H2.4375L3.02584 0.896059L2.82712 1.62569H2.51589L2.21368 0.955566L1.95595 1.62569H1.58332L1.40625 0.896059L1.92096 0.375687H1.26589L0.963676 -0.294434L0.705946 0.375687H-0.0625L0.525835 0.896059L0.302202 1.71718ZM7.82712 4.12569L8.02584 3.39606L7.4375 2.87569H7.72843L7.2146 2.50577L6.68356 2.87569H6.92097L6.40625 3.39606L6.58332 4.12569H6.95595L7.21368 3.45557L7.51589 4.12569H7.82712ZM6.47843 4.12569L5.9646 3.75577L5.43356 4.12569H5.67097L5.15625 4.64606L5.33332 5.37569H5.70595L5.96368 4.70557L6.26589 5.37569H6.57712L6.77584 4.64606L6.1875 4.12569H6.47843ZM4.27584 4.64606L4.07712 5.37569H3.76589L3.46368 4.70557L3.20595 5.37569H2.83332L2.65625 4.64606L3.17096 4.12569H2.93356L3.4646 3.75577L3.97843 4.12569H3.6875L4.27584 4.64606ZM4.45595 4.12569H4.08332L3.90625 3.39606L4.42097 2.87569H4.18356L4.7146 2.50577L5.22843 2.87569H4.9375L5.52584 3.39606L5.32712 4.12569H5.01589L4.71368 3.45557L4.45595 4.12569ZM2.82712 4.12569L3.02584 3.39606L2.4375 2.87569H2.72843L2.2146 2.50577L1.68356 2.87569H1.92096L1.40625 3.39606L1.58332 4.12569H1.95595L2.21368 3.45557L2.51589 4.12569H2.82712ZM6.77584 2.14606L6.57712 2.87569H6.26589L5.96368 2.20557L5.70595 2.87569H5.33332L5.15625 2.14606L5.67097 1.62569H5.43356L5.9646 1.25577L6.47843 1.62569H6.1875L6.77584 2.14606ZM3.97843 1.62569L3.4646 1.25577L2.93356 1.62569H3.17096L2.65625 2.14606L2.83332 2.87569H3.20595L3.46368 2.20557L3.76589 2.87569H4.07712L4.27584 2.14606L3.6875 1.62569H3.97843Z" fill="#F7FCFF"/>
</g>
<defs>
<clipPath id="clip0_194_2414">
<rect width="18" height="13.5" fill="white"/>
</clipPath>
</defs>
</svg>
