<svg width="24" height="24" viewBox="0 0 24 24" fill="none" xmlns="http://www.w3.org/2000/svg">
<path d="M15.6231 10.739C15.8083 11.1094 15.6581 11.5599 15.2877 11.7452C14.4578 12.1601 13.6707 13.0339 13.0626 13.8853C12.7671 14.2989 12.5299 14.6842 12.367 14.9658C12.2857 15.1062 12.1645 15.3323 12.1231 15.4097C12.003 15.6498 11.7636 15.8076 11.4956 15.8231C11.2275 15.8386 10.9716 15.7097 10.8246 15.485C10.6478 15.2146 10.3576 14.9567 10.0754 14.7527C9.94007 14.6549 9.69143 14.5052 9.60439 14.4531C9.23796 14.2612 9.09597 13.8088 9.28729 13.4419C9.4788 13.0746 9.93179 12.9321 10.299 13.1236C10.4983 13.2275 10.777 13.409 10.9541 13.5371C11.0632 13.6159 11.1841 13.7086 11.3087 13.8143C11.4582 13.5735 11.6372 13.3 11.842 13.0134C12.4838 12.1148 13.4467 10.9886 14.6168 10.4035C14.9873 10.2183 15.4378 10.3685 15.6231 10.739Z" fill="#316BFF"/>
<path fill-rule="evenodd" clip-rule="evenodd" d="M11.9454 1.25H12.0546C13.8939 1.24999 15.348 1.24997 16.4854 1.39731C17.6529 1.54853 18.5995 1.86672 19.3488 2.58863C20.102 3.31431 20.4376 4.23743 20.5964 5.37525C20.75 6.4765 20.75 7.88207 20.75 9.64945V18.0458C20.75 19.1434 20.7501 20.0553 20.6447 20.7405C20.5356 21.4495 20.2814 22.1395 19.5804 22.5139C18.9553 22.8477 18.2676 22.7798 17.6846 22.6028C17.0949 22.4238 16.4955 22.0989 15.9467 21.7521C15.3926 21.402 14.8494 21.0029 14.377 20.6538L14.3215 20.6127C13.8587 20.2706 13.4869 19.9958 13.2031 19.8249C12.8035 19.5843 12.5513 19.4335 12.3467 19.3371C12.158 19.2482 12.0663 19.234 12 19.234C11.9337 19.234 11.842 19.2482 11.6533 19.3371C11.4488 19.4335 11.1965 19.5843 10.7969 19.8249C10.5131 19.9958 10.1414 20.2706 9.67854 20.6127L9.62299 20.6538C9.15065 21.0029 8.60739 21.402 8.05335 21.7521C7.50454 22.0989 6.90514 22.4238 6.31544 22.6028C5.7324 22.7798 5.04476 22.8477 4.41958 22.5139C3.71857 22.1395 3.46438 21.4495 3.35533 20.7405C3.24993 20.0553 3.24996 19.1434 3.25 18.0459L3.25 9.64943C3.24999 7.88206 3.24997 6.4765 3.40365 5.37525C3.56243 4.23743 3.898 3.31431 4.65121 2.58863C5.40051 1.86672 6.34712 1.54853 7.51457 1.39731C8.652 1.24997 10.1061 1.24999 11.9454 1.25ZM7.70726 2.88488C6.6962 3.01584 6.11422 3.26202 5.69194 3.66885C5.27359 4.07192 5.02337 4.62151 4.88925 5.58256C4.86026 5.79034 4.8373 6.01212 4.81912 6.25H19.1809C19.1627 6.01212 19.1398 5.79034 19.1108 5.58256C18.9766 4.62151 18.7264 4.07192 18.3081 3.66885C17.8858 3.26202 17.3038 3.01584 16.2927 2.88488C15.2629 2.75148 13.9061 2.75 12 2.75C10.0939 2.75 8.73712 2.75148 7.70726 2.88488ZM19.2407 7.75H4.75933C4.75028 8.32635 4.75 8.97415 4.75 9.70753V17.9808C4.75 19.1601 4.75215 19.9551 4.83789 20.5125C4.92205 21.0596 5.05429 21.1523 5.12613 21.1907C5.24926 21.2564 5.47376 21.2907 5.87969 21.1675C6.27895 21.0463 6.74532 20.8043 7.25207 20.4841C7.75359 20.1671 8.25568 19.7991 8.73144 19.4475L8.8212 19.3811C9.25048 19.0636 9.6758 18.749 10.0231 18.5399L10.0525 18.5222C10.4139 18.3045 10.732 18.113 11.014 17.9801C11.3194 17.8363 11.6361 17.734 12 17.734C12.3639 17.734 12.6806 17.8363 12.986 17.9801C13.268 18.113 13.5861 18.3045 13.9475 18.5222L13.9769 18.5399C14.3242 18.749 14.7495 19.0636 15.1788 19.3811L15.2686 19.4475C15.7443 19.7991 16.2464 20.1671 16.7479 20.4841C17.2547 20.8043 17.7211 21.0463 18.1203 21.1675C18.5262 21.2907 18.7508 21.2564 18.8739 21.1907C18.9457 21.1523 19.078 21.0596 19.1621 20.5125C19.2479 19.9551 19.25 19.1601 19.25 17.9808V9.70753C19.25 8.97415 19.2497 8.32635 19.2407 7.75Z" fill="#316BFF"/>
</svg>
