<svg width="58" height="44" viewBox="0 0 58 44" fill="none" xmlns="http://www.w3.org/2000/svg">
<g clip-path="url(#clip0_194_2252)">
<rect width="58" height="43.5" fill="white"/>
<path fill-rule="evenodd" clip-rule="evenodd" d="M-7.25 -5.1875V49.1875H65.25V-5.1875H-7.25Z" fill="#2E42A5"/>
<mask id="mask0_194_2252" style="mask-type:luminance" maskUnits="userSpaceOnUse" x="-8" y="-6" width="74" height="56">
<path fill-rule="evenodd" clip-rule="evenodd" d="M-7.25 -5.1875V49.1875H65.25V-5.1875H-7.25Z" fill="white"/>
</mask>
<g mask="url(#mask0_194_2252)">
<path d="M-15.3203 45.3029L0.633516 52.05L65.6144 2.14825L74.0297 -7.87823L56.9694 -10.1333L30.4652 11.3708L9.1321 25.8595L-15.3203 45.3029Z" fill="white"/>
<path d="M-13.1328 50.0298L-5.00507 53.9453L71.0113 -8.8101H59.599L-13.1328 50.0298Z" fill="#F50100"/>
<path d="M73.3203 45.3029L57.3665 52.05L-7.61444 2.14825L-16.0297 -7.87823L1.03059 -10.1333L27.5348 11.3708L48.8679 25.8595L73.3203 45.3029Z" fill="white"/>
<path d="M72.7734 48.6953L64.6457 52.6108L32.2772 25.742L22.6806 22.74L-16.842 -7.84412H-5.42968L34.0707 22.0141L44.5628 25.6138L72.7734 48.6953Z" fill="#F50100"/>
<mask id="path-7-inside-1_194_2252" fill="white">
<path fill-rule="evenodd" clip-rule="evenodd" d="M37.5589 -9.71899H20.4408V12.9373H-11.7188V31.0623H20.4408V53.7185H37.5589V31.0623H69.8438V12.9373H37.5589V-9.71899Z"/>
</mask>
<path fill-rule="evenodd" clip-rule="evenodd" d="M37.5589 -9.71899H20.4408V12.9373H-11.7188V31.0623H20.4408V53.7185H37.5589V31.0623H69.8438V12.9373H37.5589V-9.71899Z" fill="#F50100"/>
<path d="M20.4408 -9.71899V-14.2502H15.9096V-9.71899H20.4408ZM37.5589 -9.71899H42.0901V-14.2502H37.5589V-9.71899ZM20.4408 12.9373V17.4685H24.9721V12.9373H20.4408ZM-11.7188 12.9373V8.40601H-16.25V12.9373H-11.7188ZM-11.7188 31.0623H-16.25V35.5935H-11.7188V31.0623ZM20.4408 31.0623H24.9721V26.531H20.4408V31.0623ZM20.4408 53.7185H15.9096V58.2498H20.4408V53.7185ZM37.5589 53.7185V58.2498H42.0901V53.7185H37.5589ZM37.5589 31.0623V26.531H33.0276V31.0623H37.5589ZM69.8438 31.0623V35.5935H74.375V31.0623H69.8438ZM69.8438 12.9373H74.375V8.40601H69.8438V12.9373ZM37.5589 12.9373H33.0276V17.4685H37.5589V12.9373ZM20.4408 -5.18774H37.5589V-14.2502H20.4408V-5.18774ZM24.9721 12.9373V-9.71899H15.9096V12.9373H24.9721ZM-11.7188 17.4685H20.4408V8.40601H-11.7188V17.4685ZM-7.1875 31.0623V12.9373H-16.25V31.0623H-7.1875ZM20.4408 26.531H-11.7188V35.5935H20.4408V26.531ZM24.9721 53.7185V31.0623H15.9096V53.7185H24.9721ZM37.5589 49.1873H20.4408V58.2498H37.5589V49.1873ZM33.0276 31.0623V53.7185H42.0901V31.0623H33.0276ZM69.8438 26.531H37.5589V35.5935H69.8438V26.531ZM65.3125 12.9373V31.0623H74.375V12.9373H65.3125ZM37.5589 17.4685H69.8438V8.40601H37.5589V17.4685ZM33.0276 -9.71899V12.9373H42.0901V-9.71899H33.0276Z" fill="white" mask="url(#path-7-inside-1_194_2252)"/>
</g>
</g>
<defs>
<clipPath id="clip0_194_2252">
<rect width="58" height="43.5" fill="white"/>
</clipPath>
</defs>
</svg>
