<svg width="27" height="26" viewBox="0 0 27 26" fill="none" xmlns="http://www.w3.org/2000/svg">
<path d="M16.4166 14.8959C15.9724 14.8959 15.6041 14.5276 15.6041 14.0834V13.0001C15.6041 12.5559 15.9724 12.1876 16.4166 12.1876C16.8608 12.1876 17.2291 12.5559 17.2291 13.0001V14.0834C17.2291 14.5276 16.8608 14.8959 16.4166 14.8959Z" fill="#8E94A3" fill-opacity="0.7"/>
<path d="M9.91659 14.8959C9.47242 14.8959 9.10409 14.5276 9.10409 14.0834V13.0001C9.10409 12.5559 9.47242 12.1876 9.91659 12.1876C10.3608 12.1876 10.7291 12.5559 10.7291 13.0001V14.0834C10.7291 14.5276 10.3608 14.8959 9.91659 14.8959Z" fill="#8E94A3" fill-opacity="0.7"/>
<path d="M10.5127 18.525C10.6101 18.6008 11.4966 19.2278 13.1614 19.2292C13.1596 19.2292 13.1578 19.2292 13.156 19.2292H13.1668C13.165 19.2292 13.1632 19.2292 13.1614 19.2292C14.8263 19.2278 15.7127 18.6008 15.8101 18.525C16.1676 18.265 16.2435 17.7667 15.9835 17.4092C15.7235 17.0409 15.2252 16.965 14.8569 17.2142C14.8352 17.2359 14.261 17.6042 13.1668 17.6042C12.0727 17.6042 11.5201 17.2467 11.4768 17.2142C11.1193 16.9542 10.6102 17.03 10.3502 17.3875C10.0794 17.745 10.1552 18.2542 10.5127 18.525Z" fill="#8E94A3" fill-opacity="0.7"/>
<path fill-rule="evenodd" clip-rule="evenodd" d="M12.3541 6.08985C11.4086 5.75426 10.7291 4.85037 10.7291 3.79175C10.7291 2.44841 11.8233 1.35425 13.1666 1.35425C14.5099 1.35425 15.6041 2.44841 15.6041 3.79175C15.6041 4.85037 14.9246 5.75426 13.9791 6.08985V7.85425H14.2499C17.5323 7.85425 19.1791 7.85425 20.3708 9.04589C21.0224 9.6975 21.3177 10.5175 21.4515 11.646C22.4676 11.6467 23.0524 11.6618 23.5882 11.9709C23.9566 12.1876 24.2707 12.4909 24.4874 12.8701C24.8124 13.4334 24.8124 14.0509 24.8124 15.1667C24.8124 16.2826 24.8124 16.9001 24.4874 17.4634C24.2815 17.8317 23.9674 18.1459 23.5882 18.3626C23.0524 18.6717 22.4676 18.6868 21.4515 18.6875C21.3177 19.8159 21.0224 20.636 20.3708 21.2876C19.1791 22.4792 17.5325 22.4792 14.2501 22.4792H13.6866C13.2099 23.3026 11.9424 24.6459 8.83325 24.6459C8.50825 24.6459 8.20498 24.4509 8.08582 24.1476C7.96665 23.8442 8.03155 23.4975 8.25905 23.2592C8.38905 23.1292 8.67079 22.7826 8.87663 22.4034C7.60913 22.2951 6.68823 22.0134 5.96239 21.2876C5.30994 20.6352 5.01472 19.8171 4.88114 18.6875C3.86538 18.6868 3.28066 18.6717 2.74492 18.3626C2.37659 18.1459 2.06247 17.8426 1.8458 17.4634C1.5208 16.9001 1.52075 16.2826 1.52075 15.1667C1.52075 14.0509 1.5208 13.4334 1.8458 12.8701C2.05164 12.5018 2.36576 12.1876 2.74492 11.9709C3.28066 11.6618 3.86538 11.6467 4.88114 11.646C5.01472 10.5164 5.30994 9.69835 5.96239 9.04589C7.15403 7.85425 8.80068 7.85425 12.083 7.85425H12.3541V6.08985ZM13.0354 9.4684H12.0941L12.0833 9.47925C9.24515 9.47925 7.82576 9.47925 7.11079 10.1942C6.39579 10.9092 6.39575 12.3284 6.39575 15.1667C6.39575 18.0051 6.39579 19.4243 7.11079 20.1393C7.57662 20.6051 8.31327 20.7892 9.93827 20.8326C10.3824 20.8434 10.7291 21.2009 10.7291 21.6451C10.7291 22.0892 10.6208 22.4684 10.4691 22.8368C12.0248 22.453 12.3493 21.5629 12.3837 21.4687L12.3866 21.4609C12.4733 21.1034 12.7983 20.8434 13.1774 20.8434H14.2608C17.0989 20.8434 18.5183 20.8434 19.2332 20.1284C19.9482 19.4134 19.9483 17.9942 19.9483 15.1559C19.9483 12.3176 19.9482 10.8984 19.2332 10.1834C18.5182 9.46844 17.0991 9.4684 14.2608 9.4684H13.2978C13.255 9.47554 13.2112 9.47925 13.1666 9.47925C13.122 9.47925 13.0782 9.47554 13.0354 9.4684ZM13.1666 4.60425C13.6108 4.60425 13.9791 4.23591 13.9791 3.79175C13.9791 3.34758 13.6108 2.97925 13.1666 2.97925C12.7224 2.97925 12.3541 3.34758 12.3541 3.79175C12.3541 4.23591 12.7224 4.60425 13.1666 4.60425ZM4.78329 13.2711C4.14646 13.2723 3.71919 13.2833 3.54658 13.3792C3.41658 13.4551 3.31906 13.5526 3.25406 13.6717C3.14575 13.8667 3.14575 14.3865 3.14575 15.1662V15.1673C3.14575 15.947 3.14575 16.4668 3.25406 16.6618C3.31906 16.7809 3.42741 16.8893 3.54658 16.9543C3.71919 17.0502 4.14646 17.0612 4.78329 17.0624C4.77075 16.4935 4.77075 15.8648 4.77075 15.167C4.77075 14.4691 4.77075 13.84 4.78329 13.2711ZM21.5624 15.1665C21.5624 14.4693 21.5624 13.8405 21.5498 13.2711C22.1867 13.2723 22.614 13.2833 22.7866 13.3792C22.9058 13.4442 23.0141 13.5526 23.0791 13.6717C23.1874 13.8667 23.1874 14.3865 23.1874 15.1662V15.1673C23.1874 15.947 23.1874 16.4668 23.0791 16.6618C23.0141 16.7809 22.9166 16.8784 22.7866 16.9543C22.614 17.0502 22.1867 17.0612 21.5498 17.0624C21.5624 16.493 21.5624 15.8638 21.5624 15.1665Z" fill="#8E94A3" fill-opacity="0.7"/>
</svg>
