<svg width="24" height="24" viewBox="0 0 24 24" fill="none" xmlns="http://www.w3.org/2000/svg">
<path fill-rule="evenodd" clip-rule="evenodd" d="M12.0001 3.75C8.68578 3.75 6.13126 5.87246 5.78916 8.41749C5.93286 8.47406 6.07757 8.54028 6.22585 8.60814L6.30989 8.64654L6.37529 8.67624C6.64798 8.79988 6.91511 8.921 7.12819 9.1063C7.75106 9.648 7.75047 10.363 7.75012 10.7764L7.75012 15.224C7.75047 15.6374 7.75106 16.3524 7.12818 16.8941C6.91511 17.0794 6.64798 17.2005 6.37529 17.3241L6.30989 17.3538L6.22584 17.3923C5.86294 17.5583 5.52143 17.7146 5.16372 17.7436C4.11865 17.8281 3.53326 17.1152 3.18936 16.6964L3.1613 16.6623C3.07414 16.5564 2.96681 16.432 2.85092 16.2977C2.63904 16.0522 2.39852 15.7735 2.20016 15.5139C1.87251 15.0851 1.54418 14.5713 1.38108 13.9743C1.20645 13.335 1.20645 12.6654 1.38108 12.0261C1.49943 11.5929 1.71356 11.2106 1.99621 10.8093C2.26994 10.4207 2.63869 9.97286 3.09468 9.41902L3.11322 9.3965C3.13192 9.3738 3.15149 9.3497 3.172 9.32447C3.40295 9.04023 3.75137 8.6114 4.28062 8.39132C4.63627 4.86306 8.05619 2.25 12.0001 2.25C15.9441 2.25 19.364 4.86306 19.7197 8.39133C20.2489 8.61141 20.5973 9.04023 20.8283 9.32447L20.8293 9.32567C20.8494 9.35047 20.8687 9.37416 20.8871 9.3965L20.9055 9.41896C21.3615 9.97281 21.7303 10.4207 22.0041 10.8093C22.2867 11.2106 22.5008 11.5929 22.6192 12.0261C22.7938 12.6654 22.7938 13.335 22.6192 13.9743C22.4561 14.5713 22.1278 15.0851 21.8001 15.5139C21.6018 15.7734 21.3613 16.0521 21.1495 16.2976C21.0336 16.4319 20.9261 16.5564 20.839 16.6623L20.8109 16.6964C20.5837 16.9731 20.2511 17.3782 19.7501 17.5968L19.7501 17.8C19.7501 20.129 17.4587 21.75 15.0001 21.75L13.0001 21.75C12.5859 21.75 12.2501 21.4142 12.2501 21C12.2501 20.5858 12.5859 20.25 13.0001 20.25L15.0001 20.25C16.9599 20.25 18.2501 19.0056 18.2501 17.8L18.2501 17.598C18.0936 17.5383 17.9361 17.4663 17.7744 17.3923L17.6904 17.3538L17.625 17.3241C17.3523 17.2005 17.0852 17.0794 16.8721 16.8941C16.2492 16.3524 16.2498 15.6374 16.2502 15.224L16.2502 10.7764C16.2498 10.363 16.2492 9.648 16.8721 9.1063C17.0852 8.921 17.3523 8.79988 17.625 8.67624L17.6904 8.64654L17.7744 8.60814C17.9227 8.54028 18.0674 8.47406 18.2111 8.41749C17.869 5.87246 15.3145 3.75 12.0001 3.75ZM19.018 16.2502C19.0121 16.2501 19.0061 16.25 19.0001 16.25C18.9956 16.25 18.9911 16.25 18.9866 16.2501C18.9772 16.2498 18.9675 16.2492 18.9575 16.2484C18.8979 16.2436 18.8154 16.218 18.3121 15.9888C17.9285 15.8141 17.8823 15.7847 17.8564 15.7622C17.8116 15.7233 17.7933 15.6911 17.7784 15.6306C17.7563 15.5413 17.7502 15.4228 17.7502 15.1957L17.7502 10.8046C17.7502 10.5776 17.7563 10.459 17.7784 10.3698C17.7933 10.3093 17.8116 10.2771 17.8564 10.2382C17.8823 10.2156 17.9285 10.1863 18.3121 10.0116C18.8154 9.7824 18.8979 9.75677 18.9575 9.75195C18.9726 9.75073 18.9871 9.75007 19.001 9.75L19.0062 9.75C19.1035 9.75051 19.1741 9.78017 19.2592 9.84384C19.3928 9.9438 19.5182 10.0938 19.729 10.3499C20.2079 10.9315 20.5404 11.3361 20.7778 11.6732C21.01 12.0028 21.118 12.2228 21.1722 12.4214C21.2762 12.8019 21.2762 13.1985 21.1722 13.579C21.0836 13.9035 20.8884 14.2366 20.6083 14.6032C20.4282 14.8388 20.2541 15.0396 20.0699 15.2519C19.9464 15.3943 19.8183 15.542 19.6809 15.7089C19.486 15.9457 19.3644 16.0821 19.2436 16.168C19.1701 16.2203 19.1059 16.2476 19.018 16.2502ZM4.99927 9.75L4.99408 9.75C4.89675 9.75051 4.82621 9.78017 4.74111 9.84384C4.6075 9.9438 4.4821 10.0938 4.27124 10.3499C3.79241 10.9315 3.45992 11.3361 3.2225 11.6732C2.99032 12.0028 2.88231 12.2228 2.82806 12.4214C2.72412 12.8019 2.72412 13.1985 2.82806 13.579C2.9167 13.9035 3.1119 14.2366 3.39201 14.6032C3.5721 14.8388 3.74621 15.0396 3.93035 15.2519C4.05387 15.3943 4.18196 15.542 4.31933 15.7089C4.51431 15.9457 4.63588 16.0821 4.75665 16.168C4.84608 16.2316 4.92159 16.2582 5.04281 16.2484C5.10241 16.2436 5.1849 16.218 5.68813 15.9888C6.07173 15.8141 6.11797 15.7847 6.14385 15.7622C6.18863 15.7233 6.20694 15.6911 6.22189 15.6306C6.24393 15.5413 6.25011 15.4228 6.25011 15.1957L6.25011 10.8046C6.25011 10.5776 6.24393 10.459 6.22189 10.3698C6.20694 10.3093 6.18863 10.2771 6.14385 10.2382C6.11797 10.2156 6.07173 10.1863 5.68813 10.0116C5.1849 9.7824 5.10241 9.75677 5.04281 9.75195C5.02766 9.75073 5.01319 9.75007 4.99927 9.75Z" fill="#316BFF"/>
</svg>
