<svg width="20" height="20" viewBox="0 0 20 20" fill="none" xmlns="http://www.w3.org/2000/svg">
<path d="M13.9994 15.6548C14.0159 15.2409 13.6937 14.8921 13.2798 14.8756C12.8659 14.8592 12.517 15.1814 12.5006 15.5953C12.443 17.044 11.2356 18.2895 9.58399 18.2491C9.22221 18.2403 8.74301 18.1115 7.50473 17.7622C4.70545 16.9726 2.60508 15.7352 2.09554 13.1372C2.00341 12.6675 2.00001 12.1268 2.00001 10.8373L2.00001 9.16278C2.00001 7.87329 2.00341 7.33257 2.09554 6.86283C2.60508 4.26485 4.70545 3.02745 7.50474 2.23787C8.74301 1.88859 9.22221 1.75982 9.58399 1.75097C11.2356 1.71056 12.443 2.95605 12.5006 4.40481C12.517 4.81869 12.8659 5.14088 13.2798 5.12443C13.6937 5.10798 14.0159 4.75913 13.9994 4.34524C13.9098 2.09011 12.0306 0.190667 9.54731 0.251418C8.97035 0.265533 8.29212 0.456991 7.22809 0.757353L7.09752 0.7942C4.17379 1.61889 1.30604 3.09449 0.623586 6.57414C0.499869 7.20493 0.49992 7.9012 0.500004 9.06931L0.500004 10.9308C0.499919 12.0989 0.499869 12.7951 0.623585 13.4259C1.30604 16.9056 4.17379 18.3812 7.09752 19.2059L7.22811 19.2427C8.29212 19.5431 8.97036 19.7345 9.54731 19.7487C12.0306 19.8094 13.9098 17.9099 13.9994 15.6548Z" fill="#F0516D"/>
<path d="M11.2728 8.03781C11.5698 7.74911 11.5765 7.27428 11.2878 6.97726C10.9991 6.68023 10.5243 6.67349 10.2273 6.96219C10.136 7.05089 9.95421 7.19651 9.68278 7.40971L9.62285 7.45676C9.38072 7.64682 9.09663 7.86981 8.82553 8.09954C8.53497 8.34574 8.23318 8.62131 7.99856 8.89679C7.88098 9.03483 7.76501 9.19043 7.67543 9.35782C7.58904 9.51926 7.50002 9.74171 7.50002 10C7.50002 10.2583 7.58904 10.4807 7.67543 10.6422C7.76501 10.8096 7.88098 10.9652 7.99856 11.1032C8.23318 11.3787 8.53497 11.6543 8.82553 11.9005C9.09664 12.1302 9.3807 12.3532 9.62284 12.5432L9.68278 12.5903C9.95421 12.8035 10.136 12.9491 10.2273 13.0378C10.5243 13.3265 10.9991 13.3198 11.2878 13.0227C11.5765 12.7257 11.5698 12.2509 11.2728 11.9622C11.1112 11.8051 10.8541 11.6029 10.6093 11.4107L10.5524 11.3659C10.3066 11.173 10.0439 10.9667 9.79524 10.7561L9.78809 10.75H19.25C19.6642 10.75 20 10.4142 20 10C20 9.58579 19.6642 9.25 19.25 9.25H9.78809L9.79524 9.24394C10.0439 9.03326 10.3066 8.82697 10.5524 8.63406L10.6093 8.58933C10.8541 8.39711 11.1112 8.19487 11.2728 8.03781Z" fill="#F0516D"/>
</svg>
