<svg width="22" height="22" viewBox="0 0 22 22" fill="none" xmlns="http://www.w3.org/2000/svg">
<path d="M11.25 6C11.25 5.58579 10.9142 5.25 10.5 5.25C10.0858 5.25 9.75 5.58579 9.75 6V6.62931H6C5.58579 6.62931 5.25 6.9651 5.25 7.37931C5.25 7.79352 5.58579 8.12931 6 8.12931H12.4571C12.0108 9.26546 11.3554 10.3675 10.5931 11.4048C10.4498 11.2188 10.3064 11.0269 10.1708 10.8389C9.83277 10.3701 9.58228 9.97865 9.48693 9.77408C9.31195 9.39864 8.86575 9.23614 8.49031 9.41112C8.11487 9.5861 7.95237 10.0323 8.12735 10.4077C8.28915 10.7549 8.61723 11.249 8.95417 11.7163C9.17079 12.0167 9.40691 12.3276 9.6354 12.6145C8.72949 13.6835 7.76185 14.6418 6.8852 15.4479C6.5803 15.7283 6.56041 16.2028 6.84078 16.5077C7.12115 16.8126 7.59561 16.8324 7.90051 16.5521C8.76369 15.7583 9.72743 14.8081 10.6473 13.7394L11.9952 15.1406C12.2823 15.4391 12.7571 15.4484 13.0557 15.1612C13.3542 14.8741 13.3634 14.3993 13.0762 14.1008L11.5989 12.5649C12.6127 11.229 13.5141 9.73013 14.0533 8.12931H16C16.4142 8.12931 16.75 7.79352 16.75 7.37931C16.75 6.9651 16.4142 6.62931 16 6.62931L11.25 6.62931V6Z" fill="#316BFF"/>
<path fill-rule="evenodd" clip-rule="evenodd" d="M11.0572 0.75H10.9428C8.75212 0.749987 7.03144 0.749976 5.68802 0.930594C4.31137 1.11568 3.21911 1.50272 2.36091 2.36091C1.50272 3.21911 1.11568 4.31137 0.930594 5.68802C0.749976 7.03144 0.749987 8.75212 0.75 10.9428V11.0572C0.749987 13.2479 0.749976 14.9686 0.930594 16.312C1.11568 17.6886 1.50272 18.7809 2.36091 19.6391C3.21911 20.4973 4.31137 20.8843 5.68802 21.0694C7.03144 21.25 8.7521 21.25 10.9428 21.25H11.0572C13.2479 21.25 14.9686 21.25 16.312 21.0694C17.6886 20.8843 18.7809 20.4973 19.6391 19.6391C20.4973 18.7809 20.8843 17.6886 21.0694 16.312C21.25 14.9686 21.25 13.2479 21.25 11.0572V10.9428C21.25 8.75214 21.25 7.03144 21.0694 5.68802C20.8843 4.31137 20.4973 3.21911 19.6391 2.36091C18.7809 1.50272 17.6886 1.11568 16.312 0.930594C14.9686 0.749976 13.2479 0.749987 11.0572 0.75ZM3.42157 3.42157C3.95462 2.88853 4.67757 2.57994 5.8879 2.41722C7.11979 2.25159 8.73963 2.25 11 2.25C13.2604 2.25 14.8802 2.25159 16.1121 2.41722C17.3224 2.57994 18.0454 2.88853 18.5784 3.42157C19.1115 3.95462 19.4201 4.67757 19.5828 5.8879C19.7484 7.11979 19.75 8.73963 19.75 11C19.75 13.2604 19.7484 14.8802 19.5828 16.1121C19.4201 17.3224 19.1115 18.0454 18.5784 18.5784C18.0454 19.1115 17.3224 19.4201 16.1121 19.5828C14.8802 19.7484 13.2604 19.75 11 19.75C8.73963 19.75 7.11979 19.7484 5.8879 19.5828C4.67757 19.4201 3.95462 19.1115 3.42157 18.5784C2.88853 18.0454 2.57994 17.3224 2.41722 16.1121C2.25159 14.8802 2.25 13.2604 2.25 11C2.25 8.73963 2.25159 7.11979 2.41722 5.8879C2.57994 4.67757 2.88853 3.95462 3.42157 3.42157Z" fill="#316BFF"/>
</svg>
