<svg width="22" height="22" viewBox="0 0 22 22" fill="none" xmlns="http://www.w3.org/2000/svg">
<path fill-rule="evenodd" clip-rule="evenodd" d="M11.0008 0.25C6.43306 0.25 2.72594 3.94128 2.72591 8.49994C2.72581 9.56028 2.65469 10.3606 2.16707 11.0799C2.09927 11.1785 2.0093 11.3019 1.911 11.4368C1.74027 11.6711 1.54438 11.9399 1.3958 12.1727C1.13356 12.5836 0.877357 13.0791 0.789281 13.6565C0.501927 15.5402 1.82658 16.7598 3.1458 17.3063C4.12791 17.7132 5.18911 18.034 6.29597 18.2689C6.87005 20.2894 8.76964 21.7499 10.9998 21.7499C13.2298 21.7499 15.1293 20.2896 15.7035 18.2693C16.8111 18.0344 17.873 17.7134 18.8558 17.3063C20.175 16.7598 21.4996 15.5402 21.2123 13.6565C21.1242 13.0791 20.868 12.5836 20.6058 12.1727C20.4572 11.9399 20.2613 11.6711 20.0906 11.4368C19.9923 11.302 19.9023 11.1785 19.8346 11.08C19.3469 10.3606 19.2757 9.56041 19.2757 8.5C19.2757 3.94131 15.5685 0.25 11.0008 0.25ZM4.22591 8.5C4.22591 4.77442 7.25678 1.75 11.0008 1.75C14.7448 1.75 17.7757 4.77448 17.7757 8.50006C17.7757 9.58249 17.8291 10.7967 18.5947 11.9242L18.5971 11.9277C18.7229 12.1108 18.8334 12.261 18.9376 12.4025C19.0763 12.5909 19.2038 12.7642 19.3413 12.9797C19.5546 13.3138 19.6868 13.6034 19.7294 13.8827C19.8674 14.7871 19.2906 15.5026 18.2817 15.9206C14.0027 17.6932 7.99884 17.6932 3.71987 15.9205C2.71098 15.5026 2.13417 14.7871 2.27213 13.8827C2.31474 13.6034 2.44699 13.3138 2.66023 12.9797C2.79779 12.7642 2.92525 12.591 3.06397 12.4025C3.16796 12.2612 3.27884 12.1106 3.40449 11.9277L3.40689 11.9242C4.17243 10.7967 4.22581 9.58243 4.22591 8.5ZM13.9637 18.5634C12.0152 18.8123 9.98427 18.8122 8.03578 18.5631C8.60729 19.5618 9.71332 20.2499 10.9998 20.2499C12.2862 20.2499 13.3922 19.562 13.9637 18.5634Z" fill="#316BFF"/>
</svg>
