<svg width="22" height="20" viewBox="0 0 22 20" fill="none" xmlns="http://www.w3.org/2000/svg">
<path fill-rule="evenodd" clip-rule="evenodd" d="M4.24976 5C4.24976 2.37665 6.3764 0.25 8.99976 0.25C11.6231 0.25 13.7498 2.37665 13.7498 5C13.7498 7.62335 11.6231 9.75 8.99976 9.75C6.3764 9.75 4.24976 7.62335 4.24976 5ZM8.99976 1.75C7.20483 1.75 5.74976 3.20507 5.74976 5C5.74976 6.79493 7.20483 8.25 8.99976 8.25C10.7947 8.25 12.2498 6.79493 12.2498 5C12.2498 3.20507 10.7947 1.75 8.99976 1.75Z" fill="#F0516D"/>
<path fill-rule="evenodd" clip-rule="evenodd" d="M3.80076 12.6493C6.98395 10.7836 11.0159 10.7836 14.1991 12.6493C14.2999 12.7084 14.4255 12.7781 14.5683 12.8574C15.201 13.2086 16.1729 13.7481 16.8383 14.3892C17.2537 14.7896 17.6633 15.3303 17.7381 16.0037C17.8182 16.7252 17.4958 17.3911 16.8795 17.9691C15.8294 18.9539 14.5615 19.75 12.9192 19.75H5.08072C3.43838 19.75 2.17046 18.9539 1.12037 17.9691C0.504054 17.3911 0.181706 16.7252 0.261828 16.0037C0.3366 15.3303 0.746157 14.7896 1.16164 14.3892C1.82703 13.7481 2.79894 13.2086 3.43159 12.8574C3.57425 12.7782 3.70004 12.7084 3.80076 12.6493ZM13.4406 13.9434C10.7258 12.3522 7.27405 12.3522 4.55927 13.9434C4.40681 14.0328 4.24093 14.1255 4.06805 14.222C3.4356 14.5753 2.7092 14.9811 2.20242 15.4694C1.88742 15.7729 1.77061 16.0077 1.75266 16.1692C1.74007 16.2826 1.75866 16.5112 2.14647 16.8749C3.05843 17.7302 3.97572 18.25 5.08072 18.25H12.9192C14.0242 18.25 14.9415 17.7302 15.8534 16.8749C16.2412 16.5112 16.2598 16.2826 16.2472 16.1692C16.2293 16.0077 16.1125 15.7729 15.7975 15.4694C15.2907 14.9811 14.5644 14.5754 13.932 14.2221C13.7591 14.1255 13.5931 14.0328 13.4406 13.9434Z" fill="#F0516D"/>
<path d="M16.5301 1.96967C16.2372 1.67678 15.7623 1.67678 15.4694 1.96967C15.1765 2.26256 15.1765 2.73744 15.4694 3.03033L17.4391 5L15.4694 6.96967C15.1765 7.26256 15.1765 7.73744 15.4694 8.03033C15.7623 8.32322 16.2372 8.32322 16.5301 8.03033L18.4998 6.06066L20.4694 8.03033C20.7623 8.32322 21.2372 8.32322 21.5301 8.03033C21.823 7.73744 21.823 7.26256 21.5301 6.96967L19.5604 5L21.5301 3.03033C21.823 2.73744 21.823 2.26256 21.5301 1.96967C21.2372 1.67678 20.7623 1.67678 20.4694 1.96967L18.4998 3.93934L16.5301 1.96967Z" fill="#F0516D"/>
</svg>
