<svg width="25" height="24" viewBox="0 0 25 24" fill="none" xmlns="http://www.w3.org/2000/svg">
<path fill-rule="evenodd" clip-rule="evenodd" d="M19.0396 0.354248H18.9604C18.1596 0.354235 17.5015 0.354224 16.969 0.40485C16.4157 0.457458 15.9149 0.570411 15.4593 0.849602C15.0069 1.12678 14.6267 1.50707 14.3495 1.95938C14.0703 2.41498 13.9573 2.91585 13.9047 3.46915C13.8541 4.0016 13.8541 4.65974 13.8541 5.46047V5.53968C13.8541 6.34041 13.8541 6.99857 13.9047 7.53102C13.9573 8.08431 14.0703 8.58519 14.3495 9.04079C14.6267 9.4931 15.0069 9.87339 15.4593 10.1506C15.9149 10.4298 16.4157 10.5427 16.969 10.5953C17.5015 10.6459 18.1596 10.6459 18.9604 10.6459H19.0396C19.8403 10.6459 20.4984 10.6459 21.0309 10.5953C21.5842 10.5427 22.0851 10.4298 22.5407 10.1506C22.993 9.87339 23.3733 9.4931 23.6504 9.04079C23.9296 8.58519 24.0426 8.08431 24.0952 7.53102C24.1458 6.99857 24.1458 6.34043 24.1458 5.53969V5.46048C24.1458 4.65974 24.1458 4.0016 24.0952 3.46915C24.0426 2.91585 23.9296 2.41498 23.6504 1.95938C23.3733 1.50707 22.993 1.12678 22.5407 0.849602C22.0851 0.570411 21.5842 0.457458 21.0309 0.40485C20.4984 0.354224 19.8403 0.354235 19.0396 0.354248ZM16.3083 2.23514C16.4657 2.13871 16.6885 2.06385 17.1228 2.02255C17.5693 1.98011 18.1498 1.97925 19 1.97925C19.8501 1.97925 20.4306 1.98011 20.8771 2.02255C21.3114 2.06385 21.5342 2.13871 21.6916 2.23514C21.9253 2.37833 22.1217 2.57478 22.2649 2.80844C22.3613 2.9658 22.4362 3.18861 22.4775 3.62296C22.5199 4.0694 22.5208 4.64995 22.5208 5.50008C22.5208 6.35022 22.5199 6.93077 22.4775 7.37721C22.4362 7.81155 22.3613 8.03436 22.2649 8.19173C22.1217 8.42538 21.9253 8.62184 21.6916 8.76502C21.5342 8.86145 21.3114 8.93631 20.8771 8.97761C20.4306 9.02006 19.8501 9.02092 19 9.02092C18.1498 9.02092 17.5693 9.02006 17.1228 8.97761C16.6885 8.93631 16.4657 8.86145 16.3083 8.76502C16.0747 8.62184 15.8782 8.42538 15.735 8.19173C15.6386 8.03436 15.5637 7.81155 15.5224 7.37721C15.48 6.93077 15.4791 6.35022 15.4791 5.50008C15.4791 4.64995 15.48 4.0694 15.5224 3.62296C15.5637 3.18861 15.6386 2.9658 15.735 2.80844C15.8782 2.57478 16.0747 2.37833 16.3083 2.23514Z" fill="#8E94A3" fill-opacity="0.7"/>
<path fill-rule="evenodd" clip-rule="evenodd" d="M5.96037 0.354248H6.03955C6.84029 0.354235 7.49844 0.354224 8.0309 0.40485C8.58419 0.457458 9.08506 0.570411 9.54066 0.849602C9.99297 1.12678 10.3733 1.50707 10.6504 1.95938C10.9296 2.41498 11.0426 2.91585 11.0952 3.46915C11.1458 4.00159 11.1458 4.65972 11.1458 5.46044V5.53969C11.1458 6.34041 11.1458 6.99857 11.0952 7.53102C11.0426 8.08431 10.9296 8.58519 10.6504 9.04079C10.3733 9.4931 9.99297 9.87339 9.54066 10.1506C9.08506 10.4298 8.58419 10.5427 8.0309 10.5953C7.49845 10.6459 6.84032 10.6459 6.0396 10.6459H5.96035C5.15963 10.6459 4.50147 10.6459 3.96903 10.5953C3.41573 10.5427 2.91486 10.4298 2.45926 10.1506C2.00695 9.87339 1.62666 9.4931 1.34948 9.04079C1.07029 8.58519 0.957336 8.08431 0.904728 7.53102C0.854102 6.99857 0.854113 6.34043 0.854126 5.53969V5.46049C0.854113 4.65975 0.854102 4.0016 0.904728 3.46915C0.957336 2.91585 1.07029 2.41498 1.34948 1.95938C1.62666 1.50707 2.00695 1.12678 2.45926 0.849602C2.91486 0.570411 3.41573 0.457458 3.96903 0.40485C4.50148 0.354224 5.15963 0.354235 5.96037 0.354248ZM4.12284 2.02255C3.68849 2.06385 3.46568 2.13871 3.30832 2.23514C3.07466 2.37833 2.87821 2.57478 2.73502 2.80844C2.63859 2.9658 2.56373 3.18861 2.52243 3.62296C2.47998 4.0694 2.47913 4.64995 2.47913 5.50008C2.47913 6.35022 2.47998 6.93077 2.52243 7.37721C2.56373 7.81155 2.63859 8.03436 2.73502 8.19173C2.87821 8.42538 3.07466 8.62184 3.30832 8.76502C3.46568 8.86145 3.68849 8.93631 4.12284 8.97761C4.56928 9.02006 5.14982 9.02092 5.99996 9.02092C6.8501 9.02092 7.43064 9.02006 7.87708 8.97761C8.31143 8.93631 8.53424 8.86145 8.6916 8.76502C8.92526 8.62184 9.12172 8.42538 9.2649 8.19173C9.36133 8.03436 9.43619 7.81155 9.47749 7.37721C9.51994 6.93077 9.52079 6.35022 9.52079 5.50008C9.52079 4.64995 9.51994 4.0694 9.47749 3.62296C9.43619 3.18861 9.36133 2.9658 9.2649 2.80844C9.12172 2.57478 8.92526 2.37833 8.6916 2.23514C8.53424 2.13871 8.31143 2.06385 7.87708 2.02255C7.43064 1.98011 6.8501 1.97925 5.99996 1.97925C5.14982 1.97925 4.56928 1.98011 4.12284 2.02255Z" fill="#8E94A3" fill-opacity="0.7"/>
<path fill-rule="evenodd" clip-rule="evenodd" d="M5.96037 13.3542C5.15965 13.3542 4.50147 13.3542 3.96903 13.4049C3.41573 13.4575 2.91486 13.5704 2.45926 13.8496C2.00695 14.1268 1.62666 14.5071 1.34948 14.9594C1.07029 15.415 0.957336 15.9159 0.904728 16.4691C0.854102 17.0016 0.854113 17.6597 0.854126 18.4605V18.5397C0.854113 19.3404 0.854102 19.9986 0.904728 20.531C0.957336 21.0843 1.07029 21.5852 1.34948 22.0408C1.62666 22.4931 2.00695 22.8734 2.45926 23.1506C2.91486 23.4298 3.41573 23.5427 3.96903 23.5953C4.50148 23.6459 5.15962 23.6459 5.96035 23.6459H6.03957C6.84031 23.6459 7.49845 23.6459 8.0309 23.5953C8.58419 23.5427 9.08506 23.4298 9.54066 23.1506C9.99297 22.8734 10.3733 22.4931 10.6504 22.0408C10.9296 21.5852 11.0426 21.0843 11.0952 20.531C11.1458 19.9986 11.1458 19.3404 11.1458 18.5397V18.4605C11.1458 17.6597 11.1458 17.0016 11.0952 16.4691C11.0426 15.9159 10.9296 15.415 10.6504 14.9594C10.3733 14.5071 9.99297 14.1268 9.54066 13.8496C9.08506 13.5704 8.58419 13.4575 8.0309 13.4049C7.49845 13.3542 6.84032 13.3542 6.0396 13.3542H5.96037ZM3.30832 15.2351C3.46568 15.1387 3.68849 15.0639 4.12284 15.0226C4.56928 14.9801 5.14982 14.9792 5.99996 14.9792C6.8501 14.9792 7.43064 14.9801 7.87708 15.0226C8.31143 15.0639 8.53424 15.1387 8.6916 15.2351C8.92526 15.3783 9.12172 15.5748 9.2649 15.8084C9.36133 15.9658 9.43619 16.1886 9.47749 16.623C9.51994 17.0694 9.52079 17.6499 9.52079 18.5001C9.52079 19.3502 9.51994 19.9308 9.47749 20.3772C9.43619 20.8116 9.36133 21.0344 9.2649 21.1917C9.12172 21.4254 8.92526 21.6218 8.6916 21.765C8.53424 21.8615 8.31143 21.9363 7.87708 21.9776C7.43064 22.0201 6.8501 22.0209 5.99996 22.0209C5.14982 22.0209 4.56928 22.0201 4.12284 21.9776C3.68849 21.9363 3.46568 21.8615 3.30832 21.765C3.07466 21.6218 2.87821 21.4254 2.73502 21.1917C2.63859 21.0344 2.56373 20.8116 2.52243 20.3772C2.47998 19.9308 2.47913 19.3502 2.47913 18.5001C2.47913 17.6499 2.47998 17.0694 2.52243 16.623C2.56373 16.1886 2.63859 15.9658 2.73502 15.8084C2.87821 15.5748 3.07466 15.3783 3.30832 15.2351Z" fill="#8E94A3" fill-opacity="0.7"/>
<path fill-rule="evenodd" clip-rule="evenodd" d="M21.0309 13.4049C20.4984 13.3542 19.8403 13.3542 19.0396 13.3542H18.9604C18.1596 13.3542 17.5015 13.3542 16.969 13.4049C16.4157 13.4575 15.9149 13.5704 15.4593 13.8496C15.0069 14.1268 14.6267 14.5071 14.3495 14.9594C14.0703 15.415 13.9573 15.9159 13.9047 16.4691C13.8541 17.0016 13.8541 17.6597 13.8541 18.4605V18.5397C13.8541 19.3404 13.8541 19.9986 13.9047 20.531C13.9573 21.0843 14.0703 21.5852 14.3495 22.0408C14.6267 22.4931 15.0069 22.8734 15.4593 23.1506C15.9149 23.4298 16.4157 23.5427 16.969 23.5953C17.5015 23.6459 18.1596 23.6459 18.9604 23.6459H19.0396C19.8403 23.6459 20.4984 23.6459 21.0309 23.5953C21.5842 23.5427 22.0851 23.4298 22.5407 23.1506C22.993 22.8734 23.3733 22.4931 23.6504 22.0408C23.9296 21.5852 24.0426 21.0843 24.0952 20.531C24.1458 19.9986 24.1458 19.3404 24.1458 18.5397V18.4605C24.1458 17.6597 24.1458 17.0016 24.0952 16.4691C24.0426 15.9159 23.9296 15.415 23.6504 14.9594C23.3733 14.5071 22.993 14.1268 22.5407 13.8496C22.0851 13.5704 21.5842 13.4575 21.0309 13.4049ZM16.3083 15.2351C16.4657 15.1387 16.6885 15.0639 17.1228 15.0226C17.5693 14.9801 18.1498 14.9792 19 14.9792C19.8501 14.9792 20.4306 14.9801 20.8771 15.0226C21.3114 15.0639 21.5342 15.1387 21.6916 15.2351C21.9253 15.3783 22.1217 15.5748 22.2649 15.8084C22.3613 15.9658 22.4362 16.1886 22.4775 16.623C22.5199 17.0694 22.5208 17.6499 22.5208 18.5001C22.5208 19.3502 22.5199 19.9308 22.4775 20.3772C22.4362 20.8116 22.3613 21.0344 22.2649 21.1917C22.1217 21.4254 21.9253 21.6218 21.6916 21.765C21.5342 21.8615 21.3114 21.9363 20.8771 21.9776C20.4306 22.0201 19.8501 22.0209 19 22.0209C18.1498 22.0209 17.5693 22.0201 17.1228 21.9776C16.6885 21.9363 16.4657 21.8615 16.3083 21.765C16.0747 21.6218 15.8782 21.4254 15.735 21.1917C15.6386 21.0344 15.5637 20.8116 15.5224 20.3772C15.48 19.9308 15.4791 19.3502 15.4791 18.5001C15.4791 17.6499 15.48 17.0694 15.5224 16.623C15.5637 16.1886 15.6386 15.9658 15.735 15.8084C15.8782 15.5748 16.0747 15.3783 16.3083 15.2351Z" fill="#8E94A3" fill-opacity="0.7"/>
</svg>
