<svg width="25" height="24" viewBox="0 0 25 24" fill="none" xmlns="http://www.w3.org/2000/svg">
<path fill-rule="evenodd" clip-rule="evenodd" d="M8.29545 7.55556C8.29545 4.03018 11.3211 1.25 14.9545 1.25H18.3182C18.5778 1.25 18.8347 1.26185 19.067 1.30984C19.3054 1.35908 19.5681 1.45629 19.7895 1.66441C20.2253 2.07414 20.25 2.67813 20.25 3.11111V5.33333C20.25 5.76632 20.2253 6.37031 19.7895 6.78004C19.5681 6.98815 19.3054 7.08536 19.067 7.1346C18.8347 7.1826 18.5778 7.19444 18.3182 7.19444H14.9545C14.6718 7.19444 14.5227 7.39904 14.5227 7.55556V9.58333H16.9332C17.2659 9.58333 17.5836 9.59978 17.8588 9.6611C18.1337 9.72234 18.4585 9.84845 18.6936 10.1415C18.9349 10.4423 18.981 10.7918 18.967 11.0803C18.9533 11.3614 18.8793 11.6647 18.7872 11.9678L18.2807 13.6344C18.1765 13.9773 18.0206 14.4057 17.6304 14.6824C17.2516 14.9511 16.7955 14.9722 16.4267 14.9722H14.5227V20.8889C14.5227 21.3219 14.498 21.9259 14.0622 22.3356C13.8408 22.5437 13.5782 22.6409 13.3398 22.6902C13.1074 22.7382 12.8505 22.75 12.5909 22.75H10.2273C9.96768 22.75 9.7108 22.7382 9.47842 22.6902C9.24002 22.6409 8.97733 22.5437 8.75597 22.3356C8.32017 21.9259 8.29545 21.3219 8.29545 20.8889V14.9722H6.68182C6.42222 14.9722 6.16535 14.9604 5.93297 14.9124C5.69457 14.8631 5.43188 14.7659 5.21052 14.5578C4.77472 14.1481 4.75 13.5441 4.75 13.1111V11.4444C4.75 11.0115 4.77472 10.4075 5.21052 9.99774C5.43188 9.78963 5.69457 9.69242 5.93297 9.64318C6.16535 9.59518 6.42222 9.58333 6.68182 9.58333H8.29545V7.55556ZM14.9545 2.75C12.061 2.75 9.79545 4.94444 9.79545 7.55556V10.3333C9.79545 10.7475 9.45967 11.0833 9.04545 11.0833H6.68182C6.47991 11.0833 6.35089 11.0927 6.26773 11.1064C6.2576 11.1752 6.25 11.2814 6.25 11.4444V13.1111C6.25 13.2742 6.2576 13.3804 6.26773 13.4492C6.35089 13.4628 6.47991 13.4722 6.68182 13.4722H9.04545C9.45967 13.4722 9.79545 13.808 9.79545 14.2222V20.8889C9.79545 21.052 9.80306 21.1581 9.8132 21.2269C9.89636 21.2406 10.0254 21.25 10.2273 21.25H12.5909C12.7928 21.25 12.9218 21.2406 13.005 21.2269C13.0151 21.1581 13.0227 21.052 13.0227 20.8889V14.2222C13.0227 13.808 13.3585 13.4722 13.7727 13.4722H16.4267C16.5962 13.4722 16.6937 13.4639 16.7521 13.4531C16.774 13.4093 16.8046 13.333 16.8455 13.1983L17.352 11.5316C17.4094 11.3427 17.4413 11.2073 17.4569 11.1114C17.3427 11.0943 17.1755 11.0833 16.9332 11.0833H13.7727C13.3585 11.0833 13.0227 10.7475 13.0227 10.3333V7.55556C13.0227 6.48478 13.9319 5.69444 14.9545 5.69444H18.3182C18.5201 5.69444 18.6491 5.68504 18.7323 5.67138C18.7424 5.60258 18.75 5.49641 18.75 5.33333V3.11111C18.75 2.94803 18.7424 2.84186 18.7323 2.77306C18.6491 2.75941 18.5201 2.75 18.3182 2.75H14.9545Z" fill="white"/>
</svg>
