<svg width="27" height="26" viewBox="0 0 27 26" fill="none" xmlns="http://www.w3.org/2000/svg">
<path fill-rule="evenodd" clip-rule="evenodd" d="M5.32412 3.63451C8.55351 1.6536 11.4506 2.44307 13.2008 3.75741C13.4887 3.97364 13.6863 4.12162 13.8334 4.22155C13.9805 4.12162 14.1781 3.97364 14.466 3.75741C16.2162 2.44307 19.1133 1.6536 22.3427 3.63451C24.5757 5.00424 25.8322 7.86541 25.3913 11.1528C24.9482 14.456 22.8102 18.1921 18.2823 21.5435C18.2444 21.5715 18.2069 21.5993 18.1696 21.6269C16.5973 22.7914 15.556 23.5626 13.8334 23.5626C12.1108 23.5626 11.0695 22.7914 9.49721 21.6269C9.45995 21.5993 9.42239 21.5715 9.38451 21.5435C4.85661 18.1921 2.71856 14.456 2.27553 11.1528C1.83463 7.86541 3.09111 5.00424 5.32412 3.63451ZM13.6636 4.32626C13.6601 4.32783 13.6607 4.32731 13.6651 4.32556C13.6645 4.32582 13.664 4.32605 13.6636 4.32626ZM14.0017 4.32556C14.0061 4.32731 14.0067 4.32783 14.0032 4.32626C14.0028 4.32605 14.0023 4.32582 14.0017 4.32556ZM12.2249 5.0568C10.9287 4.08336 8.75464 3.43658 6.17379 5.01968C4.59415 5.98863 3.51295 8.1545 3.88611 10.9368C4.25714 13.7032 6.08488 17.0795 10.3513 20.2373C12.0653 21.506 12.6909 21.9376 13.8334 21.9376C14.9759 21.9376 15.6015 21.506 17.3155 20.2373C21.5819 17.0795 23.4097 13.7032 23.7807 10.9368C24.1538 8.1545 23.0726 5.98863 21.493 5.01968C18.9122 3.43658 16.7381 4.08336 15.4419 5.0568L15.4192 5.07382C15.1263 5.29381 14.8747 5.48277 14.6734 5.61454C14.5688 5.68302 14.453 5.75276 14.3327 5.80709C14.2186 5.85864 14.0434 5.92314 13.8334 5.92314C13.6234 5.92314 13.4481 5.85864 13.3341 5.80709C13.2138 5.75276 13.098 5.68302 12.9934 5.61454C12.7921 5.48276 12.5405 5.29379 12.2476 5.07378L12.2249 5.0568Z" fill="#8E94A3" fill-opacity="0.7"/>
</svg>
