<svg width="24" height="24" viewBox="0 0 24 24" fill="none" xmlns="http://www.w3.org/2000/svg">
<path d="M8 10.25C7.58579 10.25 7.25 10.5858 7.25 11C7.25 11.4143 7.58579 11.75 8 11.75H11C11.4142 11.75 11.75 11.4143 11.75 11C11.75 10.5858 11.4142 10.25 11 10.25H8Z" fill="#316BFF"/>
<path d="M8 6.25005C7.58579 6.25005 7.25 6.58583 7.25 7.00005C7.25 7.41426 7.58579 7.75005 8 7.75005L15 7.75005C15.4142 7.75005 15.75 7.41426 15.75 7.00005C15.75 6.58583 15.4142 6.25005 15 6.25005H8Z" fill="#316BFF"/>
<path fill-rule="evenodd" clip-rule="evenodd" d="M11.9463 1.25H12.8161C14.4099 1.24999 15.6651 1.24999 16.6609 1.35377C17.6776 1.45974 18.5137 1.68081 19.2289 2.18473C19.6107 2.45373 19.9512 2.77382 20.2393 3.13602C20.7842 3.82109 21.0245 4.62665 21.1389 5.59882C21.25 6.54325 21.25 7.73074 21.25 9.22463V11.8455C21.25 13.3039 21.25 14.4357 21.1898 15.349C21.1287 16.2748 21.0035 17.0283 20.7283 17.7226C19.8902 19.8375 18.1254 21.4886 15.9101 22.2663C14.5312 22.7504 12.8393 22.7502 9.87389 22.75L9.51118 22.75C7.87603 22.7504 6.85703 22.7506 6.01636 22.4555C4.66729 21.9819 3.58574 20.9738 3.07072 19.6742C2.89606 19.2334 2.82106 18.7655 2.78512 18.2206C2.74999 17.688 2.75 17.0325 2.75 16.2082V9.9405C2.74998 8.10538 2.74997 6.64711 2.91314 5.50485C3.08185 4.32381 3.43801 3.37155 4.23077 2.62542C5.01711 1.88535 6.0099 1.55834 7.24244 1.40238C8.44685 1.24998 9.98835 1.24999 11.9463 1.25ZM7.43075 2.89051C6.34862 3.02745 5.71728 3.28623 5.25882 3.71772C4.80679 4.14317 4.54055 4.71951 4.39806 5.71697C4.2518 6.74091 4.25 8.09189 4.25 10V16.1818C4.25 17.0383 4.25038 17.6444 4.28187 18.1219C4.31292 18.5926 4.37191 18.8861 4.46521 19.1215C4.81176 19.996 5.55229 20.7028 6.5132 21.0401C7.08053 21.2393 7.81928 21.25 9.68182 21.25C10.0023 21.25 10.305 21.2499 10.5911 21.2493C11.9753 21.2009 13.0826 20.0636 13.0826 18.6676C13.0826 18.5205 13.0761 18.3623 13.0678 18.1847L13.0648 18.1189C13.0575 17.964 13.0496 17.7953 13.0461 17.6272C13.0382 17.2471 13.0502 16.8036 13.1649 16.3754C13.3884 15.5415 14.0398 14.8901 14.8737 14.6666C15.3019 14.5519 15.7454 14.5399 16.1255 14.5478C16.2936 14.5513 16.4622 14.5592 16.6171 14.5665L16.683 14.5695C16.8606 14.5778 17.0188 14.5843 17.1659 14.5843C18.5926 14.5843 19.7492 13.4277 19.7492 12.0009C19.7492 11.9894 19.7495 11.978 19.75 11.9666C19.75 11.9176 19.75 11.8681 19.75 11.8182V9.27273C19.75 7.71989 19.7488 6.62069 19.6492 5.77411C19.5516 4.94515 19.3681 4.45047 19.0653 4.06976C18.8677 3.82123 18.6321 3.59913 18.365 3.41094C17.9478 3.11702 17.4023 2.93918 16.5054 2.84569C15.5965 2.75096 14.4194 2.75 12.7727 2.75H12C9.97655 2.75 8.53002 2.75142 7.43075 2.89051ZM19.6959 15.2063C19.0002 15.7561 18.1214 16.0843 17.1659 16.0843C16.9801 16.0843 16.7905 16.0761 16.6135 16.0679L16.5456 16.0648C16.3889 16.0574 16.2414 16.0505 16.0944 16.0474C15.7537 16.0404 15.4812 16.0568 15.262 16.1155C14.9456 16.2003 14.6986 16.4473 14.6138 16.7637C14.5551 16.9829 14.5387 17.2554 14.5457 17.5961C14.5488 17.7431 14.5557 17.8906 14.5631 18.0472L14.5662 18.1152C14.5744 18.2922 14.5826 18.4818 14.5826 18.6676C14.5826 19.6102 14.2632 20.4781 13.7268 21.1692C14.4199 21.1124 14.9442 21.0156 15.4132 20.851C17.2404 20.2096 18.6642 18.8597 19.3338 17.1699C19.5276 16.6809 19.6368 16.1019 19.693 15.2503C19.694 15.2357 19.6949 15.221 19.6959 15.2063Z" fill="#316BFF"/>
</svg>
