<svg width="23" height="22" viewBox="0 0 23 22" fill="none" xmlns="http://www.w3.org/2000/svg">
<path fill-rule="evenodd" clip-rule="evenodd" d="M21.9355 9.90447C22.1828 9.33116 22.0776 8.61963 21.5257 8.13666L15.1779 2.58207C15.0524 2.47223 14.9246 2.35722 14.7943 2.23994C13.858 1.39722 12.7918 0.4375 11.4997 0.4375C10.2076 0.4375 9.14129 1.39722 8.20501 2.23993C8.07471 2.35721 7.94694 2.47221 7.82142 2.58206L1.47365 8.13666C0.921713 8.61963 0.816507 9.33117 1.06383 9.90447C1.25534 10.3484 1.64809 10.6945 2.14813 10.8218C2.37269 10.879 2.48497 10.9075 2.53055 10.966C2.57612 11.0244 2.57646 11.118 2.57714 11.3053C2.58033 12.1932 2.58733 14.1645 2.58733 14.4008C2.5873 15.8583 2.58728 17.0409 2.7229 17.9726C2.86491 18.9482 3.16987 19.7654 3.86528 20.4077C4.55151 21.0416 5.40914 21.3117 6.43339 21.4389C7.42881 21.5625 8.69767 21.5625 10.2866 21.5625H12.7126C14.3016 21.5625 15.5705 21.5625 16.5659 21.4389C17.5902 21.3117 18.4478 21.0416 19.134 20.4077C19.8295 19.7654 20.1344 18.9482 20.2764 17.9726C20.412 17.0409 20.412 15.8583 20.412 14.4008C20.412 14.1645 20.419 12.1932 20.4222 11.3053C20.4229 11.118 20.4232 11.0244 20.4688 10.966C20.5144 10.9075 20.6266 10.879 20.8512 10.8218C21.3512 10.6945 21.744 10.3484 21.9355 9.90447ZM11.5 13.9792C10.7521 13.9792 10.1458 14.5854 10.1458 15.3333C10.1458 16.0812 10.7521 16.6875 11.5 16.6875H11.5097C12.2576 16.6875 12.8639 16.0812 12.8639 15.3333C12.8639 14.5854 12.2576 13.9792 11.5097 13.9792H11.5Z" fill="#316BFF"/>
</svg>
