<svg width="25" height="24" viewBox="0 0 25 24" fill="none" xmlns="http://www.w3.org/2000/svg">
<path fill-rule="evenodd" clip-rule="evenodd" d="M7.25 12C7.25 9.1005 9.6005 6.75 12.5 6.75C15.3995 6.75 17.75 9.1005 17.75 12C17.75 14.8995 15.3995 17.25 12.5 17.25C9.6005 17.25 7.25 14.8995 7.25 12ZM12.5 8.25C10.4289 8.25 8.75 9.92893 8.75 12C8.75 14.0711 10.4289 15.75 12.5 15.75C14.5711 15.75 16.25 14.0711 16.25 12C16.25 9.92893 14.5711 8.25 12.5 8.25Z" fill="white"/>
<path d="M18.0078 7.5C18.5601 7.5 19.0078 7.05229 19.0078 6.5C19.0078 5.94772 18.5601 5.5 18.0078 5.5H17.9988C17.4465 5.5 16.9988 5.94772 16.9988 6.5C16.9988 7.05228 17.4465 7.5 17.9988 7.5H18.0078Z" fill="white"/>
<path fill-rule="evenodd" clip-rule="evenodd" d="M12.5572 1.75C14.7479 1.74999 16.4686 1.74998 17.812 1.93059C19.1886 2.11568 20.2809 2.50271 21.1391 3.36091C21.9973 4.21911 22.3843 5.31137 22.5694 6.68802C22.75 8.03144 22.75 9.7521 22.75 11.9428V12.0572C22.75 14.2479 22.75 15.9686 22.5694 17.312C22.3843 18.6886 21.9973 19.7809 21.1391 20.6391C20.2809 21.4973 19.1886 21.8843 17.812 22.0694C16.4686 22.25 14.7479 22.25 12.5572 22.25H12.4428C10.2521 22.25 8.53144 22.25 7.18802 22.0694C5.81137 21.8843 4.71911 21.4973 3.86091 20.6391C3.00272 19.7809 2.61568 18.6886 2.43059 17.312C2.24998 15.9686 2.24999 14.2479 2.25 12.0572V11.9428C2.24999 9.75212 2.24998 8.03144 2.43059 6.68802C2.61568 5.31137 3.00272 4.21911 3.86091 3.36091C4.71911 2.50271 5.81137 2.11568 7.18802 1.93059C8.53143 1.74998 10.2521 1.74999 12.4428 1.75H12.5572ZM7.3879 3.41722C6.17757 3.57994 5.45462 3.88853 4.92157 4.42157C4.38853 4.95462 4.07994 5.67757 3.91722 6.8879C3.75159 8.11979 3.75 9.73963 3.75 12C3.75 14.2604 3.75159 15.8802 3.91722 17.1121C4.07994 18.3224 4.38853 19.0454 4.92157 19.5784C5.45462 20.1115 6.17757 20.4201 7.3879 20.5828C8.61979 20.7484 10.2396 20.75 12.5 20.75C14.7604 20.75 16.3802 20.7484 17.6121 20.5828C18.8224 20.4201 19.5454 20.1115 20.0784 19.5784C20.6115 19.0454 20.9201 18.3224 21.0828 17.1121C21.2484 15.8802 21.25 14.2604 21.25 12C21.25 9.73963 21.2484 8.11979 21.0828 6.88789C20.9201 5.67757 20.6115 4.95462 20.0784 4.42157C19.5454 3.88853 18.8224 3.57994 17.6121 3.41722C16.3802 3.25159 14.7604 3.25 12.5 3.25C10.2396 3.25 8.61979 3.25159 7.3879 3.41722Z" fill="white"/>
</svg>
