<svg width="22" height="22" viewBox="0 0 22 22" fill="none" xmlns="http://www.w3.org/2000/svg">
<path fill-rule="evenodd" clip-rule="evenodd" d="M11.0004 6.18742C8.84884 6.18742 7.10461 7.93164 7.10461 10.0833C7.10461 12.2349 8.84884 13.9791 11.0004 13.9791C13.1521 13.9791 14.8963 12.2349 14.8963 10.0833C14.8963 7.93164 13.1521 6.18742 11.0004 6.18742ZM8.47961 10.0833C8.47961 8.69103 9.60823 7.56242 11.0004 7.56242C12.3927 7.56242 13.5213 8.69103 13.5213 10.0833C13.5213 11.4755 12.3927 12.6041 11.0004 12.6041C9.60823 12.6041 8.47961 11.4755 8.47961 10.0833Z" fill="#316BFF"/>
<path fill-rule="evenodd" clip-rule="evenodd" d="M11.0014 1.14575C7.4941 1.14575 4.14796 3.2202 2.74737 6.49421C1.44391 9.54118 2.14955 12.1341 3.61874 14.3545C4.82329 16.1749 6.58015 17.7996 8.16514 19.2653C8.46733 19.5448 8.76342 19.8186 9.0481 20.0867L9.04962 20.0882C9.57673 20.5817 10.2769 20.8541 11.0014 20.8541C11.7259 20.8541 12.4261 20.5817 12.9532 20.0882C13.2223 19.8362 13.5012 19.5792 13.7857 19.3171C15.388 17.8408 17.1695 16.1993 18.3867 14.3557C19.8541 12.1331 20.5573 9.5374 19.2554 6.49421C17.8549 3.2202 14.5087 1.14575 11.0014 1.14575ZM4.01156 7.03501C5.18381 4.29476 8.01364 2.52075 11.0014 2.52075C13.9892 2.52075 16.819 4.29476 17.9913 7.03501C19.0656 9.54646 18.5235 11.6529 17.2392 13.5981C16.1231 15.2886 14.4882 16.7971 12.8811 18.2799C12.5899 18.5486 12.2996 18.8165 12.0134 19.0844C11.7454 19.3354 11.3829 19.4791 11.0014 19.4791C10.6202 19.4791 10.2579 19.3356 9.98998 19.085C9.68524 18.7979 9.37568 18.5113 9.06528 18.2238C7.47865 16.7545 5.86963 15.2645 4.76543 13.5957C3.47993 11.653 2.9358 9.5497 4.01156 7.03501Z" fill="#316BFF"/>
</svg>
