<?xml version="1.0" encoding="utf-8"?>
<!-- Generator: Adobe Illustrator 24.1.2, SVG Export Plug-In . SVG Version: 6.00 Build 0)  -->
<svg version="1.1" id="Layer_1" xmlns="http://www.w3.org/2000/svg" xmlns:xlink="http://www.w3.org/1999/xlink" x="0px" y="0px"
	 viewBox="0 0 841.89 595.28" style="enable-background:new 0 0 841.89 595.28;" xml:space="preserve">
<style type="text/css">
	.st0{fill:#010202;}
	.st1{fill:#CB2226;}
	.st2{fill:#E30613;}
	.st3{fill:url(#SVGID_1_);}
	.st4{fill:#878786;}
	.st5{fill:url(#SVGID_2_);}
	.st6{fill:url(#SVGID_3_);}
	.st7{fill:#E20A17;}
	.st8{fill:url(#SVGID_4_);}
	.st9{fill:url(#SVGID_5_);}
	.st10{fill:url(#SVGID_6_);}
</style>
<g>
	<path class="st0" d="M231.31,386.22c0.8,0,1.5-0.28,2.08-0.85s0.88-1.25,0.88-2.05c0-0.8-0.29-1.5-0.88-2.08
		c-0.59-0.59-1.28-0.88-2.08-0.88c-0.8,0-1.49,0.29-2.05,0.88c-0.56,0.58-0.85,1.28-0.85,2.08c0,0.78,0.29,1.46,0.86,2.03
		C229.85,385.93,230.53,386.22,231.31,386.22z"/>
	<path class="st0" d="M238.47,386.22c0.82,0,1.52-0.28,2.1-0.85c0.57-0.56,0.86-1.25,0.86-2.05c0-0.8-0.29-1.5-0.86-2.08
		c-0.57-0.59-1.27-0.88-2.1-0.88c-0.8,0-1.49,0.29-2.05,0.88c-0.56,0.58-0.85,1.28-0.85,2.08c0,0.78,0.29,1.46,0.88,2.03
		C237.04,385.93,237.71,386.22,238.47,386.22z"/>
	<path class="st0" d="M265.2,428.5c-0.78,0-1.46,0.29-2.05,0.86s-0.88,1.25-0.88,2.03c0,0.8,0.29,1.5,0.86,2.08
		c0.57,0.59,1.26,0.88,2.07,0.88c0.8,0,1.5-0.29,2.08-0.88c0.59-0.58,0.88-1.28,0.88-2.08c0-0.8-0.29-1.49-0.88-2.05
		C266.7,428.78,266.01,428.5,265.2,428.5z"/>
	<path class="st0" d="M258.37,428.5c-0.78,0-1.46,0.29-2.05,0.86s-0.88,1.25-0.88,2.03c0,0.8,0.29,1.5,0.86,2.08
		c0.57,0.59,1.26,0.88,2.06,0.88s1.5-0.29,2.08-0.88c0.59-0.58,0.88-1.28,0.88-2.08c0-0.8-0.29-1.49-0.88-2.05
		C259.87,428.78,259.18,428.5,258.37,428.5z"/>
	<path class="st1" d="M293.11,388.88h-5.2l15.51-10.73h-10.25l-15.29,10.86v6.05h15.22c3.36,0,6.2,1.19,8.52,3.58
		c2.32,2.38,3.48,5.26,3.48,8.62c0,3.34-1.17,6.21-3.5,8.6c-2.33,2.4-5.17,3.59-8.51,3.59h-21.24h-1.07h-0.68
		c-1.32,0-1.98-0.67-1.98-2.02v-28.59h-6.28v28.59c0,1.34-0.65,2.02-1.95,2.02h-3.58h-1.04c-1.37,0-2.05-0.93-2.05-2.8v-27.81h-6.24
		v4.33c-3.49-2.86-7.37-4.29-11.64-4.29c-5.1,0-9.42,1.8-12.96,5.4s-5.32,7.94-5.32,13.01c0,5.05,1.78,9.36,5.35,12.93
		c3.57,3.57,7.88,5.35,12.93,5.35h5.85v-6.12h-5.95c-3.38,0-6.23-1.14-8.55-3.42c-2.32-2.28-3.48-5.11-3.48-8.49
		c0-3.36,1.17-6.24,3.5-8.65c2.33-2.41,5.18-3.61,8.54-3.61c3.1,0,5.83,1.25,8.2,3.74c2.36,2.49,3.55,5.3,3.55,8.42v8.62
		c0,6.31,2.74,9.47,8.23,9.49v0h0.06h1.04h3.58c2.06,0,3.71-0.63,4.94-1.89c1.47,1.26,3.23,1.89,5.27,1.89h0.68h1.07h21.24
		c5.05,0,9.33-1.79,12.85-5.37c3.51-3.58,5.27-7.89,5.27-12.94c0-5.07-1.76-9.41-5.27-12.99S298.16,388.88,293.11,388.88z"/>
	<path class="st0" d="M325.93,386.22c0.8,0,1.5-0.28,2.08-0.85s0.88-1.25,0.88-2.05c0-0.8-0.29-1.5-0.88-2.08
		c-0.59-0.59-1.28-0.88-2.08-0.88c-0.8,0-1.49,0.29-2.05,0.88c-0.56,0.58-0.85,1.28-0.85,2.08c0,0.78,0.29,1.46,0.86,2.03
		C324.47,385.93,325.15,386.22,325.93,386.22z"/>
	<path class="st1" d="M345.74,417.44c0,1.34-0.65,2.02-1.95,2.02h-0.81h-1.07c-1.32,0-1.98-0.69-1.98-2.08v-10.12
		c0-5.05-1.72-9.38-5.17-12.98s-7.68-5.4-12.69-5.4V395c3.3,0,6.04,1.21,8.25,3.63s3.3,5.3,3.3,8.64v9.99
		c0,1.47-0.72,2.21-2.15,2.21h-13.3v6.12h13.73c1.78,0,3.43-0.63,4.94-1.89c1.43,1.22,3.07,1.84,4.91,1.88v0.01h0.16h1.07h0.81
		c2.21,0,4.14-0.8,5.77-2.39c1.64-1.59,2.46-3.51,2.46-5.74v-39.58h-6.28V417.44z"/>
	<rect x="358.81" y="377.86" class="st1" width="6.24" height="47.71"/>
	<path class="st0" d="M401.36,428.5c-0.78,0-1.46,0.29-2.05,0.86s-0.88,1.25-0.88,2.03c0,0.8,0.29,1.5,0.86,2.08
		c0.57,0.59,1.26,0.88,2.06,0.88s1.5-0.29,2.08-0.88c0.59-0.58,0.88-1.28,0.88-2.08c0-0.8-0.29-1.49-0.88-2.05
		C402.85,428.78,402.16,428.5,401.36,428.5z"/>
	<path class="st1" d="M415.73,417.44c0,1.34-0.65,2.02-1.95,2.02h-27.45c-1.3,0-1.95-0.67-1.95-2.02v-28.59h-6.28v28.59
		c0,2.23,0.82,4.15,2.46,5.74s3.56,2.39,5.77,2.39h27.45c2.21,0,4.13-0.8,5.77-2.39c1.64-1.59,2.45-3.51,2.45-5.74v-28.59h-6.28
		V417.44z"/>
	<path class="st0" d="M472.46,417.44c0,1.34-0.65,2.02-1.95,2.02h-0.94h-1.11h-6.64c3.08-3.38,4.62-7.52,4.62-12.42v-4.68
		c0.39-9-3.79-13.5-12.56-13.5h-7.51c-3.3,0-4.94,1.43-4.94,4.29v13.89c0,5.31,1.62,9.45,4.85,12.42h-7.81h-1.07
		c-1.3,0-1.95-0.67-1.95-2.02v-39.58h-6.28v39.58c0,2.23,0.82,4.15,2.46,5.74c1.63,1.59,3.54,2.38,5.74,2.39v0h0.03h1.07h11.71
		c0.63,0,1.94-0.28,3.94-0.85c1.95,0.56,3.29,0.85,4.03,0.85h10.31h1.11h0.94c2.21,0,4.14-0.8,5.77-2.39
		c1.64-1.59,2.46-3.51,2.46-5.74v-39.58h-6.28V417.44z M460.16,407.23c0,2.19-0.52,4.28-1.56,6.28c-1.11,2.21-2.6,3.72-4.49,4.52
		c-4.27-1.82-6.41-5.46-6.41-10.93v-9.99c0-1.24,0.62-1.85,1.85-1.85h4.36c4.16,0,6.25,1.87,6.25,5.59V407.23z"/>
	<path class="st0" d="M492.62,373.43c-2.1,0-3.16-1.01-3.16-3.02c0-2.1,1.05-3.16,3.16-3.16v-2.05c-1.54,0-2.83,0.5-3.89,1.51
		c-1.05,1.01-1.58,2.29-1.58,3.85c0,1.5,0.38,2.45,1.14,2.86h-3.22v2.47h7.55V373.43z"/>
	<path class="st0" d="M497.37,425.57c0,1.21-0.96,1.82-2.86,1.82c-1.78,0-2.67-0.61-2.67-1.82h-6.31c0,2.25,0.8,4.18,2.39,5.77
		s3.83,2.39,6.72,2.39c2.69,0,4.87-0.8,6.54-2.39c1.67-1.59,2.5-3.52,2.5-5.77v-0.26v-7.68v-39.78h-6.31V425.57z"/>
	<rect x="485.53" y="377.86" class="st0" width="6.28" height="44.85"/>
	<rect x="511.1" y="377.86" class="st0" width="6.25" height="47.71"/>
	<path class="st0" d="M544.66,386.22c0.8,0,1.5-0.28,2.08-0.85s0.88-1.25,0.88-2.05c0-0.8-0.29-1.5-0.88-2.08
		c-0.59-0.59-1.28-0.88-2.08-0.88c-0.8,0-1.49,0.29-2.05,0.88c-0.56,0.58-0.85,1.28-0.85,2.08c0,0.78,0.29,1.46,0.86,2.03
		C543.2,385.93,543.88,386.22,544.66,386.22z"/>
	<path class="st0" d="M551.82,386.22c0.82,0,1.52-0.28,2.1-0.85c0.57-0.56,0.86-1.25,0.86-2.05c0-0.8-0.29-1.5-0.86-2.08
		c-0.58-0.59-1.27-0.88-2.1-0.88c-0.8,0-1.49,0.29-2.05,0.88c-0.56,0.58-0.84,1.28-0.84,2.08c0,0.78,0.29,1.46,0.88,2.03
		C550.39,385.93,551.06,386.22,551.82,386.22z"/>
	<path class="st0" d="M572.38,428.5c-0.78,0-1.46,0.29-2.05,0.86c-0.59,0.57-0.88,1.25-0.88,2.03c0,0.8,0.29,1.5,0.86,2.08
		c0.57,0.59,1.26,0.88,2.07,0.88c0.8,0,1.5-0.29,2.08-0.88c0.59-0.58,0.88-1.28,0.88-2.08c0-0.8-0.29-1.49-0.88-2.05
		C573.87,428.78,573.18,428.5,572.38,428.5z"/>
	<path class="st0" d="M612.58,416.08c0,2.21-1.01,3.34-3.03,3.38c-1.87-0.26-2.71-1.38-2.54-3.35v-27.26h-6.31v27.26
		c0,2.23-0.89,3.35-2.67,3.35c-1.93,0-2.9-1.13-2.9-3.38v-27.22h-6.31v28.53c0,1.39-0.66,2.08-1.98,2.08h-1.63h-1.07h-0.68
		c-1.32,0-1.98-0.67-1.98-2.02v-28.59h-6.28v28.59c0,1.34-0.65,2.02-1.95,2.02h-3.58h-1.04c-1.37,0-2.05-0.93-2.05-2.8v-27.81h-6.25
		v4.33c-3.49-2.86-7.37-4.29-11.64-4.29c-5.1,0-9.42,1.8-12.96,5.4s-5.32,7.94-5.32,13.01c0,5.05,1.78,9.36,5.35,12.93
		c3.57,3.57,7.88,5.35,12.93,5.35h5.85v-6.12h-5.95c-3.38,0-6.23-1.14-8.55-3.42c-2.32-2.28-3.48-5.11-3.48-8.49
		c0-3.36,1.17-6.24,3.5-8.65c2.33-2.41,5.18-3.61,8.54-3.61c3.1,0,5.83,1.25,8.2,3.74c2.36,2.49,3.54,5.3,3.54,8.42v8.62
		c0,6.31,2.74,9.47,8.23,9.49v0h0.06h1.04h3.58c2.06,0,3.71-0.63,4.94-1.89c1.47,1.26,3.23,1.89,5.27,1.89h0.68h1.07h1.63
		c1.95,0,3.65-0.63,5.11-1.89c1.47,1.26,3.51,1.89,6.12,1.89c2.62,0,4.53-0.36,5.72-1.07c0.91,0.72,2.78,1.07,5.59,1.07
		c3.43,0,5.85-0.86,7.29-2.57c1.43-1.71,2.15-3.59,2.15-5.63l0.03-28.53h-6.28V416.08z"/>
	<path class="st0" d="M658.32,391.36c-1.68-1.56-4.59-2.34-8.73-2.34c-4.23,0-7.14,0.8-8.75,2.39c-1.61,1.59-2.41,3.53-2.41,5.81
		v17.3h6.31v-16.65c0-1.56,1.63-2.34,4.88-2.34c3.27,0,4.91,0.78,4.91,2.34v19.58c0,1.34-0.67,2.02-2.02,2.02h-17.34h-1.07
		c-1.3,0-1.95-0.67-1.95-2.02v-39.58h-6.28v39.58c0,2.23,0.82,4.15,2.46,5.74c1.63,1.59,3.54,2.38,5.74,2.39v0h0.03h1.07h17.63
		c1.8,0,3.59-0.64,5.37-1.92c1.78-1.28,2.67-3.35,2.67-6.21v-20.46C660.84,394.79,660,392.92,658.32,391.36z"/>
</g>
<g>
	<path class="st2" d="M367.69,308.98l19.38,27.57l19.38-27.57l-19.38-27.59L367.69,308.98z M396.55,320.22l6.7-11.5l-6.69-11.5
		l8.08,11.5L396.55,320.22z M373.02,308.73l11.17,19.19l-13.49-19.19l13.49-19.21L373.02,308.73z"/>
	<linearGradient id="SVGID_1_" gradientUnits="userSpaceOnUse" x1="386.4122" y1="267.4178" x2="387.7036" y2="349.2612">
		<stop  offset="0" style="stop-color:#49423D"/>
		<stop  offset="1" style="stop-color:#000000"/>
	</linearGradient>
	<path class="st3" d="M346.14,272.1v73.85c0,4.81,3.91,8.72,8.72,8.72h64.4c4.81,0,8.72-3.91,8.72-8.72V272.1
		c0-4.81-3.91-8.72-8.72-8.72h-64.4C350.06,263.38,346.14,267.29,346.14,272.1z M354.87,274.13c0-1.12,0.91-2.03,2.03-2.03h60.35
		c1.11,0,2.03,0.91,2.03,2.03v69.79c0,1.12-0.91,2.03-2.03,2.03H356.9c-1.12,0-2.03-0.92-2.03-2.03V274.13z"/>
	<path class="st4" d="M420.23,306.45v-32.32c0-1.65-1.34-2.99-2.99-2.99H356.9c-1.65,0-2.99,1.34-2.99,2.99v32.32h-6.8V272.1
		c0-4.28,3.48-7.76,7.76-7.76h64.4c4.28,0,7.76,3.48,7.76,7.76v34.35H420.23z"/>
</g>
<g>
	<linearGradient id="SVGID_2_" gradientUnits="userSpaceOnUse" x1="477.1545" y1="275.3149" x2="477.5923" y2="316.2915">
		<stop  offset="0" style="stop-color:#49423D"/>
		<stop  offset="1" style="stop-color:#000000"/>
	</linearGradient>
	<path class="st5" d="M469.15,326.13c3,0,5.21-2.03,6.98-3.65c-0.02,0.9-0.04,1.75-0.07,1.9c-0.83,4.98-3.4,7.56-5.99,8.9
		c3.34-1.27,7.09-4.1,7.37-10.45c0,0,0.07,3.23-0.07,4.37c-0.74,6.04-7.06,7.09-9.99,7.34c-2,0.17-3.77,0.14-3.77,0.14l-0.11,1.7
		h13.94h14.05l-0.11-1.53c0,0-10.75,0.89-12.5-10.53c-0.02-0.13-0.04-1.07-0.05-2.09c1.85,1.63,4.19,3.87,7.18,3.87
		c6.67,0,12.08-5.4,12.08-12.07c0-5.03-4.98-9.27-9.09-11.62c-7.98-4.57-11.4-17.22-11.4-17.22s-2.56,11.01-11.39,17.22
		c-3.88,2.72-9.09,6.6-9.09,11.62C457.08,320.7,462.48,326.13,469.15,326.13z M480.4,295.44c1.57,2.95,3.93,6.31,7.08,8
		c3.25,1.75,7.26,5,7.45,9.07c0.01,0.19,0,0.37,0,0.55c-0.45-3.76-4.11-5.99-7.14-7.66C484.41,303.53,481.94,299.06,480.4,295.44z
		 M469.3,303.93c-3.23,2.33-8.54,5.65-8.54,9.95c0,2.6,0.94,4.98,2.48,6.8c-2.2-1.92-3.6-4.74-3.6-7.88c0-4.33,4.49-7.67,7.83-10.01
		c7.61-5.35,9.82-14.84,9.82-14.84c0,0,0.13,0.49,0.4,1.28C477.19,291.96,475.29,299.62,469.3,303.93z"/>
	<linearGradient id="SVGID_3_" gradientUnits="userSpaceOnUse" x1="477.1777" y1="268.84" x2="477.9758" y2="350.6865">
		<stop  offset="0" style="stop-color:#49423D"/>
		<stop  offset="1" style="stop-color:#000000"/>
	</linearGradient>
	<path class="st6" d="M436.64,272.1v73.85c0,4.81,3.91,8.72,8.72,8.72h64.41c4.81,0,8.72-3.91,8.72-8.72V272.1
		c0-4.81-3.91-8.72-8.72-8.72h-64.41C440.56,263.38,436.64,267.29,436.64,272.1z M445.37,274.13c0-1.12,0.92-2.03,2.03-2.03h60.35
		c1.12,0,2.03,0.91,2.03,2.03v69.79c0,1.12-0.91,2.03-2.03,2.03H447.4c-1.12,0-2.03-0.92-2.03-2.03V274.13z"/>
	<path class="st7" d="M510.74,306.45v-32.32c0-1.65-1.34-2.99-2.99-2.99H447.4c-1.65,0-2.99,1.34-2.99,2.99v32.32h-6.8V272.1
		c0-4.28,3.48-7.76,7.76-7.76h64.41c4.28,0,7.76,3.48,7.76,7.76v34.35H510.74z"/>
</g>
<g>
	<path class="st2" d="M485.99,191.4c-3.16,0-6.06,1.04-8.42,2.78c-2.36-1.74-5.27-2.78-8.42-2.78c-7.86,0-14.22,6.37-14.22,14.23
		c0,5.92,4.85,9.67,9.22,13.14c8.15,6.47,13.43,18.08,13.43,18.08c0,0,5.02-12.55,13.43-18.08c4.66-3.06,9.22-7.22,9.22-13.14
		C500.22,197.77,493.85,191.4,485.99,191.4z M459.26,196.83c2.51-2.56,6-4.17,9.8-4.17c2.94,0,5.66,1.32,7.62,2.94
		c-0.26,0.21-0.91,0.98-1.17,1.23c-2.24-1.65-4.6-3.17-7.59-3.17C464.63,193.66,461.6,194.86,459.26,196.83z M476.71,232.16
		c0,0-2.94-5.74-7.48-10.88c3.71,3.2,6.86,6.69,8.13,9.18C477.06,231.21,476.71,232.16,476.71,232.16z M490.09,217.35
		c-2.53,1.66-4.71,4.04-6.49,6.46c1.25-2.23,2.75-4.36,4.49-5.84c3.77-3.21,8.81-6.11,8.81-11.37c0-6.98-5.12-12.67-12.1-12.7
		c-1.96-0.01-3.43,0.2-4.63,0.63c1.66-0.88,3.52-1.48,5.48-1.48c6.98,0,12.63,5.65,12.63,12.63
		C498.28,210.94,494.23,214.63,490.09,217.35z"/>
	<linearGradient id="SVGID_4_" gradientUnits="userSpaceOnUse" x1="477.4162" y1="170.1606" x2="477.7315" y2="252.0131">
		<stop  offset="0" style="stop-color:#49423D"/>
		<stop  offset="1" style="stop-color:#000000"/>
	</linearGradient>
	<path class="st8" d="M509.77,163.99h-64.41c-4.81,0-8.72,3.91-8.72,8.72v73.85c0,4.81,3.91,8.72,8.72,8.72h64.41
		c4.81,0,8.72-3.91,8.72-8.72v-73.85C518.49,167.9,514.58,163.99,509.77,163.99z M509.77,244.53c0,1.12-0.91,2.03-2.03,2.03H447.4
		c-1.12,0-2.03-0.91-2.03-2.03v-69.79c0-1.12,0.92-2.03,2.03-2.03h60.34c1.12,0,2.03,0.91,2.03,2.03V244.53z"/>
	<path class="st4" d="M444.4,207.06v-32.32c0-1.65,1.34-2.99,3-2.99h60.34c1.65,0,2.99,1.34,2.99,2.99v32.32h6.8v-34.35
		c0-4.28-3.48-7.76-7.76-7.76h-64.41c-4.28,0-7.76,3.48-7.76,7.76v34.35H444.4z"/>
</g>
<g>
	<linearGradient id="SVGID_5_" gradientUnits="userSpaceOnUse" x1="386.6907" y1="172.1948" x2="387.12" y2="221.6549">
		<stop  offset="0" style="stop-color:#49423D"/>
		<stop  offset="1" style="stop-color:#000000"/>
	</linearGradient>
	<path class="st9" d="M400.5,226.9c6.24,0,11.3-5.06,11.3-11.3c0-6.24-5.06-11.3-11.3-11.3c-1.17,0-2.3,0.18-3.36,0.51
		c0.78-1.53,1.22-3.25,1.22-5.09c0-6.24-5.06-11.3-11.3-11.3c-6.24,0-11.29,5.06-11.29,11.3c0,1.83,0.45,3.56,1.22,5.09
		c-1.06-0.33-2.19-0.51-3.36-0.51c-6.24,0-11.3,5.06-11.3,11.3c0,6.24,5.06,11.3,11.3,11.3c4.13,0,9.4-2.28,11.58-5.49
		c-0.01,0.83-0.02,1.85-0.03,1.93c-1.99,12.97-13.25,11.94-13.25,11.94l-0.13,1.71h15.02h14.89l-0.13-1.9c0,0-0.44,0.04-1.15,0
		c-3.39,0.05-11.71-0.49-12.62-6.78c-0.15-1.07-0.08-4.14-0.08-4.13c0.31,5.86,4.32,8.55,7.98,9.79c-3.02-1.35-6.29-4.27-7.34-10.57
		c-0.02-0.1-0.03-1.27-0.05-2.11C390.42,224.6,396.23,226.9,400.5,226.9z M374.06,206.86c-3.62-0.67-6.86,0.43-9.09,2.7
		c2.19-3.29,6.04-5.04,10.43-4.23c0.5,0.09,1.22,0.28,1.71,0.43l1.05,2.57C377.01,207.74,375.32,207.09,374.06,206.86z
		 M385.16,192.37c-2.9,0-5.51,1.24-7.35,3.21c1.8-2.87,4.99-4.78,8.63-4.78c5.63,0,10.2,4.57,10.2,10.2c0,1.65-0.4,3.21-1.1,4.59
		c0.96-0.3,1.98-0.46,3.03-0.46c5.63,0,10.2,4.57,10.2,10.2c0,3.76-2.04,7.03-5.07,8.8c2.12-1.84,3.47-4.56,3.47-7.59
		c0-5.55-4.5-10.05-10.05-10.05c-1.04,0-2.04,0.16-2.99,0.45c0.69-1.36,1.08-2.89,1.08-4.52
		C395.22,196.86,390.72,192.37,385.16,192.37z"/>
	<linearGradient id="SVGID_6_" gradientUnits="userSpaceOnUse" x1="385.9574" y1="167.7566" x2="388.1274" y2="249.5802">
		<stop  offset="0" style="stop-color:#49423D"/>
		<stop  offset="1" style="stop-color:#000000"/>
	</linearGradient>
	<path class="st10" d="M419.27,163.99h-64.41c-4.81,0-8.72,3.91-8.72,8.72v73.85c0,4.81,3.91,8.72,8.72,8.72h64.41
		c4.81,0,8.72-3.91,8.72-8.72v-73.85C427.99,167.9,424.08,163.99,419.27,163.99z M419.27,244.53c0,1.12-0.91,2.03-2.03,2.03H356.9
		c-1.12,0-2.03-0.91-2.03-2.03v-69.79c0-1.12,0.91-2.03,2.03-2.03h60.34c1.12,0,2.03,0.91,2.03,2.03V244.53z"/>
	<path class="st7" d="M353.9,207.06v-32.32c0-1.65,1.34-2.99,3-2.99h60.34c1.65,0,3,1.34,3,2.99v32.32h6.8v-34.35
		c0-4.28-3.48-7.76-7.76-7.76h-64.41c-4.28,0-7.76,3.48-7.76,7.76v34.35H353.9z"/>
</g>
<path class="st0" d="M228.04,408.21h14.24c0.74,0,1.34-0.6,1.34-1.34v-0.61c0-0.74-0.6-1.34-1.34-1.34h-14.24
	c-0.74,0-1.34,0.6-1.34,1.34v0.61C226.7,407.61,227.3,408.21,228.04,408.21z"/>
<path class="st0" d="M233.51,399.86v14.24c0,0.74,0.6,1.34,1.34,1.34h0.61c0.74,0,1.34-0.6,1.34-1.34v-14.24
	c0-0.74-0.6-1.34-1.34-1.34h-0.61C234.12,398.52,233.51,399.13,233.51,399.86z"/>
<circle class="st2" cx="553.71" cy="408.15" r="2.63"/>
<circle class="st0" cx="548.7" cy="402.89" r="2.63"/>
<circle class="st0" cx="548.45" cy="412.73" r="2.63"/>
<circle class="st2" cx="543.92" cy="408.15" r="2.63"/>
</svg>
