<svg width="23" height="24" viewBox="0 0 23 24" fill="none" xmlns="http://www.w3.org/2000/svg">
<path d="M9.16317 10.9313C10.1023 11.4843 10.801 11.7612 11.4996 11.7612C12.1992 11.7612 12.8978 11.4852 13.8379 10.9313L16.6574 9.26377C16.9995 9.06252 17.1125 8.62173 16.9103 8.2796C16.7091 7.93748 16.2683 7.82433 15.9262 8.02654L13.1077 9.69314C11.6951 10.524 11.3041 10.524 9.89343 9.69314L7.07402 8.02561C6.73286 7.8234 6.29197 7.93741 6.08977 8.27857C5.88756 8.61974 6.00166 9.06062 6.34283 9.26283L9.16317 10.9313Z" fill="#316BFF"/>
<path fill-rule="evenodd" clip-rule="evenodd" d="M8.70196 20.8251C9.64305 20.8491 10.5717 20.8616 11.5003 20.8616C12.4289 20.8616 13.3576 20.8491 14.2987 20.8251L14.3 20.8251C17.4022 20.7465 19.1116 20.7032 20.4004 19.4154C21.6865 18.1188 21.7219 16.4551 21.7861 13.4335C21.8062 12.4685 21.8062 11.5312 21.7861 10.5662C21.7219 7.54456 21.6864 5.87991 20.3975 4.58137C19.1104 3.29625 17.4008 3.25222 14.2977 3.17363C12.4146 3.12572 10.5842 3.12572 8.70103 3.17363L8.69973 3.17367C5.59747 3.25223 3.88811 3.29552 2.59933 4.58334C1.31324 5.87996 1.27779 7.54362 1.21358 10.5652C1.19346 11.5303 1.19346 12.4675 1.21358 13.4326C1.27779 16.4542 1.31327 18.1188 2.60223 19.4174C3.88927 20.7025 5.59888 20.7465 8.70196 20.8251ZM3.61999 18.4015C2.73736 17.5131 2.70956 16.2242 2.65014 13.4019C2.63002 12.457 2.63002 11.5389 2.65014 10.5949C2.70956 7.77262 2.73734 6.48468 3.61709 5.59726C4.49772 4.71663 5.8258 4.68296 8.73672 4.60919C10.5959 4.56127 12.4031 4.56125 14.2613 4.60917C17.1727 4.68296 18.501 4.71746 19.3798 5.5953C20.2624 6.48367 20.2901 7.77262 20.3496 10.5949C20.3697 11.5398 20.3697 12.4579 20.3496 13.4019C20.2901 16.2242 20.2624 17.5122 19.3826 18.3996C18.5021 19.2802 17.1742 19.3138 14.2639 19.3876L14.2623 19.3876C12.4031 19.4355 10.5967 19.4355 8.73846 19.3876C5.82705 19.3138 4.49878 19.2793 3.61999 18.4015Z" fill="#316BFF"/>
</svg>
