<svg width="19" height="18" viewBox="0 0 19 18" fill="none" xmlns="http://www.w3.org/2000/svg">
<path fill-rule="evenodd" clip-rule="evenodd" d="M9.53824 6.5625C8.19205 6.5625 7.10074 7.65381 7.10074 9C7.10074 10.3462 8.19205 11.4375 9.53824 11.4375C10.8844 11.4375 11.9757 10.3462 11.9757 9C11.9757 7.65381 10.8844 6.5625 9.53824 6.5625ZM8.22574 9C8.22574 8.27513 8.81337 7.6875 9.53824 7.6875C10.2631 7.6875 10.8507 8.27513 10.8507 9C10.8507 9.72487 10.2631 10.3125 9.53824 10.3125C8.81337 10.3125 8.22574 9.72487 8.22574 9Z" fill="#316BFF"/>
<path d="M3.6875 9C3.6875 8.68934 3.93934 8.4375 4.25 8.4375H5C5.31066 8.4375 5.5625 8.68934 5.5625 9C5.5625 9.31066 5.31066 9.5625 5 9.5625H4.25C3.93934 9.5625 3.6875 9.31066 3.6875 9Z" fill="#316BFF"/>
<path d="M14 8.4375C13.6893 8.4375 13.4375 8.68934 13.4375 9C13.4375 9.31066 13.6893 9.5625 14 9.5625H14.75C15.0607 9.5625 15.3125 9.31066 15.3125 9C15.3125 8.68934 15.0607 8.4375 14.75 8.4375H14Z" fill="#316BFF"/>
<path fill-rule="evenodd" clip-rule="evenodd" d="M10.6607 2.4375H8.33935C6.96009 2.43749 5.87688 2.43749 5.02294 2.53395C4.15131 2.63241 3.4445 2.83772 2.85697 3.30171C2.68108 3.44062 2.51801 3.59404 2.36974 3.76035C1.87011 4.32076 1.64699 5.00002 1.54072 5.83339C1.43748 6.64295 1.43749 7.66744 1.4375 8.96044V9.03955C1.43749 10.3326 1.43748 11.357 1.54072 12.1666C1.64699 13 1.87011 13.6792 2.36974 14.2397C2.51801 14.406 2.68108 14.5594 2.85697 14.6983C3.4445 15.1623 4.15131 15.3676 5.02294 15.4661C5.87688 15.5625 6.96009 15.5625 8.33934 15.5625H10.6607C12.0399 15.5625 13.1231 15.5625 13.9771 15.4661C14.8487 15.3676 15.5555 15.1623 16.143 14.6983C16.3189 14.5594 16.482 14.406 16.6303 14.2397C17.1299 13.6792 17.353 13 17.4593 12.1666C17.5625 11.357 17.5625 10.3326 17.5625 9.03956V8.96044C17.5625 7.66743 17.5625 6.64295 17.4593 5.83339C17.353 5.00002 17.1299 4.32076 16.6303 3.76035C16.482 3.59404 16.3189 3.44062 16.143 3.30171C15.5555 2.83772 14.8487 2.63241 13.9771 2.53395C13.1231 2.43749 12.0399 2.43749 10.6607 2.4375ZM3.55421 4.18459C3.90769 3.90544 4.37612 3.73917 5.14921 3.65184C5.93265 3.56334 6.95233 3.5625 8.375 3.5625H10.625C12.0477 3.5625 13.0674 3.56334 13.8508 3.65184C14.6239 3.73917 15.0923 3.90544 15.4458 4.18459C15.5709 4.28341 15.6862 4.392 15.7905 4.509C16.0805 4.83425 16.2522 5.26109 16.3433 5.9757C16.4364 6.70586 16.4375 7.65858 16.4375 9C16.4375 10.3414 16.4364 11.2941 16.3433 12.0243C16.2522 12.7389 16.0805 13.1658 15.7905 13.491C15.6862 13.608 15.5709 13.7166 15.4458 13.8154C15.0923 14.0946 14.6239 14.2608 13.8508 14.3482C13.0674 14.4367 12.0477 14.4375 10.625 14.4375H8.375C6.95233 14.4375 5.93265 14.4367 5.14921 14.3482C4.37612 14.2608 3.90769 14.0946 3.55421 13.8154C3.42909 13.7166 3.31377 13.608 3.20946 13.491C2.9195 13.1658 2.74781 12.7389 2.65668 12.0243C2.56357 11.2941 2.5625 10.3414 2.5625 9C2.5625 7.65858 2.56357 6.70586 2.65668 5.9757C2.74781 5.26109 2.9195 4.83425 3.20946 4.509C3.31377 4.392 3.42909 4.28341 3.55421 4.18459Z" fill="#316BFF"/>
</svg>
