<svg width="25" height="24" viewBox="0 0 25 24" fill="none" xmlns="http://www.w3.org/2000/svg">
<path fill-rule="evenodd" clip-rule="evenodd" d="M2.83223 2.65856C2.96045 2.40779 3.21836 2.25 3.5 2.25H8.5C8.74083 2.25 8.96701 2.36565 9.10801 2.56088L14.044 9.39534L20.9697 2.46967C21.2626 2.17678 21.7374 2.17678 22.0303 2.46967C22.3232 2.76256 22.3232 3.23744 22.0303 3.53033L14.9336 10.6271L22.108 20.5609C22.2729 20.7892 22.296 21.0907 22.1678 21.3414C22.0396 21.5922 21.7817 21.75 21.5 21.75H16.5C16.2592 21.75 16.033 21.6344 15.892 21.4391L10.956 14.6047L4.03033 21.5303C3.73744 21.8232 3.26257 21.8232 2.96967 21.5303C2.67678 21.2374 2.67678 20.7626 2.96967 20.4697L10.0664 13.3729L2.89199 3.43912C2.72709 3.21079 2.70401 2.90933 2.83223 2.65856ZM4.96682 3.75L16.8835 20.25H20.0332L8.11652 3.75H4.96682Z" fill="white"/>
</svg>
