<svg width="44" height="44" viewBox="0 0 44 44" fill="none" xmlns="http://www.w3.org/2000/svg">
<rect width="44" height="44" rx="22" fill="#316BFF" fill-opacity="0.06"/>
<path fill-rule="evenodd" clip-rule="evenodd" d="M22.0006 12.1458C17.8136 12.1458 14.4154 15.5294 14.4153 19.7082C14.4153 20.6802 14.3501 21.4138 13.9031 22.0731C13.8409 22.1635 13.7585 22.2767 13.6683 22.4003C13.5118 22.6151 13.3323 22.8615 13.1961 23.0749C12.9557 23.4516 12.7208 23.9058 12.6401 24.4351C12.3767 26.1618 13.591 27.2798 14.8002 27.7807C15.7005 28.1537 16.6733 28.4478 17.6879 28.6631C18.2141 30.5152 19.9554 31.854 21.9998 31.854C24.0439 31.854 25.7851 30.5154 26.3115 28.6635C27.3268 28.4482 28.3002 28.1539 29.201 27.7807C30.4103 27.2798 31.6246 26.1618 31.3612 24.4351C31.2805 23.9058 31.0456 23.4516 30.8052 23.0749C30.669 22.8615 30.4895 22.6151 30.333 22.4003C30.2429 22.2767 30.1604 22.1636 30.0983 22.0732C29.6512 21.4138 29.586 20.6803 29.5859 19.7083C29.5859 15.5295 26.1877 12.1458 22.0006 12.1458ZM15.7903 19.7083C15.7903 16.2931 18.5686 13.5208 22.0006 13.5208C25.4326 13.5208 28.2109 16.2932 28.2109 19.7083C28.211 20.7005 28.26 21.8135 28.9617 22.8471L28.9639 22.8503C29.0793 23.0182 29.1806 23.1558 29.276 23.2855C29.4032 23.4583 29.5201 23.6171 29.6461 23.8147C29.8416 24.1209 29.9629 24.3863 30.0019 24.6424C30.1284 25.4714 29.5996 26.1273 28.6748 26.5104C24.7524 28.1353 19.2489 28.1353 15.3265 26.5104C14.4017 26.1273 13.8729 25.4714 13.9994 24.6424C14.0384 24.3863 14.1597 24.1209 14.3551 23.8147C14.4812 23.6171 14.5981 23.4583 14.7252 23.2855C14.8206 23.156 14.9222 23.0179 15.0374 22.8503L15.0396 22.8471C15.7413 21.8135 15.7903 20.7005 15.7903 19.7083ZM24.7167 28.933C22.9305 29.1612 21.0688 29.1611 19.2827 28.9328C19.8066 29.8483 20.8205 30.479 21.9998 30.479C23.1789 30.479 24.1927 29.8484 24.7167 28.933Z" fill="#316BFF"/>
</svg>
