<svg width="58" height="44" viewBox="0 0 58 44" fill="none" xmlns="http://www.w3.org/2000/svg">
<g clip-path="url(#clip0_194_2253)">
<rect width="58" height="43.5" fill="white"/>
<rect y="0.25" width="58" height="43.5" fill="#006923"/>
<path fill-rule="evenodd" clip-rule="evenodd" d="M23.6959 9.3125C23.6524 9.3125 23.5871 9.33425 23.5038 9.38501C23.308 9.51552 22.9237 9.91792 22.9092 10.382C22.8983 10.6466 22.8476 10.6466 23.018 10.817C23.1412 10.991 23.2717 10.9765 23.5183 10.8424C23.6633 10.7336 23.7104 10.672 23.7612 10.4943C23.8192 10.2043 23.4458 10.6393 23.3986 10.3058C23.3153 10.0013 23.5545 9.87079 23.7793 9.58077C23.7865 9.43576 23.7865 9.327 23.6959 9.31975V9.3125ZM27.3321 9.33063C27.2595 9.34513 27.1762 9.43939 27.0565 9.64965C26.9731 9.87442 26.607 10.2152 26.8753 10.9185C27.0855 11.3644 27.1762 12.0858 27.0783 12.8943C26.926 13.1227 26.897 13.2024 26.6976 13.4308C26.4221 13.7317 26.1176 13.6556 25.8928 13.5396C25.6753 13.3946 25.5085 13.322 25.4107 12.8653C25.4288 12.1402 25.4723 10.9366 25.3382 10.6829C25.1424 10.2913 24.8161 10.4291 24.6784 10.5487C24.0149 11.165 23.685 12.191 23.482 13.0139C23.3007 13.6084 23.1014 13.4344 22.9636 13.1952C22.6265 12.8761 22.6011 10.4037 22.195 10.8134C21.5425 12.6768 22.5684 14.7178 23.2826 14.5184C23.7902 14.7359 24.1164 13.7571 24.3267 12.6876C24.4717 12.3867 24.5805 12.3505 24.653 12.5064C24.6349 13.9275 24.7617 14.2465 25.1243 14.6743C25.9363 15.3051 26.6106 14.754 26.665 14.7033L27.2994 14.0725C27.4444 13.9275 27.6257 13.913 27.8251 14.0435C28.0209 14.2247 27.9955 14.5256 28.4051 14.7323C28.7604 14.8773 29.5036 14.7685 29.674 14.4676C29.9096 14.0689 29.964 13.9311 30.0728 13.7788C30.2395 13.5613 30.5259 13.6592 30.5259 13.7281C30.5005 13.855 30.3338 13.9818 30.4462 14.1994C30.6455 14.3444 30.6927 14.2501 30.8087 14.2175C31.222 14.0217 31.5337 13.1227 31.5337 13.1227C31.5519 12.7891 31.3633 12.8145 31.2437 12.8834C31.0806 12.9813 31.0733 13.0139 30.9174 13.1118C30.7108 13.1408 30.3193 13.2749 30.1271 12.974C29.9277 12.6115 29.9277 12.1112 29.7755 11.7414C29.7755 11.7197 29.5108 11.1723 29.7537 11.1396C29.8734 11.1614 30.1416 11.2303 30.1815 11.0091C30.312 10.7916 29.9024 10.1753 29.6232 9.87079C29.384 9.60615 29.0504 9.57352 28.7278 9.84179C28.4994 10.0521 28.5356 10.2841 28.4885 10.5052C28.4341 10.759 28.445 11.0744 28.706 11.4115C28.9308 11.8538 29.3404 12.4266 29.2027 13.2314C29.2027 13.2314 28.967 13.6157 28.5501 13.5649C28.3689 13.5287 28.0861 13.4562 27.9338 12.3323C27.8251 11.4877 27.9628 10.3022 27.6076 9.74753C27.5242 9.54089 27.4553 9.33788 27.3393 9.34875L27.3321 9.33063ZM26.1792 9.42488C26.0705 9.43576 25.9508 9.56264 25.8529 9.80554C25.7696 9.99405 25.6644 10.9656 25.6826 10.9656C25.61 11.2556 25.9834 11.3789 26.1538 11.0091C26.4076 10.3203 26.4076 10.0303 26.4221 9.74753C26.3859 9.53002 26.288 9.41763 26.1792 9.42488ZM30.4317 9.49739C30.3229 9.51189 30.2323 9.57715 30.1996 9.74391C30.1525 10.1282 30.1779 10.3421 30.2431 10.6647C30.2903 10.8822 30.6057 11.2375 30.7579 11.4478C31.4939 12.4375 32.208 13.4308 32.8896 14.4568C32.9983 15.2253 33.0709 15.9721 33.1252 16.7189C33.2412 18.3503 33.2702 20.3804 33.1724 22.1025C33.4769 22.1133 33.9699 21.6058 34.1403 20.8699C34.2491 19.8403 34.1041 17.7521 34.0896 17.1431L34.0533 16.2803C34.8509 17.5854 35.6194 18.963 36.3735 20.4711C36.6526 20.3406 36.591 18.7853 36.4315 18.5678C35.8224 17.2627 34.9814 15.9721 34.7167 15.4755C34.6188 15.2942 34.2889 14.7975 33.901 14.2211C33.8285 13.3946 33.7488 12.6985 33.698 12.4882C33.5711 11.6182 34.0533 12.5861 33.988 12.0822C33.8285 11.2121 33.35 10.6248 32.7845 9.82729C32.6032 9.57352 32.6032 9.51552 32.324 9.89254C32.1609 10.2732 32.1609 10.5922 32.2153 10.8895C32.1355 10.7807 32.0449 10.6575 31.9144 10.498L30.9899 9.71491C30.8631 9.62427 30.6165 9.48651 30.4317 9.49739ZM43.0331 9.63152C42.9787 9.62427 42.9243 9.64965 42.8518 9.74753C42.7249 9.85629 42.5908 10.0629 42.5981 10.3276C42.6234 10.7807 42.7068 11.2484 42.7358 11.7052L42.7721 11.8864C42.7213 11.8284 42.6778 11.7777 42.6524 11.7559C41.757 10.8134 43.0621 11.5964 42.4784 10.875C41.989 10.3312 41.844 10.1644 41.4271 9.83816C41.2096 9.70766 41.0863 9.44664 41.0174 9.88892C40.9884 10.2768 40.9594 10.73 40.9812 11.0563C40.9812 11.2375 41.1733 11.5819 41.3365 11.7813C41.931 12.5172 42.5401 13.2967 43.1491 14.1087C43.2796 15.7655 43.3122 17.2845 43.4391 18.9448C43.4246 19.6554 43.2071 20.598 43.0041 20.685C43.0041 20.685 42.6851 20.8662 42.4748 20.6668C42.3189 20.6052 41.7062 19.6409 41.7062 19.6409C41.3908 19.3509 41.1806 19.4343 40.9594 19.6409C40.3431 20.2354 40.0604 21.352 39.6435 22.1206C39.5347 22.291 39.2338 22.4396 38.8967 22.1061C38.0375 20.9315 38.5341 19.2602 38.4326 19.6916C37.6713 20.5545 38.0048 21.9828 38.1789 22.291C38.4326 22.7985 38.6356 23.1248 39.1214 23.3677C39.5746 23.6939 39.919 23.4946 40.1147 23.2589C40.5643 22.7949 40.5715 21.6022 40.7818 21.3665C40.9268 20.9315 41.3002 21.004 41.4815 21.1998C41.6627 21.4535 41.8658 21.6167 42.1231 21.7544C42.5437 22.1242 43.044 22.1895 43.537 21.8523C43.8742 21.6638 44.0953 21.4173 44.2911 20.9315C44.5086 20.3659 44.3998 17.3932 44.3527 15.7401L45.2953 17.1032C45.4258 18.5533 45.4874 19.9853 45.4403 21.3556C45.4113 21.6275 46.3937 20.5436 46.3828 20.0288C46.3828 19.5829 46.3901 19.1732 46.3828 18.7962C46.865 19.5575 47.3254 20.3297 47.7604 21.1164C48.0323 20.9714 47.9417 19.4379 47.7713 19.2312C47.3145 18.4627 46.7272 17.6361 46.2741 16.9908C46.1835 16.1824 46.0638 15.2289 46.0058 14.9353C45.9224 14.4785 45.8354 13.7933 45.7049 13.2532C45.6687 13.0465 45.5599 12.3722 45.5962 12.3106C45.6469 12.1547 45.8499 12.3106 45.9478 12.1366C46.0928 11.9734 45.433 10.2514 45.0959 9.76566C44.9762 9.54814 44.7551 9.62065 44.4868 9.98318C44.2331 10.2152 44.3273 10.7517 44.4216 11.2629C44.6681 12.568 44.8929 13.8876 45.0669 15.2144C44.7406 14.725 44.3418 14.1377 43.9503 13.5758L43.8995 13.322C43.8995 13.293 43.8488 12.2526 43.8017 12.0061C43.7908 11.9046 43.7654 11.8756 43.8742 11.8901C43.9829 11.9843 43.9974 11.9879 44.0663 12.0206C44.1823 12.0351 44.2838 11.8466 44.2113 11.6689L43.16 9.73303C43.1237 9.6859 43.073 9.6424 43.015 9.63515L43.0331 9.63152ZM10.5144 9.66778C10.315 9.66053 10.1048 9.77653 10.1882 10.0122C10.1374 10.1391 10.5652 10.5668 10.6413 10.8025C10.7029 10.9729 10.5688 11.5094 10.7138 11.5638C10.8407 11.6182 11.0183 11.1868 11.0836 10.7916C11.1198 10.5741 11.0945 9.82729 10.5869 9.67503C10.5616 9.66778 10.5362 9.66778 10.5072 9.66415L10.5144 9.66778ZM47.5647 9.66778C47.5176 9.67503 47.4632 9.74028 47.3834 9.92155C47.184 10.2478 47.1151 10.8279 47.1949 11.3354C47.6662 14.5619 48.0287 17.6869 48.1012 20.5436C48.0577 20.8191 48.0432 20.9641 47.92 21.3049C47.6372 21.6674 47.3254 22.117 47.0318 22.3345C46.7417 22.552 46.1182 22.7622 45.9152 22.9218C45.2626 23.2915 45.2626 23.7193 45.7847 23.7374C46.6837 23.6287 47.7496 23.5562 48.4819 22.4505C48.6776 22.1423 48.9097 21.3013 48.9169 20.7829C48.9894 17.7739 48.8807 14.8193 48.4275 12.6405C48.3985 12.423 48.3042 11.9408 48.3405 11.8792C48.3949 11.7269 48.6885 11.8901 48.7936 11.7197C48.9495 11.5602 48.0323 10.3892 47.7133 9.88892C47.6481 9.76566 47.6046 9.66053 47.5538 9.6714L47.5647 9.66778ZM38.1281 9.71853C38.0919 9.72578 38.0411 9.78379 37.9396 9.91792C37.6858 10.7372 37.5988 11.4043 37.6967 11.9191C38.3492 15.2906 39.0018 18.3539 38.9003 21.5623C39.2048 21.5623 39.5601 20.8626 39.7123 20.1666C39.7957 19.2059 39.6543 18.6222 39.6326 18.0639C39.6072 17.4984 38.9945 12.9305 38.8713 12.5064C38.719 11.7016 39.4658 12.3976 39.3861 11.9336C39.125 11.339 38.4798 10.4835 38.284 9.96505C38.2115 9.82729 38.197 9.7004 38.139 9.71128L38.1281 9.71853ZM15.1656 9.78378C15.0931 9.79829 15.0098 9.86354 14.9844 9.96505C14.9663 10.0376 15.0134 10.1572 14.9481 10.1934C14.9119 10.2297 14.7741 10.2043 14.7814 10.0122C14.7814 9.94692 14.7342 9.88167 14.7089 9.84179C14.6799 9.82729 14.6617 9.82366 14.611 9.82366C14.5494 9.82366 14.5494 9.84179 14.5167 9.89617C14.5022 9.94692 14.4805 9.99768 14.4805 10.0557C14.4732 10.1282 14.4442 10.1463 14.3971 10.1572C14.3391 10.1572 14.35 10.1644 14.3065 10.1318C14.2702 10.1064 14.2412 10.0956 14.2412 10.0448C14.2412 9.99043 14.2267 9.89979 14.2122 9.87079C14.1868 9.83454 14.1469 9.82004 14.1034 9.80916C13.8642 9.80916 13.8497 10.0919 13.8605 10.1934C13.8424 10.2152 13.8352 10.701 14.1614 10.8387C14.5965 11.049 15.423 10.9584 15.394 10.2514C15.394 10.1898 15.3759 9.97955 15.3687 9.92517C15.3252 9.81641 15.2418 9.78016 15.162 9.79104L15.1656 9.78378ZM21.0603 9.79104C20.9081 9.79829 20.7703 9.84179 20.6616 9.89979C20.3715 10.1789 20.299 10.6248 20.531 10.904C20.7486 11.0128 20.977 11.2303 20.8283 11.3572C20.1975 12.0278 18.5553 13.1553 18.4719 13.3619V13.3837H18.4864V13.3909C18.5698 13.4453 19.5994 13.4453 19.7117 13.3909H19.719C20.0743 13.2568 21.7491 11.3427 21.7491 11.3427C21.6621 11.2701 21.5824 11.2121 21.4954 11.136C21.4011 11.0563 21.412 10.9765 21.4954 10.8967C21.9086 10.6575 21.7781 10.1246 21.5606 9.88167C21.3794 9.80191 21.2126 9.77291 21.0603 9.78378V9.79104ZM36.4677 9.79104C36.4242 9.80191 36.3698 9.86354 36.2865 10.0448C36.0871 10.3711 35.9529 10.933 35.9711 11.4587C36.3988 14.4314 36.5294 17.0307 36.8121 20.0034C36.8339 20.2934 36.7904 20.7067 36.6019 20.8735C35.8913 21.613 34.8726 22.5194 33.7633 22.9399C33.6436 23.074 34.0606 23.6432 34.5971 23.6432C35.4962 23.5344 36.2865 23.0341 37.026 21.7037C37.2182 21.3955 37.5626 20.7321 37.5698 20.2173C37.6423 17.2011 37.4248 14.8519 36.968 12.6768C36.9426 12.4592 36.9608 12.2055 36.997 12.1475C37.055 12.075 37.2508 12.1475 37.3595 11.9771C37.5118 11.8176 36.9463 10.5161 36.6272 10.0194C36.562 9.89254 36.5257 9.78741 36.4677 9.79104ZM12.599 9.88892C12.4757 9.90342 12.3597 9.99768 12.3017 10.1427C12.2836 10.614 12.2799 11.0853 12.3379 11.5275C12.5555 12.2997 12.6171 12.9776 12.7222 13.7643C12.7585 14.8229 12.1132 14.2211 12.1422 13.6991C12.2872 13.0175 12.2509 11.9481 12.1204 11.6762C12.0117 11.4043 11.8957 11.339 11.6419 11.3862C11.4425 11.3717 10.9241 11.9299 10.7791 12.8725C10.7791 12.8725 10.6558 13.3511 10.6051 13.7788C10.5326 14.261 10.2135 14.6054 9.98876 13.7136C9.79662 13.061 9.68061 11.4659 9.35796 11.8357C9.26371 13.0828 9.15495 15.2797 10.2135 15.5045C11.4969 15.6277 10.7863 13.3365 11.2504 12.9196C11.341 12.7203 11.5041 12.7166 11.515 12.974V14.9208C11.5005 15.5516 11.9138 15.7401 12.2401 15.8706C12.5772 15.8452 12.7983 15.8561 12.9289 16.1824L13.092 19.5539C13.092 19.5539 13.8678 19.7714 13.9041 17.6579C13.9403 16.4144 13.6503 15.374 13.8207 15.1311C13.8279 14.8918 14.1324 14.8773 14.3427 14.9969C14.6799 15.2326 14.8285 15.5226 15.3505 15.4066C16.1481 15.1891 16.6194 14.8048 16.6303 14.1957C16.594 13.6157 16.5215 13.0357 16.2677 12.4556C16.304 12.3541 16.1227 12.0822 16.159 11.9771C16.2967 12.1946 16.5142 12.1801 16.5578 11.9771C16.4272 11.5312 16.217 11.107 15.8762 10.9257C15.5971 10.672 15.1874 10.7264 15.0351 11.2411C14.9626 11.8357 15.2527 12.539 15.6877 13.1154C15.7747 13.3402 15.9052 13.7136 15.8472 14.0507C15.6188 14.1812 15.3904 14.1232 15.1946 13.9238C15.1946 13.9238 14.5675 13.4526 14.5675 13.3438C14.7379 12.2743 14.6037 12.1475 14.5131 11.8574C14.4478 11.4442 14.2521 11.3136 14.0962 11.0309C13.9367 10.8605 13.7228 10.8605 13.6249 11.0309C13.3421 11.513 13.4726 12.5535 13.6757 13.0139C13.8207 13.4417 14.0454 13.71 13.9403 13.71C13.8533 13.9456 13.672 13.8912 13.5415 13.6121C13.3603 13.032 13.3168 12.1765 13.3168 11.7886C13.2624 11.31 13.2008 10.2841 12.8817 10.0231C12.7983 9.90705 12.7005 9.86717 12.6026 9.87804L12.599 9.88892ZM17.1015 9.88892C17.0399 9.90342 16.9674 9.93967 16.884 9.96142C16.6121 10.0448 16.3584 10.2804 16.4381 10.7372C16.7644 12.6949 16.971 14.1921 17.2937 16.1498C17.3408 16.3818 17.1487 16.6827 16.9022 16.6573C16.4816 16.3673 16.3765 15.7872 15.6587 15.8162C15.1366 15.8162 14.5421 16.389 14.4696 16.9328C14.3826 17.3678 14.3536 17.8391 14.4696 18.2162C14.8321 18.6512 15.2744 18.6077 15.6587 18.5062C15.9741 18.3793 16.2387 18.0712 16.3475 18.1437C16.42 18.2633 16.3402 19.282 14.8611 20.0651C13.9476 20.4783 13.2225 20.5726 12.831 19.833C12.5917 19.369 12.8527 17.5999 12.2582 18.0059C10.4963 22.5447 16.3801 23.1755 17.0363 18.1944C17.0798 18.0494 17.2067 17.9116 17.3009 17.9479C17.3372 17.966 17.3734 18.0204 17.3879 18.1219C17.2502 22.6317 12.8346 22.9435 12.0878 21.5224C11.8993 21.1889 11.8449 20.4421 11.8268 19.9998C11.7905 19.7279 11.7253 19.572 11.6455 19.5104C11.4642 19.3762 11.225 19.7279 11.1742 20.3333C11.1017 20.8227 11.1198 20.9569 11.1198 21.4282C11.3591 24.9918 17.0399 23.4583 17.9644 20.5218C18.4211 18.9992 17.9535 17.85 18.1094 17.7086L18.1202 17.7014H18.1311L18.1492 17.6941C18.7148 18.3032 19.5051 17.7666 19.6791 17.56C19.7516 17.4512 19.9401 17.3787 20.0706 17.5237C20.5057 17.8355 21.2815 17.6869 21.441 17.125C21.5352 16.5812 21.615 16.0229 21.6331 15.4392C21.3431 15.5298 21.1111 15.5951 21.0168 15.693C20.9951 15.7184 20.9806 15.7474 20.9733 15.7764L20.9008 16.2585C20.9008 16.2766 20.8936 16.2875 20.8863 16.2948C20.8754 16.3201 20.8501 16.3383 20.8356 16.3491C20.7341 16.4035 20.5564 16.3745 20.5455 16.2259C20.4114 15.6096 19.8495 15.5298 19.5087 16.4905C19.2803 16.6718 18.8562 16.708 18.8199 16.4325C18.8743 15.7872 18.6133 15.7002 18.0949 16.0047L17.5946 12.2345C17.8121 12.2236 18.0079 12.3795 18.2109 12.133C17.9934 11.4659 17.5402 10.1101 17.2828 9.97955H17.2756L17.2393 9.9433C17.2393 9.93605 17.2284 9.93242 17.2212 9.9288L17.2067 9.90705C17.1922 9.90705 17.1777 9.89979 17.1704 9.89617C17.145 9.88892 17.1269 9.88892 17.1015 9.88892ZM34.6551 9.90342C34.4303 9.89617 34.1838 10.0376 34.2781 10.3203C34.2201 10.4762 34.7602 10.9983 34.8472 11.281C35.0031 11.7161 34.7276 12.1402 34.8907 12.2018C35.043 12.2671 35.2533 11.7487 35.3258 11.2665C35.42 10.875 35.1445 10.0774 34.7457 9.9143L34.6551 9.90705V9.90342ZM20.977 10.3783C21.0785 10.3711 21.2017 10.4653 21.267 10.5958C21.3286 10.7409 21.296 10.875 21.1945 10.9004C21.0857 10.9257 20.948 10.8351 20.8827 10.6901C20.8174 10.5451 20.8464 10.411 20.9552 10.3856H20.977V10.3783ZM46.343 11.0381C46.1363 11.0309 45.9079 11.1831 46.0022 11.4913C45.9514 11.658 46.4372 12.2236 46.5206 12.5354C46.5931 12.7529 46.4118 13.4634 46.5569 13.5287C46.6946 13.6012 46.8831 13.0357 46.9556 12.5136C46.9991 12.2236 46.7889 11.2266 46.43 11.049C46.4046 11.0418 46.3756 11.0345 46.3466 11.0345L46.343 11.0381ZM32.3132 11.3862C32.3385 11.4695 32.3567 11.5529 32.3675 11.6399C32.4111 11.8212 32.4473 12.0024 32.4836 12.191C32.324 11.9662 32.1935 11.7849 32.1319 11.7197C31.7694 11.2846 32.1392 11.4369 32.3132 11.3862ZM35.5505 12.974C35.4708 12.9885 35.3946 13.0574 35.3693 13.1662C35.3475 13.2314 35.3983 13.3474 35.333 13.3837C35.2968 13.4199 35.1518 13.3982 35.1626 13.2024C35.1626 13.1372 35.1155 13.0683 35.0901 13.032C35.0611 13.0139 35.043 13.0067 34.9922 13.0067C34.9306 13.0067 34.9306 13.0248 34.898 13.0792C34.8835 13.1299 34.8617 13.1807 34.8617 13.2423C34.8617 13.3148 34.8327 13.3365 34.782 13.3511C34.724 13.3511 34.7348 13.3511 34.6877 13.3257C34.6587 13.2894 34.6261 13.2822 34.6261 13.2314C34.6261 13.177 34.6152 13.0937 34.5971 13.0574C34.5717 13.0212 34.5355 13.0103 34.4883 12.9958C34.2527 12.9958 34.2346 13.2713 34.2491 13.3728C34.2346 13.3946 34.2237 13.8876 34.55 14.0254C34.9922 14.232 35.8188 14.1341 35.7826 13.4308C35.7826 13.3692 35.7644 13.1589 35.7608 13.1045C35.7137 12.9958 35.6303 12.9595 35.5542 12.9704L35.5505 12.974ZM20.7957 13.119C20.7449 13.119 20.6724 13.1335 20.589 13.1843C20.2011 13.3946 20.0525 14.0181 20.299 14.3806C20.5165 14.7069 20.8791 14.5873 20.9262 14.5873C21.3069 14.638 21.5316 13.8767 21.5316 13.8767C21.5316 13.8767 21.5425 13.6592 21.0966 14.0652C20.9008 14.1015 20.8791 14.029 20.8283 13.9202C20.7848 13.7281 20.7921 13.5214 20.8827 13.3293C20.9262 13.2097 20.8827 13.1335 20.7957 13.1263V13.119ZM41.6519 13.2169C41.4343 13.206 41.206 13.3474 41.1443 13.6411C41.1443 13.8151 41.2241 13.9093 41.2096 14.0689C41.1915 14.1595 41.1008 14.2139 40.8761 14.1124C40.9123 14.0761 40.731 13.8296 40.731 13.8296C40.5607 13.7208 40.3323 13.8296 40.18 13.9311C40.0966 14.0834 40.035 14.3407 40.1292 14.6018C40.3758 15.0622 41.2277 15.8452 41.6337 15.8525C41.641 15.4392 41.6809 14.8882 41.7062 14.5474C41.7135 14.4169 41.7425 14.2755 41.8694 14.2429C41.9926 14.2066 42.2065 14.3661 42.2065 14.232C42.1848 13.971 42.134 13.5794 41.989 13.3982C41.9093 13.2894 41.7824 13.2242 41.6555 13.2169H41.6519ZM24.3847 14.6561L24.3738 14.667C24.3738 14.667 24.3666 14.667 24.363 14.6743C24.3194 14.7105 24.2687 14.783 24.1563 14.8555C23.9642 15.0731 23.9315 15.2289 23.9388 15.664C23.9533 15.7111 24.3013 16.6899 24.6022 17.3751C24.8052 18.0893 24.9901 18.9086 24.856 19.6808C24.3847 20.7031 23.4421 21.6203 22.5249 22.1206C22.0537 22.2656 21.6549 22.2148 21.5461 22.1133C21.2779 21.9321 21.2742 21.6058 21.2924 21.555V21.5442C22.0609 21.0076 22.9418 20.5726 23.6306 19.1261C23.8337 18.5714 23.8989 18.2379 23.6959 17.386C23.6161 17.0597 23.5146 16.8059 23.2971 16.5739H23.3044C23.4349 16.5123 23.7757 16.7624 23.83 16.6102C23.7467 16.1969 23.4675 15.6495 23.1594 15.3667C22.8838 15.1129 22.5793 15.0876 22.3328 15.3159C22.05 15.4755 21.992 16.041 22.1262 16.534C22.2784 16.9038 22.6881 16.9691 22.9781 17.7195C22.9854 17.7703 23.076 18.2814 22.931 18.4917C22.8077 18.8615 21.2815 20.0651 21.1727 20.1376L21.1618 20.1448L21.1546 20.1521H21.1473H21.1401V20.1412C21.1328 20.1122 21.1401 20.0324 21.1401 19.9128C21.1292 19.688 21.2235 19.1769 21.2126 19.0862V19.079C20.7051 19.4053 20.5347 20.4022 20.444 20.6995C19.1643 21.5804 17.7142 22.2366 16.8768 23.1284C16.4417 23.8172 19.8785 22.3526 20.2773 22.175L20.2882 22.1858C20.3679 22.2692 20.3715 22.5592 20.5999 22.8239C20.9625 23.306 21.7165 23.6033 22.4561 23.4184C23.6959 22.9725 24.4137 22.1278 25.1388 21.1889C25.2403 21.0439 25.4034 20.9206 25.5557 21.0366C26.0523 22.1532 27.4952 22.9508 29.355 23.0305C29.79 22.5085 29.5833 22.2511 29.4093 22.1423C29.3549 22.1061 28.4849 21.7653 28.3471 21.4282C28.2637 21.1164 28.4704 20.8372 28.8837 20.6306C30.08 20.4856 31.2546 20.3224 32.3929 19.9563C32.4038 19.572 32.6286 19.0028 32.7808 18.7527C32.8896 18.5823 32.9512 18.5642 32.9766 18.5424V18.5352H32.9838V18.5243V18.4881L32.7881 18.372L28.9707 18.3575C28.9235 18.3394 28.8909 18.3213 28.8692 18.3032L28.8619 18.2923C28.8619 18.2923 28.8547 18.2923 28.8547 18.285C28.8547 18.2778 28.8474 18.2778 28.8474 18.2778V18.2742V18.2669V18.2597L28.8547 18.2488C28.8728 18.227 28.9199 18.2017 28.9743 18.1763C29.8879 18.0566 31.5047 17.792 31.6135 16.2368C31.5954 15.4247 31.2655 14.8954 30.2721 14.7504C29.5398 14.8048 29.0178 15.5117 29.1012 16.2875C29.0649 16.4942 29.1737 16.9038 28.9562 16.9509C27.5568 17.0815 26.027 17.9588 25.9762 18.5896H25.969H25.9617H25.9544C25.9544 18.5968 25.9436 18.5968 25.9436 18.5968H25.9291H25.9218H25.9073C25.8167 18.5678 25.7007 18.4156 25.7188 18.2089C25.6644 17.1213 25.3091 15.8887 24.7581 14.9462C24.5587 14.7468 24.4681 14.667 24.4173 14.6561H24.4065H24.3956H24.3847ZM28.039 15.2289C27.9665 15.2434 27.8831 15.3087 27.8577 15.4175C27.8396 15.49 27.894 15.606 27.8287 15.6422C27.7925 15.6785 27.6474 15.6567 27.6547 15.461C27.6547 15.3993 27.6076 15.3304 27.5822 15.2906C27.5532 15.2724 27.5351 15.2688 27.4879 15.2688C27.4263 15.2688 27.4227 15.2833 27.3901 15.3341C27.3719 15.3848 27.3538 15.4428 27.3538 15.4972C27.3466 15.5697 27.3175 15.5915 27.2704 15.5987C27.2124 15.5987 27.2269 15.6096 27.1798 15.5806C27.1508 15.5516 27.1145 15.5371 27.1145 15.4863C27.1145 15.432 27.1037 15.3413 27.0892 15.3051C27.0638 15.2797 27.0239 15.2688 26.9804 15.2543C26.7375 15.2543 26.7266 15.5262 26.7375 15.6313C26.7194 15.6495 26.7085 16.1389 27.0348 16.2766C27.4698 16.4869 28.5211 16.3636 28.2674 15.6857C28.2674 15.6241 28.2492 15.4138 28.2456 15.3594C28.1985 15.2507 28.1151 15.2144 28.0354 15.2253L28.039 15.2289ZM42.7757 15.8344H42.7394C42.7394 15.8344 40.702 17.2845 40.6549 17.3352C40.4519 17.5165 40.5534 18.1437 40.6549 18.0712C40.7999 18.1255 42.8482 16.7371 42.8083 16.5739C42.899 16.5812 42.9425 15.8597 42.7721 15.8307L42.7757 15.8344ZM29.964 16.0519C30.0438 16.041 30.1525 16.07 30.254 16.1244C30.4099 16.2186 30.5078 16.3491 30.4897 16.4507V16.4652C30.4824 16.4652 30.4824 16.4652 30.4824 16.4724V16.4797C30.4824 16.4797 30.4752 16.4797 30.4752 16.4869C30.4752 16.4942 30.4643 16.5014 30.457 16.5087C30.3845 16.5812 30.2178 16.5667 30.0583 16.4724C29.906 16.389 29.8154 16.2549 29.8226 16.1606V16.1498L29.8407 16.1135C29.8407 16.1135 29.8407 16.1063 29.848 16.1026L29.8661 16.0809C29.8915 16.0628 29.9241 16.0446 29.964 16.0446V16.0519ZM12.1349 16.4144C11.0836 16.4362 9.5356 17.7993 9.49573 18.5533L12.831 16.9582C12.6497 16.6827 12.8201 16.4362 12.1349 16.4144ZM15.5536 16.8857C15.6551 16.8929 15.7638 16.9437 15.8218 17.0887C15.8726 17.2228 15.8218 17.3606 15.7602 17.4295V17.4404C15.7094 17.4984 15.5572 17.4766 15.4448 17.4766C15.3107 17.4694 15.2454 17.4476 15.1656 17.3388C15.1221 17.212 15.2382 17.0923 15.2925 17.0053L15.3179 16.9691C15.3542 16.9328 15.4267 16.9038 15.4992 16.8966L15.5463 16.8893L15.5536 16.8857ZM42.3805 17.3098C42.1884 17.3316 42.0108 17.5092 42.0905 17.792C42.0398 17.9588 42.3443 18.5424 42.4277 18.8506C42.5002 19.0681 42.3334 19.6953 42.4821 19.7569C42.6198 19.8294 42.9787 19.3944 42.9678 18.8361C43.0041 18.5461 42.8663 17.4947 42.5074 17.3207C42.4639 17.3098 42.424 17.3062 42.3805 17.3098ZM19.5993 18.3394C19.4326 18.3503 19.284 18.4373 19.3528 18.6729C19.342 18.8397 19.8241 19.0463 19.8495 19.4343C19.9147 19.601 19.7407 20.1231 19.8857 20.1666C20.0163 20.2209 20.1975 19.804 20.2664 19.427C20.3027 19.2167 20.0996 18.4844 19.7589 18.3503C19.7045 18.3358 19.6501 18.3322 19.5957 18.3358L19.5993 18.3394ZM26.4149 19.2675H26.4584C26.8861 19.3835 27.5097 19.398 28.0535 19.4488C28.4994 19.485 28.7169 19.8258 28.3072 19.9744C27.894 20.1122 27.4988 20.2282 27.4988 20.8155C27.5496 21.1055 27.5351 21.2578 27.4916 21.323C27.4916 21.3339 27.4771 21.3448 27.4771 21.3448C27.4771 21.3448 27.4771 21.352 27.4698 21.352V21.3593H27.4589L27.4336 21.3701H27.4154C27.3175 21.3883 27.1762 21.2976 27.071 21.2396C26.8173 21.0584 26.1103 20.6233 26.0088 19.6808C25.9943 19.4633 26.1538 19.282 26.4076 19.2639L26.4149 19.2675ZM9.76037 19.9925C9.73499 19.9925 9.68786 20.0723 9.61536 20.1629C8.98456 21.1599 8.92656 22.6499 9.27458 23.0994C9.45585 23.306 9.76037 23.4003 9.98514 23.335C10.3839 23.1647 10.5543 22.3635 10.4564 22.0734C10.3295 21.8668 10.2244 21.8342 10.0939 22.0082C9.81475 22.5701 9.69511 22.1822 9.67699 21.8632C9.63348 21.2723 9.69149 20.7212 9.75674 20.2862C9.793 20.0687 9.793 19.9853 9.75674 19.9853L9.76037 19.9925ZM31.1386 21.3049C31.0915 21.3049 31.0443 21.3121 30.9936 21.3411C30.9827 21.3411 30.544 21.6312 30.4027 21.8414C30.3156 21.9067 30.3301 21.9611 30.3519 22.0771C30.4172 22.233 30.5332 22.1858 30.6709 22.1133C30.8522 22.0843 30.9356 22.204 30.9247 22.4178C30.8413 22.6897 30.9609 22.7876 30.9609 22.8058C30.9609 22.8203 31.1313 22.9689 31.3343 22.8529C31.7585 22.6897 32.0231 22.5266 32.6213 22.3997C32.7772 22.3997 32.7663 21.9792 32.5198 21.9647C32.1935 21.9792 31.9035 22.0009 31.5772 22.2547C31.3779 22.2982 31.3452 22.175 31.2981 22.0662C31.2473 21.7979 31.4141 21.6094 31.3779 21.4064C31.3851 21.4173 31.2763 21.3194 31.135 21.3121L31.1386 21.3049ZM44.8276 21.8124L44.5376 21.8414C44.4071 21.8668 44.3636 21.9248 44.3382 22.0843C44.3491 22.32 44.4941 22.3091 44.6463 22.4033C44.7333 22.5121 44.7913 22.6136 44.6391 22.8021C44.4941 22.929 44.3962 23.0015 44.2512 23.1284C44.1896 23.2444 44.1424 23.4184 44.3527 23.4764C44.7333 23.5852 45.6143 23.0124 45.6143 23.0051C45.7593 22.8964 45.7085 22.6897 45.6977 22.6897C45.6107 22.5955 45.4221 22.6535 45.2989 22.6354C45.2373 22.6354 45.0451 22.6064 45.1321 22.4324C45.2119 22.3236 45.2409 22.262 45.2953 22.1278C45.3496 21.9973 45.2953 21.9103 45.085 21.8378C44.9762 21.8161 44.9037 21.8088 44.8204 21.8124H44.8276Z" fill="white"/>
<path d="M44.7117 28.8883H44.1792H40.9841V28.1672C40.9841 27.7687 40.7457 27.446 40.4516 27.446C40.1574 27.446 39.919 27.7685 39.919 28.1672V28.8883H11.6953C12.7603 30.3304 14.8903 31.0518 16.488 31.0518C17.6338 31.0518 31.9259 31.0518 39.919 31.0518V32.4939C39.919 32.8924 40.1574 33.2151 40.4516 33.2151H44.7117C45.5927 33.2151 46.3094 32.2446 46.3094 31.0516C46.3094 29.8586 45.5927 28.8883 44.7117 28.8883ZM44.7117 31.7728H40.984V31.0516C43.5503 31.0516 45.2441 31.0516 45.2441 31.0516L45.1485 30.6635C45.2039 30.777 45.2441 30.9053 45.2441 31.0516C45.2441 31.4497 45.0052 31.7728 44.7117 31.7728Z" fill="white"/>
</g>
<defs>
<clipPath id="clip0_194_2253">
<rect width="58" height="43.5" fill="white"/>
</clipPath>
</defs>
</svg>
