<svg width="22" height="22" viewBox="0 0 22 22" fill="none" xmlns="http://www.w3.org/2000/svg">
<path d="M11 22C17.0751 22 22 17.0751 22 11C22 4.92487 17.0751 0 11 0C4.92487 0 0 4.92487 0 11C0 17.0751 4.92487 22 11 22Z" fill="#438611"/>
<path d="M10.8891 9.05693C10.8524 8.72693 11.0357 8.39693 11.3657 8.47026C11.6224 8.50693 11.9157 8.76359 11.7691 9.02026C11.5491 9.42359 10.9624 9.42359 10.5957 9.64359C10.6324 9.86359 11.6957 9.60693 11.8791 9.60693C12.0624 9.60693 12.2457 9.68026 12.1357 9.90026C12.0257 10.1203 11.6591 10.1203 11.4391 10.1569C11.2191 10.1936 10.8524 10.1936 10.7424 10.3769C10.5224 10.6703 10.9624 10.7069 11.1091 10.7803C11.4757 10.9636 10.8891 11.1469 10.7424 11.1103C10.1924 11.0003 10.0824 10.7069 9.7524 10.3403C9.4224 10.7803 8.39573 11.7703 8.17573 10.7436C7.80906 10.8903 7.4424 11.0736 7.03906 11.1103C7.2224 10.8536 7.58906 10.7436 7.8824 10.5969C8.24906 10.4136 8.24906 10.0836 8.46906 9.79026C8.5424 9.90026 8.46906 10.0469 8.50573 10.1936C8.79906 10.0469 9.16573 9.75359 9.01906 9.38693C9.01906 9.35026 8.57906 8.47026 8.94573 8.61693C9.27573 8.76359 9.16573 9.09359 9.23906 9.35026C9.34906 9.82693 9.12906 10.0836 8.7624 10.3769C8.61573 10.4869 8.2124 10.9269 8.68906 10.9269C9.01906 10.9269 9.3124 10.5603 9.49573 10.3403C9.71573 10.0469 9.6424 9.75359 9.49573 9.42359C9.38573 9.16693 9.12906 8.61693 9.45906 8.43359C9.71573 8.83693 9.82573 9.31359 9.93573 9.79026C10.0091 10.1936 10.0824 10.5969 10.5224 10.7069C10.4857 10.4136 10.6691 10.1936 10.9257 10.0836C10.7424 9.93693 9.71573 10.1203 10.1191 9.57026C10.1557 9.31359 10.8891 9.20359 10.8891 9.05693Z" fill="white"/>
<path d="M5.27749 10.4129C5.46082 10.9263 6.08416 10.7429 6.45082 10.5963C7.03749 10.3029 7.03749 9.86292 7.03749 9.27625C6.81749 9.38625 6.85416 9.78959 6.78082 9.97292C6.63416 10.2663 6.15749 10.5229 5.82749 10.4863C5.35082 10.4129 5.13082 9.60625 5.49749 9.31292C5.57082 9.56959 5.38749 10.1196 5.82749 10.1563C6.15749 10.1929 6.81749 9.78959 6.70749 9.42292C6.26749 9.56959 6.01082 9.42292 6.15749 8.94625C6.26749 8.50625 6.70749 8.83625 6.89082 9.05625C7.58749 8.65292 6.34082 7.11292 7.07416 6.70959C7.22082 6.96625 7.44082 7.29625 7.25749 7.55292C7.03749 7.84625 7.25749 8.46959 7.29416 8.79959C7.66082 8.46959 7.36749 9.05625 7.66082 9.09292C7.84416 9.12959 7.91749 8.65292 8.02749 8.65292C8.06416 8.76292 8.06416 9.09292 8.24749 9.05625C8.46749 8.98292 8.21082 8.68959 8.43082 8.61625C8.50416 8.79959 8.46749 9.34959 8.21082 9.31292C7.99082 9.27625 8.02749 9.12959 7.77082 9.27625C7.55082 9.38625 7.47749 9.27625 7.33082 9.16625C7.29416 9.60625 7.44082 10.0829 7.18416 10.4863C6.96416 10.8163 6.52416 10.9996 6.15749 11.0729C5.20416 11.2563 4.94749 10.3029 5.27749 9.53292C5.35082 9.75292 5.20416 10.1563 5.27749 10.4129ZM14.2242 10.5963C14.4075 11.0729 14.7742 10.0829 14.8842 9.93625C15.1775 9.49625 15.6175 10.6329 15.8008 9.89959C15.9108 9.42292 15.7642 8.94625 15.7275 8.46959C15.6908 8.13959 15.5808 7.84625 15.3608 7.58959C15.1408 7.29625 14.9208 7.03959 15.0308 6.67292C15.3975 6.81959 15.3975 7.11292 15.5808 7.40625C15.6175 7.18625 15.4708 6.89292 15.6175 6.70959C15.8008 6.45292 15.9475 7.14959 15.9475 7.22292C15.9842 7.40625 15.8008 7.47959 15.9108 7.77292C15.9842 7.99292 16.1308 8.21292 16.2775 8.39625C16.2408 8.17625 15.9108 6.67292 16.2775 6.67292C16.3875 6.67292 16.4975 7.11292 16.4975 7.18625C16.5708 7.40625 16.4242 7.58959 16.4242 7.84625C16.3875 8.28625 16.4608 8.79959 16.7542 9.12959C16.9008 9.31292 17.4508 9.97292 17.1575 10.1929C16.9375 9.93625 16.7908 9.64292 16.6075 9.38625C16.6075 9.67959 16.6808 10.0096 16.5342 10.2296C16.3875 10.1563 16.4608 9.67959 16.4608 9.56959C16.4608 9.16625 16.2042 8.83625 15.9842 8.50625C15.9108 9.05625 16.3508 10.0829 15.8375 10.4863C15.5075 10.7796 15.0675 10.1196 14.9575 10.3763C14.8475 10.5596 14.5908 11.2196 14.2975 11.1463C13.9308 11.0729 13.6742 10.0463 14.0775 9.93625C14.1142 10.1196 14.1142 10.3763 14.2242 10.5963Z" fill="white"/>
<path d="M6.37823 8.10321C6.6349 8.13988 6.37823 7.25988 6.37823 7.11321C6.4149 6.96654 6.5249 6.89321 6.59823 7.03988C6.70823 7.25988 6.70823 7.51654 6.7449 7.73654C6.7449 7.91988 6.78157 8.13988 6.6349 8.28654C6.4149 8.50654 6.12157 8.39654 6.01157 8.10321C5.49823 8.54321 6.15823 9.31321 5.71823 9.75321C5.6449 9.34988 5.71823 8.90988 5.57157 8.54321C5.49823 8.35988 5.16823 8.43321 5.13157 8.10321C5.13157 7.95654 5.24157 7.55321 5.0949 7.44321C5.02157 7.58988 4.94823 8.72654 4.58157 8.39654C4.28823 8.17654 4.36157 7.44321 4.47157 7.14988C4.69157 7.25988 4.4349 8.06654 4.72823 8.10321C4.8749 8.13988 4.91157 7.51654 4.94823 7.40654C5.05823 7.22321 5.4249 6.70988 5.35157 7.22321C5.3149 7.44321 5.13157 8.13988 5.57157 8.10321C5.5349 7.73654 5.49823 7.36988 5.4249 7.00321C5.38823 6.81988 5.49823 6.45321 5.6449 6.78321C5.7549 7.00321 5.68157 7.11321 5.6449 7.33321C5.60823 7.58988 5.71823 7.84654 5.7549 8.06654C5.9749 7.88321 5.68157 7.18654 5.8649 6.89321C6.3049 7.14988 5.82823 8.02988 6.37823 8.10321ZM11.1082 8.17654C10.9249 8.43321 10.5949 8.21321 10.4482 8.02988C10.2649 8.24988 9.89823 8.61654 9.6049 8.32321C9.3849 8.10321 9.64157 7.69988 9.45823 7.51654C9.34823 7.69988 9.1649 8.57988 8.8349 8.17654C8.65157 7.95654 8.3949 7.18654 8.79823 7.00321C8.76157 7.29654 8.68823 7.62654 8.87157 7.88321C9.0549 8.13988 9.23823 7.47988 9.31157 7.33321C9.42157 7.07654 9.78823 6.63654 9.7149 7.18654C9.67823 7.40654 9.6049 7.91988 9.8249 8.06654C9.97157 8.17654 10.1549 7.99321 10.2282 7.88321C10.3749 7.69988 10.3016 7.40654 10.2649 7.18654C10.2282 7.00321 10.1549 6.78321 10.2649 6.59988C10.4116 6.37988 10.5216 6.89321 10.5216 7.00321C10.5216 7.11321 10.6682 8.24988 10.9249 7.88321C11.1816 7.55321 10.4849 6.81988 10.9616 6.63654C11.1449 6.56321 11.4749 7.29654 11.1082 7.07654C11.2182 7.40654 11.3649 7.88321 11.1082 8.17654ZM12.5016 8.61654C12.5382 9.09321 12.9416 10.4132 12.3916 10.7065C12.3182 10.5599 12.3916 10.3399 12.4282 10.1565C12.4649 9.82654 12.3916 9.49654 12.3549 9.20321C12.2816 8.50654 12.2082 7.99321 11.7316 7.44321C11.6216 7.29654 11.4382 7.18654 11.4016 6.96654C11.4016 6.89321 11.3649 6.56321 11.5116 6.63654C11.6216 6.67321 12.2449 7.22321 11.9149 7.22321C11.9516 7.29654 12.0982 7.58988 12.1716 7.58988C12.1716 7.40654 11.9516 6.85654 12.1716 6.74654C12.3549 6.63654 12.5749 7.33321 12.5016 7.47988C12.4282 7.66321 12.4282 7.77321 12.5016 8.02988C12.5749 8.32321 12.7582 8.57988 12.9049 8.83654C13.1249 9.20321 13.5649 9.71654 13.4549 10.1932C13.2349 10.0832 13.0882 9.56988 12.9782 9.34988C12.9049 9.16654 12.8316 8.98321 12.7216 8.83654C12.6849 8.79988 12.4649 8.50654 12.5016 8.68988V8.61654ZM17.5982 9.31321C17.6349 10.0832 17.3782 11.0732 16.4249 11.0732C16.4249 10.8532 16.9016 10.6332 17.0482 10.5232C17.4149 10.2299 17.3782 9.67988 17.3416 9.27654C17.3049 8.72654 17.2682 8.17654 17.1582 7.62654C17.1216 7.29654 16.9382 6.81988 17.2316 6.59988C17.4149 6.74654 17.6716 7.14988 17.5616 7.29654C17.3782 7.51654 17.5616 9.16654 17.5982 9.31321Z" fill="white"/>
<path d="M12.9045 10.9629C13.8578 10.4129 13.5645 9.23955 13.4911 8.32288C13.4545 8.06622 13.4545 7.80955 13.4178 7.55288C13.4178 7.36955 13.2711 7.11288 13.3445 6.92955C13.5278 6.45288 13.6745 6.89288 13.7111 7.18622C13.7478 7.36955 13.6011 7.40622 13.6378 7.55288C13.6745 7.84622 13.6745 8.13955 13.7111 8.43288C13.7478 8.90955 13.8211 9.38622 13.7845 9.82622C13.7111 10.5229 13.3445 11.2929 12.5011 11.1462C12.5378 11.0729 12.7945 11.0362 12.9045 10.9629ZM14.4445 9.12955C14.4811 9.49622 14.6278 10.1562 14.4445 10.4862C14.2978 10.7062 14.2978 10.3396 14.2611 10.3029C14.2245 10.0096 14.2245 9.71622 14.2245 9.38622C14.1511 8.57955 13.8945 7.77288 13.8945 7.00288C13.8945 6.01288 14.7378 7.55288 14.2611 7.47955C14.2978 8.02955 14.3711 8.57955 14.4445 9.12955ZM8.46781 7.25955C8.54115 7.44288 7.62448 7.91955 7.51448 7.91955C7.47781 7.73622 7.91781 7.47955 8.02781 7.40622C8.13781 7.29622 8.21115 7.29622 8.17448 7.14955C8.10115 7.00288 8.13781 6.74622 8.32115 6.67288C8.68781 6.56288 8.43115 7.11288 8.46781 7.25955ZM4.69115 10.5229C4.69115 10.8162 4.80115 10.6696 4.94781 10.5962C5.02115 10.7429 4.83781 11.1462 4.65448 10.9629C4.39781 10.7062 4.61781 10.1196 4.72781 9.86288C4.80115 10.0462 4.65448 10.3396 4.69115 10.5229ZM15.0311 8.24955C15.0678 8.10288 14.9578 7.95622 15.0678 7.80955C15.2145 7.62622 15.3611 7.84622 15.2878 7.91955C15.2145 7.99288 15.1045 7.84622 15.1045 8.06622C15.1045 8.17622 15.1778 8.39622 15.0678 8.50622C14.9945 8.46955 14.6645 7.99288 14.7011 7.91955C14.8478 7.77288 14.9945 8.21288 15.0311 8.24955ZM5.46115 8.87288C5.38781 9.01955 4.54448 9.49622 4.50781 9.38622C4.50781 9.27622 5.57115 8.65288 5.46115 8.87288ZM11.6945 10.7429C11.5845 11.0729 12.0611 10.7796 12.1711 10.7429C12.0245 10.9996 11.5111 11.2196 11.5845 10.7429C11.5478 10.7429 11.4745 10.7796 11.4378 10.7796C11.3645 10.7062 11.8045 10.4129 11.6945 10.7429ZM15.6911 10.6329C15.8011 10.6329 15.9845 10.9629 15.8745 11.0362C15.8011 11.1096 15.4711 11.1462 15.6545 10.9996C15.8745 10.7796 15.6911 10.6329 15.6911 10.6329ZM10.5211 8.76288C10.5578 8.68955 10.5578 8.57955 10.5945 8.50622C10.9611 8.79955 10.0078 9.27622 10.1911 8.57955C10.2645 8.65288 10.2645 8.76288 10.3378 8.79955C10.3378 8.72622 10.3745 8.61622 10.3745 8.54288C10.4478 8.61622 10.4478 8.72622 10.5211 8.76288ZM14.8111 9.23955C14.7011 9.09288 15.3611 8.68955 15.4711 8.61622C15.5445 8.72622 15.0311 9.12955 14.8111 9.23955ZM16.8645 7.77288C16.7911 7.55288 16.5711 7.11288 16.7911 6.92955C16.9378 7.03955 17.0111 7.58955 16.8645 7.77288ZM12.8678 7.03955C12.8311 6.96622 12.7211 6.89288 12.7211 6.78288C12.7578 6.63622 12.8311 6.67288 12.9045 6.74622C13.0145 6.89288 13.0878 7.29622 12.9045 7.40622C12.9045 7.29622 12.9411 7.14955 12.8678 7.03955ZM8.39448 8.02955C8.39448 8.24955 8.02781 8.46955 7.99115 8.17622C7.95448 8.06622 8.13781 7.66288 8.21115 7.77288C8.06448 8.10288 8.06448 8.21288 8.39448 8.02955Z" fill="white"/>
<path d="M12.9805 7.62687C13.1271 7.99354 13.0538 7.66354 13.2005 7.59021C13.4571 8.06688 12.6505 7.95687 12.8338 7.66354C12.8705 7.70021 12.9071 7.77354 12.9071 7.81021C12.9438 7.77354 12.9438 7.70021 12.9805 7.62687ZM15.3271 9.31354C15.1438 9.16687 15.3638 8.98354 15.4738 9.16688C15.5471 9.27688 15.5471 9.57021 15.4005 9.64354C15.4005 9.53354 15.4371 9.38687 15.3271 9.31354ZM7.81048 10.1202C7.81048 10.0469 7.77381 9.49688 7.88381 9.57021C8.03048 9.64354 7.99381 10.0469 7.81048 10.1202ZM6.27048 6.67354C6.30715 6.78354 6.34381 6.93021 6.41715 6.74687C6.71048 7.07687 5.68381 6.96688 6.05048 6.63688C6.05048 6.67354 6.12381 6.89354 6.27048 6.67354ZM10.0105 7.48021C10.0105 7.33354 9.79048 6.71021 9.97381 6.71021C10.1938 6.74687 10.1571 7.29687 10.0105 7.48021ZM4.87715 7.15021C4.76715 7.11354 4.95048 6.93021 4.87715 6.78354C4.80381 6.82021 4.73048 6.71021 4.80381 6.63688C5.09715 6.41688 4.98715 7.15021 4.87715 7.15021ZM14.3738 14.5935L14.2271 14.1535L14.0805 14.5935H6.05048C6.05048 14.5935 6.12381 15.2535 6.93048 15.2535H14.0438V15.7669H15.9871V14.5935H14.3738ZM15.6205 15.4735H14.3005V15.1069H15.6205V15.4735Z" fill="white"/>
</svg>
