<svg width="24" height="24" viewBox="0 0 24 24" fill="none" xmlns="http://www.w3.org/2000/svg">
<path fill-rule="evenodd" clip-rule="evenodd" d="M12.0195 7.75C9.67232 7.75 7.76953 9.65279 7.76953 12C7.76953 14.3472 9.67232 16.25 12.0195 16.25C14.3667 16.25 16.2695 14.3472 16.2695 12C16.2695 9.65279 14.3667 7.75 12.0195 7.75ZM9.26953 12C9.26953 10.4812 10.5007 9.25 12.0195 9.25C13.5383 9.25 14.7695 10.4812 14.7695 12C14.7695 13.5188 13.5383 14.75 12.0195 14.75C10.5007 14.75 9.26953 13.5188 9.26953 12Z" fill="#316BFF"/>
<path fill-rule="evenodd" clip-rule="evenodd" d="M12.6553 1.25782H11.4698C11.1531 1.25778 10.8555 1.25774 10.6061 1.28627C10.3281 1.31807 10.0359 1.3916 9.76314 1.58855C9.49054 1.78542 9.32874 2.0397 9.21094 2.29341C9.10514 2.52129 9.01112 2.80401 8.91098 3.10516L8.89985 3.13861L8.57209 4.11748C8.47737 4.35626 8.31165 4.55976 8.09775 4.7005L7.79536 4.87498C7.54225 5.00091 7.25403 5.03679 6.97801 4.97683L5.77769 4.63874L5.74242 4.62873C5.41441 4.53561 5.10768 4.44852 4.84354 4.40659C4.54979 4.35995 4.22843 4.354 3.89612 4.48915C3.56393 4.62426 3.33789 4.85276 3.15992 5.09105C2.99979 5.30544 2.8405 5.58196 2.67003 5.87789L2.14002 6.79771C1.98032 7.07478 1.83046 7.33478 1.72993 7.56693C1.61799 7.82544 1.53542 8.11728 1.57078 8.45386C1.60614 8.79046 1.74758 9.05876 1.91085 9.28833C2.05745 9.49447 2.25808 9.71754 2.47185 9.95521L2.49427 9.98013L2.49558 9.9816L3.50672 11.1121C3.6331 11.2833 3.76522 11.6555 3.76522 12.0077C3.76522 12.3602 3.63313 12.7322 3.50674 12.9035L2.49559 14.0339L2.49427 14.0354L2.47185 14.0603C2.25809 14.298 2.05745 14.5211 1.91085 14.7272C1.74758 14.9568 1.60614 15.2251 1.57078 15.5617C1.53542 15.8983 1.618 16.1901 1.72993 16.4486C1.83046 16.6808 1.98032 16.9408 2.14002 17.2178L2.67003 18.1377C2.84049 18.4336 2.99978 18.7101 3.15991 18.9245C3.33788 19.1628 3.56393 19.3913 3.89613 19.5264C4.22844 19.6615 4.54981 19.6556 4.84357 19.6089C5.1077 19.567 5.41444 19.4799 5.74246 19.3868L5.77713 19.3769L6.97796 19.0387C7.25404 18.9787 7.54234 19.0146 7.79548 19.1406L8.0978 19.3151C8.31166 19.4558 8.47735 19.6593 8.57206 19.898L8.89985 20.877L8.91098 20.9105C9.01112 21.2116 9.10514 21.4943 9.21094 21.7222C9.32874 21.9759 9.49053 22.2302 9.76314 22.4271C10.0359 22.624 10.3282 22.6976 10.6061 22.7294C10.8555 22.7579 11.1531 22.7579 11.4698 22.7578H12.6552C12.9719 22.7579 13.2696 22.7579 13.519 22.7294C13.7969 22.6976 14.0892 22.624 14.3619 22.4271C14.6345 22.2302 14.7963 21.9759 14.9141 21.7222C15.0199 21.4944 15.1139 21.2117 15.2141 20.9105L15.2252 20.877L15.553 19.898C15.6477 19.6593 15.8134 19.4558 16.0273 19.3151L16.3296 19.1406C16.5827 19.0146 16.871 18.9787 17.1471 19.0387L18.348 19.3769L18.3826 19.3868C18.7106 19.4799 19.0174 19.567 19.2815 19.6089C19.5753 19.6556 19.8966 19.6615 20.2289 19.5264C20.5612 19.3913 20.7872 19.1628 20.9652 18.9245C21.1253 18.7101 21.2846 18.4336 21.4551 18.1377L21.985 17.2179C22.1447 16.9408 22.2946 16.6808 22.3951 16.4486C22.5071 16.1901 22.5897 15.8983 22.5543 15.5617C22.5189 15.2251 22.3775 14.9568 22.2142 14.7272C22.0676 14.5211 21.867 14.298 21.6533 14.0604L21.6308 14.0354L20.6183 12.9035C20.492 12.7323 20.3599 12.3602 20.3599 12.0077C20.3599 11.6555 20.492 11.2833 20.6184 11.112L21.6295 9.9816L21.6308 9.98013L21.6532 9.95521C21.867 9.71754 22.0676 9.49447 22.2142 9.28833C22.3775 9.05876 22.5189 8.79046 22.5543 8.45385C22.5897 8.11728 22.5071 7.82544 22.3951 7.56693C22.2946 7.33479 22.1448 7.0748 21.9851 6.79775L21.455 5.87785C21.2846 5.58194 21.1253 5.30543 20.9652 5.09105C20.7872 4.85276 20.5611 4.62426 20.229 4.48915C19.8967 4.354 19.5753 4.35995 19.2815 4.40659C19.0174 4.44852 18.7107 4.53561 18.3827 4.62874L18.348 4.63858L17.1471 4.97683C16.871 5.03679 16.5828 5.00091 16.3297 4.87498L16.0273 4.7005C15.8134 4.55976 15.6477 4.35625 15.553 4.11747L15.2248 3.13723L15.2141 3.10512C15.1139 2.80398 15.0199 2.52128 14.9141 2.29341C14.7963 2.0397 14.6345 1.78542 14.3619 1.58855C14.0892 1.3916 13.7969 1.31807 13.519 1.28627C13.2696 1.25774 12.972 1.25778 12.6553 1.25782ZM10.6405 2.80531L10.6413 2.8046C10.6413 2.8046 10.6464 2.80203 10.6542 2.79942C10.6712 2.79379 10.7072 2.78449 10.7766 2.77655C10.9304 2.75896 11.1407 2.75782 11.5052 2.75782H12.6199C12.9844 2.75782 13.1947 2.75896 13.3485 2.77655C13.4179 2.78449 13.4538 2.79379 13.4709 2.79942C13.4787 2.80203 13.4837 2.8046 13.4837 2.8046L13.4846 2.80531C13.4846 2.80531 13.488 2.80875 13.493 2.81549C13.5038 2.83007 13.5241 2.8615 13.5536 2.92509C13.619 3.06598 13.6867 3.26573 13.8019 3.61212L14.1415 4.62623L14.1473 4.64134C14.3574 5.1892 14.7372 5.65557 15.2312 5.97199L15.2458 5.98136L15.6136 6.19355L15.6298 6.2019C16.2061 6.49797 16.8683 6.58058 17.4996 6.435L17.5171 6.43097L18.7561 6.082C19.1328 5.97509 19.352 5.91419 19.5167 5.88803C19.5913 5.8762 19.6311 5.8758 19.6501 5.87695C19.6588 5.87748 19.6632 5.87844 19.6632 5.87844L19.6645 5.87894C19.6645 5.87894 19.6684 5.88141 19.6751 5.88718C19.6896 5.89973 19.7181 5.928 19.7634 5.98864C19.8634 6.12263 19.9783 6.31955 20.1741 6.65925L20.6677 7.51585C20.8513 7.83451 20.9564 8.01928 21.0187 8.16298C21.0467 8.22784 21.0568 8.26425 21.0605 8.28229C21.0622 8.29064 21.0625 8.29566 21.0625 8.29566L21.0625 8.29714L21.0622 8.29856C21.0622 8.29856 21.0609 8.30337 21.0575 8.31116C21.0501 8.32798 21.0328 8.36145 20.9918 8.419C20.9011 8.54652 20.7599 8.70526 20.5141 8.97865L20.5128 8.98012L19.4665 10.1499L19.4522 10.1679C19.0778 10.6419 18.8599 11.3703 18.8599 12.0077C18.8599 12.6452 19.0777 13.3735 19.4522 13.8476L19.4664 13.8656L20.5141 15.0369C20.7599 15.3103 20.9011 15.469 20.9918 15.5966C21.0328 15.6541 21.0501 15.6876 21.0575 15.7044C21.0609 15.7122 21.0622 15.717 21.0622 15.717L21.0625 15.7184L21.0625 15.7199C21.0625 15.7199 21.0622 15.7249 21.0605 15.7333C21.0568 15.7513 21.0467 15.7877 21.0187 15.8526C20.9564 15.9963 20.8513 16.1811 20.6677 16.4997L20.1741 17.3563C19.9784 17.696 19.8634 17.8929 19.7634 18.0269C19.7181 18.0875 19.6896 18.1158 19.6751 18.1284C19.6684 18.1341 19.6645 18.1366 19.6645 18.1366L19.6632 18.1371C19.6632 18.1371 19.6588 18.1381 19.6501 18.1386C19.6311 18.1397 19.5913 18.1393 19.5168 18.1275C19.352 18.1013 19.1328 18.0404 18.7561 17.9335L17.5172 17.5845L17.4997 17.5805C16.8683 17.4349 16.2059 17.5176 15.6296 17.8137L15.6133 17.8221L15.2456 18.0343L15.231 18.0437C14.7371 18.3601 14.3574 18.8264 14.1473 19.3742L14.1415 19.3893L13.8024 20.4021L13.8019 20.4035C13.6867 20.7499 13.619 20.9497 13.5536 21.0906C13.5241 21.1541 13.5038 21.1856 13.493 21.2001C13.4879 21.2069 13.4846 21.2103 13.4846 21.2103L13.4829 21.2115C13.4829 21.2115 13.4815 21.2122 13.4788 21.2133C13.4768 21.2141 13.4742 21.2151 13.4709 21.2162C13.4538 21.2218 13.4179 21.2311 13.3485 21.2391C13.1947 21.2567 12.9844 21.2578 12.6199 21.2578H11.5052C11.1407 21.2578 10.9304 21.2567 10.7766 21.2391C10.7072 21.2311 10.6712 21.2218 10.6542 21.2162C10.6464 21.2136 10.6413 21.211 10.6413 21.211L10.6405 21.2103C10.6405 21.2103 10.6371 21.2069 10.6321 21.2001C10.6213 21.1856 10.601 21.1541 10.5715 21.0906C10.506 20.9497 10.4384 20.7499 10.3232 20.4035L9.98357 19.3893L9.97777 19.3742C9.76767 18.8264 9.38802 18.3601 8.89408 18.0437L8.87945 18.0343L8.51175 17.8221L8.49551 17.8137C7.91919 17.5176 7.25679 17.4349 6.62541 17.5805L6.6079 17.5845L5.36902 17.9335C4.99228 18.0404 4.7731 18.1013 4.60833 18.1275C4.53381 18.1393 4.49393 18.1397 4.47496 18.1386C4.46624 18.1381 4.46183 18.1371 4.46183 18.1371L4.46062 18.1366C4.46062 18.1366 4.45668 18.1341 4.44999 18.1284C4.43544 18.1158 4.407 18.0875 4.36171 18.0269C4.26163 17.8929 4.14673 17.696 3.95099 17.3563L3.45742 16.4997C3.2738 16.1811 3.16865 15.9963 3.10643 15.8526C3.07834 15.7877 3.06827 15.7513 3.06457 15.7333C3.06286 15.7249 3.06254 15.7199 3.06254 15.7199L3.06257 15.7184L3.06284 15.717C3.06284 15.717 3.06419 15.7122 3.06759 15.7044C3.07494 15.6876 3.09232 15.6541 3.13325 15.5966C3.22394 15.469 3.36514 15.3103 3.61097 15.0369L3.61229 15.0354L4.65866 13.8656L4.67289 13.8476C5.04736 13.3735 5.26522 12.6452 5.26522 12.0077C5.26522 11.3703 5.04727 10.6419 4.67286 10.1679L4.65863 10.1499L3.61229 8.98011L3.61097 8.97865C3.36514 8.70526 3.22394 8.54652 3.13325 8.419C3.09232 8.36145 3.07493 8.32798 3.06759 8.31116C3.06419 8.30337 3.06284 8.29856 3.06284 8.29856L3.06257 8.29713L3.06254 8.29566C3.06254 8.29566 3.06286 8.29064 3.06457 8.28229C3.06827 8.26425 3.07834 8.22784 3.10642 8.16298C3.16865 8.01928 3.2738 7.83451 3.45742 7.51585L3.95101 6.65925C4.14675 6.31955 4.26165 6.12263 4.36172 5.98864C4.40701 5.928 4.43545 5.89973 4.44999 5.88718C4.45668 5.88141 4.46062 5.87894 4.46062 5.87894L4.46184 5.87844C4.46184 5.87844 4.46625 5.87748 4.47497 5.87695C4.49394 5.8758 4.53382 5.8762 4.60833 5.88803C4.7731 5.91419 4.99228 5.97509 5.36901 6.082L6.60796 6.43097L6.62547 6.435C7.25674 6.58058 7.919 6.49797 8.49525 6.2019L8.5115 6.19355L8.87925 5.98136L8.89389 5.97199C9.38793 5.65557 9.76766 5.1892 9.9778 4.64134L9.9836 4.62623L10.3232 3.61212C10.4384 3.26573 10.506 3.06598 10.5715 2.92509C10.601 2.8615 10.6213 2.83007 10.6321 2.81549C10.6371 2.80875 10.6405 2.80531 10.6405 2.80531Z" fill="#316BFF"/>
</svg>
