<svg width="23" height="24" viewBox="0 0 23 24" fill="none" xmlns="http://www.w3.org/2000/svg">
<path d="M10.5416 18.7087C10.5416 18.1794 10.9706 17.7503 11.4999 17.7503H11.5085C12.0378 17.7503 12.4669 18.1794 12.4669 18.7087C12.4669 19.2379 12.0378 19.667 11.5085 19.667H11.4999C10.9706 19.667 10.5416 19.2379 10.5416 18.7087Z" fill="#316BFF"/>
<path d="M10.5416 4.57324C10.1446 4.57324 9.82284 4.89504 9.82284 5.29199C9.82284 5.68895 10.1446 6.01074 10.5416 6.01074H12.4583C12.8552 6.01074 13.177 5.68895 13.177 5.29199C13.177 4.89504 12.8552 4.57324 12.4583 4.57324H10.5416Z" fill="#316BFF"/>
<path fill-rule="evenodd" clip-rule="evenodd" d="M11.4434 1.69824H11.5564C12.9766 1.69822 14.1208 1.6982 15.0205 1.82846C15.9585 1.96428 16.7344 2.25428 17.3435 2.91033C17.9457 3.55882 18.2054 4.372 18.3283 5.35586C18.4479 6.31378 18.4478 7.53654 18.4478 9.07522V14.9254C18.4478 16.4641 18.4479 17.6869 18.3283 18.6448C18.2054 19.6287 17.9457 20.4418 17.3435 21.0903C16.7344 21.7464 15.9585 22.0364 15.0205 22.1722C14.1208 22.3025 12.9766 22.3024 11.5565 22.3024H11.4434C10.0232 22.3024 8.87904 22.3025 7.97938 22.1722C7.04135 22.0364 6.26549 21.7464 5.6563 21.0903C5.05413 20.4418 4.7944 19.6287 4.67157 18.6448C4.55198 17.6869 4.55199 16.4641 4.552 14.9254V9.07526C4.55199 7.53657 4.55198 6.31379 4.67157 5.35586C4.7944 4.372 5.05413 3.55882 5.6563 2.91033C6.26549 2.25428 7.04135 1.96428 7.97938 1.82846C8.87904 1.6982 10.0232 1.69822 11.4434 1.69824ZM8.18537 3.25113C7.42711 3.36091 7.01274 3.56212 6.70969 3.88848C6.39961 4.22241 6.20323 4.69101 6.098 5.53393C5.99082 6.3924 5.9895 7.52526 5.9895 9.12533V14.8753C5.9895 16.4754 5.99082 17.6083 6.098 18.4667C6.20323 19.3096 6.39961 19.7782 6.70969 20.1122C7.01274 20.4385 7.42711 20.6397 8.18537 20.7495C8.97009 20.8631 10.0099 20.8649 11.4999 20.8649C12.99 20.8649 14.0297 20.8631 14.8145 20.7495C15.5727 20.6397 15.9871 20.4385 16.2901 20.1122C16.6002 19.7782 16.7966 19.3096 16.9018 18.4667C17.009 17.6083 17.0103 16.4754 17.0103 14.8753V9.12533C17.0103 7.52526 17.009 6.3924 16.9018 5.53393C16.7966 4.69101 16.6002 4.22241 16.2901 3.88848C15.9871 3.56212 15.5727 3.36091 14.8145 3.25113C14.0297 3.13751 12.99 3.13574 11.4999 3.13574C10.0099 3.13574 8.97009 3.13751 8.18537 3.25113Z" fill="#316BFF"/>
<g opacity="0.4">
<path d="M1.67376 9.32215C1.30376 9.18937 1.10858 8.78317 1.23746 8.41069C1.36726 8.03555 1.77658 7.83667 2.15172 7.96646L2.15291 7.96688L2.1542 7.96733L2.15705 7.96833L2.16385 7.97076L2.18173 7.97738C2.19547 7.98258 2.21287 7.98939 2.2334 7.99792C2.27434 8.01491 2.32848 8.03899 2.3915 8.07094C2.51589 8.13402 2.68371 8.23224 2.85466 8.37401C3.19872 8.65931 3.59378 9.15897 3.59378 9.90352C3.59378 10.6261 3.20925 11.094 2.97651 11.3772L2.95193 11.4071C2.70183 11.7125 2.63545 11.8223 2.63545 11.9999C2.63545 12.1774 2.70183 12.2873 2.95193 12.5926L2.97651 12.6226C3.20925 12.9058 3.59378 13.3736 3.59378 14.0962C3.59378 14.8408 3.19872 15.3404 2.85466 15.6257C2.68371 15.7675 2.51589 15.8657 2.3915 15.9288C2.32848 15.9608 2.27434 15.9848 2.2334 16.0018C2.21287 16.0103 2.19547 16.0172 2.18173 16.0224L2.16385 16.029L2.15705 16.0314L2.1542 16.0324L2.15291 16.0329C2.15291 16.0329 2.15172 16.0333 1.9167 15.354L2.15172 16.0333C1.77658 16.1631 1.36726 15.9642 1.23746 15.5891C1.10858 15.2166 1.30376 14.8104 1.67377 14.6776L1.68236 14.6741C1.69383 14.6694 1.71455 14.6603 1.74138 14.6467C1.79667 14.6187 1.86844 14.5761 1.93707 14.5192C2.07218 14.4072 2.15628 14.2779 2.15628 14.0962C2.15628 13.9187 2.0899 13.8088 1.83981 13.5035L1.81523 13.4735C1.58248 13.1903 1.19795 12.7224 1.19795 11.9999C1.19795 11.2773 1.58248 10.8094 1.81523 10.5262L1.83981 10.4963C2.0899 10.1909 2.15628 10.0811 2.15628 9.90352C2.15628 9.72184 2.07218 9.59259 1.93707 9.48054C1.86844 9.42363 1.79667 9.38107 1.74138 9.35303C1.71455 9.33943 1.69383 9.33037 1.68236 9.32561L1.67376 9.32215Z" fill="#316BFF"/>
<path d="M21.3263 9.32215C21.6963 9.18937 21.8915 8.78317 21.7626 8.41069C21.6328 8.03555 21.2235 7.83667 20.8483 7.96646L20.8472 7.96688L20.8459 7.96733L20.843 7.96833L20.8362 7.97076L20.8183 7.97738C20.8046 7.98258 20.7872 7.98939 20.7667 7.99792C20.7257 8.01491 20.6716 8.03899 20.6086 8.07094C20.4842 8.13402 20.3164 8.23224 20.1454 8.37401C19.8013 8.65931 19.4063 9.15897 19.4063 9.90352C19.4063 10.6261 19.7908 11.094 20.0236 11.3772L20.0481 11.4071C20.2982 11.7125 20.3646 11.8223 20.3646 11.9999C20.3646 12.1774 20.2982 12.2873 20.0481 12.5926L20.0236 12.6226C19.7908 12.9058 19.4063 13.3736 19.4063 14.0962C19.4063 14.8408 19.8013 15.3404 20.1454 15.6257C20.3164 15.7675 20.4842 15.8657 20.6086 15.9288C20.6716 15.9608 20.7257 15.9848 20.7667 16.0018C20.7872 16.0103 20.8046 16.0172 20.8183 16.0224L20.8362 16.029L20.843 16.0314L20.8459 16.0324L20.8472 16.0329C20.8472 16.0329 20.8483 16.0333 21.0834 15.354L20.8483 16.0333C21.2235 16.1631 21.6328 15.9642 21.7626 15.5891C21.8915 15.2166 21.6963 14.8104 21.3263 14.6776L21.3177 14.6741C21.3062 14.6694 21.2855 14.6603 21.2587 14.6467C21.2034 14.6187 21.1316 14.5761 21.063 14.5192C20.9279 14.4072 20.8438 14.2779 20.8438 14.0962C20.8438 13.9187 20.9102 13.8088 21.1603 13.5035L21.1848 13.4735C21.4176 13.1903 21.8021 12.7224 21.8021 11.9999C21.8021 11.2773 21.4176 10.8094 21.1848 10.5262L21.1603 10.4963C20.9102 10.1909 20.8438 10.0811 20.8438 9.90352C20.8438 9.72184 20.9279 9.59259 21.063 9.48054C21.1316 9.42363 21.2034 9.38107 21.2587 9.35303C21.2855 9.33943 21.3062 9.33037 21.3177 9.32561L21.3263 9.32215Z" fill="#316BFF"/>
</g>
</svg>
