<svg width="18" height="15" viewBox="0 0 18 15" fill="none" xmlns="http://www.w3.org/2000/svg">
<path d="M5.8501 7.20068C7.09274 7.20068 8.1001 6.19332 8.1001 4.95068C8.1001 3.70804 7.09274 2.70068 5.8501 2.70068C4.60746 2.70068 3.6001 3.70804 3.6001 4.95068C3.6001 6.19332 4.60746 7.20068 5.8501 7.20068Z" fill="#A6A6A6"/>
<path d="M12.6001 6.2998C10.8001 6.2998 9.90012 8.9998 8.55012 8.9998C7.20012 8.9998 7.20102 8.0998 5.40012 8.0998C3.60012 8.0998 2.69922 11.6998 2.69922 11.6998H15.3001C15.3001 11.6998 14.4001 6.2998 12.6001 6.2998Z" fill="#A6A6A6"/>
<path d="M16.2 0H1.8C0.8073 0 0 0.8073 0 1.8V12.6C0 13.5927 0.8073 14.4 1.8 14.4H16.2C17.1927 14.4 18 13.5927 18 12.6V1.8C18 0.8073 17.1927 0 16.2 0ZM16.2 12.6H1.8V1.8H16.2V12.6Z" fill="#A6A6A6"/>
</svg>
