<svg width="24" height="24" viewBox="0 0 24 24" fill="none" xmlns="http://www.w3.org/2000/svg">
<path fill-rule="evenodd" clip-rule="evenodd" d="M6.74988 6.5C6.74988 3.6005 9.10038 1.25 11.9999 1.25C14.8994 1.25 17.2499 3.6005 17.2499 6.5C17.2499 9.39949 14.8994 11.75 11.9999 11.75C9.10038 11.75 6.74988 9.39949 6.74988 6.5ZM11.9999 2.75C9.92881 2.75 8.24988 4.42893 8.24988 6.5C8.24988 8.57107 9.92881 10.25 11.9999 10.25C14.0709 10.25 15.7499 8.57107 15.7499 6.5C15.7499 4.42893 14.0709 2.75 11.9999 2.75Z" fill="#316BFF"/>
<path d="M13.7897 15.148C11.1902 14.3885 8.32834 14.7166 5.96134 16.126C5.79352 16.2259 5.60964 16.3302 5.41703 16.4395C4.70442 16.8438 3.87211 17.316 3.29202 17.8838C2.93189 18.2363 2.77838 18.5271 2.75382 18.7517C2.73433 18.9301 2.77942 19.2242 3.23005 19.6535C4.2659 20.6404 5.31848 21.25 6.59092 21.25H10.5001C10.9143 21.25 11.2501 21.5858 11.2501 22C11.2501 22.4142 10.9143 22.75 10.5001 22.75H6.59092C4.77262 22.75 3.36683 21.8556 2.19538 20.7396C1.51636 20.0927 1.1779 19.3646 1.26271 18.5887C1.34245 17.8592 1.78111 17.2637 2.24277 16.8118C2.98094 16.0893 4.05845 15.4814 4.77126 15.0792C4.93389 14.9875 5.07763 14.9064 5.19392 14.8371C7.92788 13.2092 11.2213 12.8349 14.2104 13.7082C14.608 13.8243 14.8361 14.2408 14.72 14.6384C14.6038 15.036 14.1873 15.2641 13.7897 15.148Z" fill="#316BFF"/>
<path fill-rule="evenodd" clip-rule="evenodd" d="M20.8745 12.5208C20.2039 12.1485 19.3899 12.1609 18.7307 12.5529C18.4557 12.7165 18.2161 12.9768 17.9438 13.2725L13.6307 17.9456C13.157 18.4582 12.802 18.8423 12.5926 19.3243C12.3837 19.8051 12.3431 20.3293 12.2888 21.032L12.2662 21.3225C12.2568 21.4418 12.2447 21.5958 12.2522 21.7312C12.2615 21.8967 12.3035 22.1495 12.5017 22.3744C12.702 22.6018 12.9505 22.6744 13.1184 22.7024C13.2527 22.7248 13.4072 22.7287 13.5236 22.7316L13.804 22.739C14.6042 22.7606 15.2131 22.777 15.7783 22.5563C16.3418 22.3362 16.7825 21.9111 17.3644 21.3497L21.7546 17.1213C22.045 16.8422 22.2991 16.5981 22.458 16.3192C22.8357 15.6564 22.8473 14.8426 22.4891 14.1692C22.3383 13.8858 22.0916 13.6343 21.8092 13.3466L21.746 13.2821L21.682 13.2166C21.4014 12.9293 21.1543 12.6762 20.8745 12.5208ZM19.4975 13.8421C19.6981 13.7228 19.9428 13.7193 20.1464 13.8323C20.2078 13.8664 20.2903 13.9394 20.6741 14.3314C21.0568 14.7224 21.1298 14.808 21.1648 14.8737C21.2816 15.0933 21.2777 15.3609 21.1548 15.5765C21.1181 15.6409 21.0428 15.7241 20.6489 16.1035L16.4173 20.1792C15.6985 20.8715 15.4816 21.0618 15.2325 21.1591C14.9905 21.2536 14.7148 21.2616 13.7774 21.2377C13.8432 20.3946 13.8729 20.1417 13.9683 19.9221C14.0639 19.7021 14.2275 19.5106 14.8061 18.8837L18.9841 14.3571C19.3563 13.9538 19.4369 13.8782 19.4975 13.8421Z" fill="#316BFF"/>
</svg>
