<svg width="25" height="24" viewBox="0 0 25 24" fill="none" xmlns="http://www.w3.org/2000/svg">
<path fill-rule="evenodd" clip-rule="evenodd" d="M9.47333 6.25021L9.38067 6.2501C8.90101 6.24929 8.45852 6.24854 8.02334 6.44732C7.70718 6.59173 7.43817 6.83709 7.24229 7.08214C7.0464 7.32719 6.86632 7.64364 6.79509 7.98384C6.69745 8.45018 6.77798 8.80501 6.86412 9.18459L6.87601 9.23709C7.31052 11.1614 8.32634 13.0482 9.88916 14.6111C11.452 16.1739 13.3388 17.1897 15.2631 17.6242L15.3156 17.6361C15.6952 17.7222 16.05 17.8028 16.5164 17.7051C16.8566 17.6339 17.173 17.4538 17.4181 17.2579C17.6631 17.062 17.9085 16.793 18.0529 16.4769C18.2517 16.0417 18.2509 15.5992 18.2501 15.1195L18.25 15.0269C18.25 14.8065 18.2432 14.4354 18.1003 14.0924C17.9295 13.6826 17.5777 13.3449 17.0263 13.2585L17.0205 13.2576C16.3372 13.1505 15.8175 13.069 15.4501 13.0156C15.2662 12.9889 15.1135 12.9681 14.9941 12.9546C14.896 12.9434 14.7609 12.9294 14.6479 12.936C14.1584 12.9647 13.769 13.1633 13.4674 13.3699C13.2755 13.5015 13.0669 13.6776 12.9029 13.8161C12.8385 13.8705 12.781 13.9191 12.734 13.9569L12.0521 14.506C11.6699 14.2201 11.301 13.9016 10.9498 13.5504C10.5987 13.1992 10.2801 12.8303 9.9942 12.4481L10.5433 11.7662C10.5811 11.7192 10.6297 11.6617 10.6841 11.5973C10.8226 11.4333 10.9988 11.2247 11.1303 11.0328C11.337 10.7312 11.5355 10.3418 11.5642 9.85228C11.5708 9.73931 11.5568 9.60426 11.5456 9.50611C11.5321 9.38669 11.5113 9.23405 11.4846 9.05015C11.4312 8.68267 11.3498 8.16321 11.2427 7.47968L11.2418 7.47395C11.1553 6.92251 10.8176 6.57071 10.4078 6.39995C10.0648 6.25701 9.6937 6.25021 9.47333 6.25021ZM15.5935 16.161C14.8511 15.9934 14.1101 15.723 13.3947 15.3508L13.6747 15.1253C13.7845 15.0369 13.8728 14.9619 13.9517 14.8948C14.0808 14.7851 14.1846 14.6969 14.3153 14.6073C14.4833 14.4922 14.6059 14.4449 14.7187 14.4347C14.72 14.4348 14.7218 14.435 14.7243 14.4352C14.7375 14.4362 14.7687 14.4386 14.8248 14.445C14.9206 14.4559 15.0548 14.4739 15.2343 14.5C15.5816 14.5505 16.0727 14.6273 16.7315 14.7306C16.7342 14.7449 16.7368 14.7618 16.7391 14.7817C16.7471 14.8489 16.75 14.9287 16.75 15.0269C16.75 15.6516 16.7356 15.7505 16.6885 15.8536C16.6695 15.8953 16.6033 15.9889 16.4815 16.0863C16.3596 16.1837 16.2538 16.2276 16.209 16.237C16.0875 16.2624 16.0334 16.2604 15.5935 16.161ZM9.37492 10.8255L9.14944 11.1055C8.77719 10.3901 8.50681 9.6491 8.33917 8.9067C8.23983 8.46677 8.23782 8.41273 8.26326 8.29124C8.27264 8.24641 8.31655 8.14057 8.41395 8.01873C8.51134 7.89689 8.60491 7.83075 8.64657 7.81172C8.74972 7.7646 8.84856 7.75021 9.47333 7.75021C9.57155 7.75021 9.65128 7.75316 9.71848 7.7611C9.7384 7.76346 9.75535 7.76605 9.76964 7.76866C9.87288 8.42748 9.94972 8.91863 10.0002 9.26593C10.0263 9.44537 10.0443 9.57961 10.0552 9.67541C10.0616 9.73148 10.064 9.76264 10.065 9.7759C10.0652 9.77838 10.0654 9.78024 10.0655 9.78151C10.0553 9.89428 10.008 10.0169 9.89294 10.1849C9.80333 10.3156 9.71514 10.4194 9.6054 10.5485C9.53836 10.6274 9.46327 10.7158 9.37492 10.8255Z" fill="white"/>
<path fill-rule="evenodd" clip-rule="evenodd" d="M12.5 1.25C6.56296 1.25 1.75002 6.06294 1.75002 12C1.75002 13.4809 2.04989 14.8937 2.59293 16.1795C2.73539 16.5168 2.83142 16.7447 2.89557 16.9198C2.96099 17.0985 2.97018 17.1631 2.97134 17.1798C2.97783 17.2737 2.95407 17.4013 2.79192 18.0074L1.7755 21.8061C1.70627 22.0649 1.78029 22.3409 1.96969 22.5303C2.15909 22.7197 2.43512 22.7937 2.69387 22.7245L6.49264 21.7081C7.09867 21.5459 7.22635 21.5222 7.32026 21.5287C7.33692 21.5298 7.40154 21.539 7.58019 21.6045C7.75534 21.6686 7.98326 21.7646 8.32056 21.9071C9.60634 22.4501 11.0191 22.75 12.5 22.75C18.4371 22.75 23.25 17.9371 23.25 12C23.25 6.06294 18.4371 1.25 12.5 1.25ZM3.25002 12C3.25002 6.89137 7.39138 2.75 12.5 2.75C17.6087 2.75 21.75 6.89137 21.75 12C21.75 17.1086 17.6087 21.25 12.5 21.25C11.2232 21.25 10.0086 20.9917 8.90417 20.5253L8.88682 20.5179C8.57139 20.3847 8.30962 20.2742 8.09603 20.1959C7.88203 20.1176 7.65675 20.0484 7.42382 20.0323C7.04562 20.0061 6.65333 20.1116 6.20258 20.2328L3.56002 20.94L4.26716 18.2975C4.38841 17.8467 4.49393 17.4544 4.46776 17.0762C4.45164 16.8433 4.38245 16.618 4.30408 16.404C4.22587 16.1904 4.11533 15.9287 3.98214 15.6134L3.97475 15.5959C3.50829 14.4914 3.25002 13.2768 3.25002 12Z" fill="white"/>
</svg>
